<?xml version="1.0" encoding="utf-8"?>
<!-- Generator: Adobe Illustrator 19.2.1, SVG Export Plug-In . SVG Version: 6.00 Build 0)  -->
<svg version="1.1" id="Layer_1" xmlns="http://www.w3.org/2000/svg" xmlns:xlink="http://www.w3.org/1999/xlink" x="0px" y="0px"
	 viewBox="0 0 80 80" style="enable-background:new 0 0 80 80;" xml:space="preserve">
<style type="text/css">
	.st0{fill:#FFF4EA;}
	.st1{fill:#75BE4B;}
</style>
<path class="st0" d="M32.6,5.2c-0.4-1.4-1.6-2.5-2.8-2.5c-1,0-1.9,0.6-2.6,1.7c-0.2,0.4-0.7,0.7-1.2,0.7s-0.9-0.3-1.2-0.7
	c-0.7-1.1-1.6-1.7-2.5-1.7c-1.3,0-2.5,1-2.8,2.5c-0.3,1.1-0.6,4.9,6.6,9C33.2,10.1,32.8,6.3,32.6,5.2"/>
<path class="st1" d="M30.1,14.7c1.7-1.3,3-2.6,3.9-4.1c1.6-2.6,1.6-4.8,1.2-6.2C34.5,1.9,32.3,0,29.7,0c-1.4,0-2.7,0.5-3.7,1.6
	c-1.1-1-2.3-1.6-3.7-1.6c-2.6,0-4.8,1.9-5.5,4.5c-0.3,1.4-0.4,3.6,1.2,6.2c0.9,1.4,2.2,2.8,3.9,4.1C9.5,16.7,0,27.5,0,40.4V72
	c0,2.4,2.6,4.3,5.8,4.3c3.3,0,5.8-1.9,5.8-4.3V43.7c5.9-1.7,9.5-5.1,11.7-8.3c1.2-1.8,2-3.5,2.6-5.1c0.6,1.6,1.4,3.4,2.6,5.1
	c2.2,3.2,5.8,6.7,11.7,8.3V72c0,2.4,2.6,4.3,5.8,4.3c3.3,0,5.8-1.9,5.8-4.3V40.4C52,27.5,42.5,16.7,30.1,14.7 M19.4,5.2
	c0.4-1.4,1.6-2.5,2.8-2.5c1,0,1.9,0.6,2.5,1.7c0.2,0.4,0.7,0.7,1.2,0.7c0.5,0,0.9-0.3,1.2-0.7c0.7-1.1,1.6-1.7,2.5-1.7
	c1.3,0,2.5,1,2.8,2.5c0.3,1.1,0.6,4.9-6.6,9C18.8,10.1,19.2,6.3,19.4,5.2 M8.9,72c0,0.6-1.2,1.6-3.1,1.6c-1.9,0-3.1-0.9-3.1-1.6
	v-5.4h6.2L8.9,72L8.9,72z M8.9,63.9H2.7v-8h6.2L8.9,63.9L8.9,63.9z M8.9,53.1H2.7v-8.5c0.5,0,1,0,1.4,0c1.7,0,3.3-0.1,4.8-0.4
	L8.9,53.1L8.9,53.1z M21.1,33.9c-2.3,3.4-5.5,5.8-9.4,7v-0.5c0-7.4,5.6-13.4,12.7-14.2C24,27.9,23.1,31,21.1,33.9 M24.6,23.4
	c-8.8,0.7-15.7,8.1-15.7,17v1.2c-1.9,0.3-4,0.5-6.2,0.4v-1.5c0-12.4,9.7-22.5,21.9-23.2C24.6,17.2,24.6,23.4,24.6,23.4z M40.3,40.9
	c-3.9-1.2-7.1-3.5-9.4-7c-2-2.9-2.9-6-3.3-7.8C34.8,27,40.3,33,40.3,40.4V40.9z M49.3,72c0,0.6-1.2,1.6-3.1,1.6
	c-1.9,0-3.1-0.9-3.1-1.6v-5.4h6.2L49.3,72L49.3,72z M49.3,63.9h-6.2v-8h6.2V63.9z M49.3,53.1h-6.2v-8.8c1.5,0.2,3,0.4,4.8,0.4
	c0.5,0,1,0,1.4,0V53.1z M49.3,41.9c-2.2,0.1-4.3,0-6.2-0.4v-1.2c0-8.9-6.9-16.3-15.7-17v-6.2C39.6,17.9,49.3,28,49.3,40.4
	C49.3,40.4,49.3,41.9,49.3,41.9z"/>
</svg>
