<?xml version="1.0" encoding="utf-8"?>
<!-- Generator: Adobe Illustrator 19.2.1, SVG Export Plug-In . SVG Version: 6.00 Build 0)  -->
<svg version="1.1" id="Layer_1" xmlns="http://www.w3.org/2000/svg" xmlns:xlink="http://www.w3.org/1999/xlink" x="0px" y="0px"
	 viewBox="0 0 80 80" style="enable-background:new 0 0 80 80;" xml:space="preserve">
<style type="text/css">
	.st0{fill:#75BE4B;}
	.st1{fill:#4C4941;}
</style>
<g>
	<path class="st0" d="M46.7,18.2c0-1.6-1.3-2.8-2.8-2.8c-1.2,0-2.1,0.7-2.6,1.7c-0.5-1-1.4-1.7-2.6-1.7c-1.6,0-2.8,1.3-2.8,2.8
		c0,0,0,0.1,0,0.3c0,0.2,0.1,0.4,0.1,0.6c0.3,1.2,5.3,6.5,5.3,6.5s5-5.3,5.3-6.5c0.1-0.2,0.1-0.4,0.1-0.6
		C46.7,18.3,46.7,18.2,46.7,18.2z"/>
	<path class="st1" d="M13.4,47.1c1,4.5-0.1,9.7-3.3,13.4c0,0-0.9,1.1-1.7,2.2c5.1,1.4,20.7,6,25.7,11c-0.4-1.1-1.8-5.1-4.1-7.9
		c-2.7-3.4-8-8-6.8-12.2c0.4-1.4,1.1-4.5,2.4-5c0.6-0.2,6.2,1,6.1-0.8C31.6,46,32,46,32.4,45.6c0.5-0.4-0.4-1.1-0.4-1.1
		s0.5-0.3,0.6-0.8s-0.4-0.7-0.3-1.2c0-0.5,0.5-0.5,0.8-0.6c0.4-0.1,1.6-0.3,0.9-1.3c-0.7-0.9-2.2-2.3-2.2-3.8c0-0.4,0-0.7,0-0.9
		c0.5-0.1,1.3-0.4,1.7-1c0,0-0.8,0.2-1.5,0.3c0.1-0.4,0.2-0.7,0.2-0.9c0,0,3.4-5.6,1.3-8.9s-7.4-4.5-9.5-3c-2.1,1.6-8.8-5-12.2-0.7
		c0,0-6.4-5.9-9.6,0S1.8,34,5.2,34.8c0,0-7.1,3.1-3.9,10.3c3.3,7.2,4.3,9.5,0,16.4c0,0,6.3-2.1,6.7-14C8.2,47.7,11.9,50.9,13.4,47.1
		z"/>
	<path class="st0" d="M5.3,34.9c0,0,9,1.7,18-12.2l0,0c-2.7,0-8.3-4.8-11.4-0.9C11.9,21.8,9.9,32.5,5.3,34.9z"/>
	<path class="st0" d="M20.1,68.5c4,1.7,15.4,8.9,15.4,8.9s-1.2-3.5-1.2-3.6c-5-4.9-20.6-9.6-25.8-11l0,0c-0.9,1.4-2.1,2.8-0.9,2.9
		C9,65.9,16.1,66.8,20.1,68.5z"/>
	<path class="st1" d="M49.4,22.3C49.4,22,49.4,22.1,49.4,22.3L49.4,22.3z"/>
	<path class="st1" d="M79.3,62.1l-4.6-6.4h-0.1c-0.9-1.2-3.2-4.7-2.9-8v-0.3c0-0.4,0.1-0.7,0.1-1c0.1,0.1,0.2,0.1,0.3-0.1
		c0.4-0.6,0.8-2.3,1.8-3.9c0.4-0.6,0.8-1.2,1.2-1.9c2.7-3.8,3.7-10.5,1.1-14.4c-2.5-3.9-2.9-5.3-6.8-5.8s-6.1,0.7-8-0.4
		s-4.1,0.8-7,0.3c-2-0.3-4.6,2.8-4.4,4.5c-0.6-0.9-0.7-2-0.7-2.4c0,0.2,0,0.5-0.1,1c-0.3,3,1.6,4.3,1.6,4.3c0.3,0.5,0.7,0.8,1.1,0.9
		c-0.8,1.9-1.5,4.9-1.1,5.9c0,0,0,0.1,0.1,0.3c-0.5-0.1-0.9-0.3-0.9-0.3c0,0.4,0.7,0.7,1,0.9c0,0.3,0,0.7-0.2,1
		c-0.5,0.8-2,3.3-2.1,3.6s-0.2,0.8,0,1.2c0.1,0.2,0.3,0.4,0.6,0.4c0.1,0,0.2,0,0.4,0c0.3,0,0.6,0,0.7,0.2c0.1,0.1,0.1,0.3,0.1,0.5
		s-0.1,0.4-0.1,0.5c-0.1,0.6-0.1,0.8,0.3,1.2c-0.1,0.2-0.3,0.6-0.3,0.9c0,0.3,0.2,0.5,0.4,0.6s0.3,0.2,0.3,0.4c0,0.5,0,1.1,0,1.4
		c0,0.4,0.2,1.5,1.1,1.8c0.4,0.1,1.5,0.4,2.3,0.6c0.6,0.2,1.2,0.4,1.5,0.5c0.5,0.2,0.7,0.3,0.9,1.6c0.2,1,0.3,1.4,0.5,2
		c0.1,0.2,0.1,0.4,0.2,0.6c0.4,1.3,0.7,2.7,0.6,4.1l-0.9,4.8c-0.3,0.1-0.5,0.2-0.7,0.3C54.9,64.3,51,77.4,51,77.4l7.7-5.4
		c3.5-1.5,6.8-2.7,12-4.1C81.1,65.3,79.3,62.1,79.3,62.1z"/>
	<path class="st0" d="M56.7,63.5c1.5-0.7,10.7-4.6,15.9-7l2.1-1l0.8,1.1c-0.9-1.4-1.7-2.4-1.7-2.4L55.5,59L55,66.2
		C55.6,64.8,56.2,63.7,56.7,63.5z"/>
</g>
</svg>
