<?xml version="1.0" encoding="utf-8"?>
<!-- Generator: Adobe Illustrator 19.2.1, SVG Export Plug-In . SVG Version: 6.00 Build 0)  -->
<svg version="1.1" id="Layer_1" xmlns="http://www.w3.org/2000/svg" xmlns:xlink="http://www.w3.org/1999/xlink" x="0px" y="0px"
	 viewBox="0 0 80 80" style="enable-background:new 0 0 80 80;" xml:space="preserve">
<style type="text/css">
	.st0{fill:#FFF4EA;}
	.st1{fill:#75BE4B;}
</style>
<path class="st0" d="M57,36.7V21H40.8c-0.9,0-1.6-0.7-1.6-1.6V3.2h-27v33.6l22.4,17L57,36.7z M33.9,44.2c-4.2-2.3-7.2-4.9-9-7.7
	c-2-3.2-1.9-5.8-1.5-7.5c0.8-3.2,3.5-5.4,6.6-5.4c1.7,0,3.3,0.7,4.5,1.9c1.3-1.2,2.9-1.9,4.5-1.9c3.1,0,5.8,2.2,6.6,5.4
	c0.4,1.7,0.5,4.3-1.5,7.5c-1.8,2.8-4.8,5.4-9,7.7c-0.2,0.1-0.5,0.2-0.8,0.2C34.4,44.4,34.1,44.4,33.9,44.2"/>
<path class="st1" d="M66.5,31.1C66.5,31.1,66.5,31.1,66.5,31.1L60.2,26v-6.5c0-0.4-0.2-0.8-0.5-1.1L41.9,0.5C41.6,0.2,41.2,0,40.8,0
	H10.6C9.7,0,9,0.7,9,1.6V26c-0.1,0-0.1,0.1-0.2,0.1l-6.1,4.9c0,0,0,0,0,0C1,32.5,0,34.5,0,36.8v36c0,4,3.3,7.3,7.3,7.3H62
	c4,0,7.3-3.3,7.3-7.3v-36C69.2,34.5,68.2,32.5,66.5,31.1 M60.2,30.1l2.7,2.2l-2.7,2.1V30.1z M12.2,3.2h27v16.3
	c0,0.9,0.7,1.6,1.6,1.6H57v15.7l-22.4,17l-22.4-17V3.2z M42.4,5.4l12.4,12.4H42.4V5.4z M9,30.1v4.2l-2.7-2L9,30.1z M3.2,72.7v-36
	c0-0.8,0.3-1.7,0.7-2.3l28,21.3L3.5,74.4C3.3,73.9,3.2,73.3,3.2,72.7 M62,76.8H7.3c-0.5,0-0.9-0.1-1.3-0.2l28.6-18.9l28.6,18.9
	C62.9,76.7,62.4,76.8,62,76.8 M66.1,72.7c0,0.6-0.1,1.2-0.4,1.7L37.4,55.7l28-21.3c0.5,0.7,0.7,1.5,0.7,2.3
	C66.1,36.8,66.1,72.7,66.1,72.7z"/>
<path class="st1" d="M44.3,36.6c2-3.2,1.9-5.8,1.5-7.5c-0.8-3.2-3.5-5.4-6.6-5.4c-1.7,0-3.3,0.7-4.5,1.9c-1.3-1.2-2.9-1.9-4.5-1.9
	c-3.1,0-5.8,2.2-6.6,5.4c-0.4,1.7-0.5,4.3,1.5,7.5c1.8,2.8,4.8,5.4,9,7.7c0.2,0.1,0.5,0.2,0.8,0.2c0.3,0,0.5-0.1,0.8-0.2
	C39.6,41.9,42.6,39.4,44.3,36.6 M26.5,29.8c0.5-1.8,2-3.1,3.6-3.1c1.2,0,2.4,0.8,3.2,2.1c0.3,0.5,0.8,0.8,1.4,0.8
	c0.6,0,1.1-0.3,1.4-0.8c0.8-1.4,2-2.1,3.2-2.1c1.6,0,3.1,1.3,3.6,3.1c0.3,1.4,0.7,6.1-8.1,11.2C25.8,35.9,26.2,31.2,26.5,29.8"/>
</svg>
