<?xml version="1.0" encoding="utf-8"?>
<!-- Generator: Adobe Illustrator 19.2.1, SVG Export Plug-In . SVG Version: 6.00 Build 0)  -->
<svg version="1.1" id="Layer_1" xmlns="http://www.w3.org/2000/svg" xmlns:xlink="http://www.w3.org/1999/xlink" x="0px" y="0px"
	 viewBox="0 0 80 80" style="enable-background:new 0 0 80 80;" xml:space="preserve">
<style type="text/css">
	.st0{fill:#75BE4B;}
	.st1{fill:#4A4840;}
</style>
<g>
	<path class="st0" d="M49.7,51.7c0.7,0,1.2,0.5,1.2,1.2c0,0.7-0.5,1.2-1.2,1.2H29.1c-0.7,0-1.2-0.5-1.2-1.2c0-0.7,0.5-1.2,1.2-1.2
		H49.7L49.7,51.7z M49.7,41.1c0.7,0,1.2,0.5,1.2,1.2c0,0.7-0.5,1.2-1.2,1.2H29.1c-0.7,0-1.2-0.5-1.2-1.2c0-0.7,0.5-1.2,1.2-1.2H49.7
		L49.7,41.1z M49.7,46.4c0.7,0,1.2,0.5,1.2,1.2c0,0.7-0.5,1.2-1.2,1.2H29.1c-0.7,0-1.2-0.5-1.2-1.2c0-0.7,0.5-1.2,1.2-1.2H49.7
		L49.7,46.4z"/>
	<path class="st1" d="M11.2,43.3l1.3,1v-3.7c0-1,0.5-1.7,1.2-2.4c8.4-5.9,17.3-11.3,25.8-17.1c8.5,5.9,17.3,11.2,25.8,17.1
		c0.7,0.6,1.2,1.4,1.2,2.4v3.7l1.3-1v-2.7c0-1.4-0.6-2.5-1.7-3.4c-8.7-6.1-17.9-11.6-26.6-17.7c-8.7,6.1-17.9,11.6-26.6,17.7
		c-1,0.9-1.6,1.9-1.7,3.3C11.2,41.2,11.2,42.5,11.2,43.3L11.2,43.3z M32.9,60l5.5-3.2c0.6-0.5,1.4-0.4,1.9,0l5.5,3.2l10.5-8.2V35.7
		H22.2l0,16L32.9,60L32.9,60z M39.4,60c-9,5.1-17.9,9.8-26.9,14.9h53.8C57.3,69.7,48.4,65.1,39.4,60L39.4,60z M11.2,72L30,61.7
		L11.2,47.2V72L11.2,72z M11,34.6c9.1-6.1,18.6-12.1,27.5-18.4c0.6-0.4,1.3-0.4,1.8,0c9,6.4,18.5,12,27.5,18.4
		c1.7,1.2,2.9,3.6,2.9,5.8l0,36c0,0.9-0.7,1.6-1.6,1.6H9.6C8.7,78,8,77.3,8,76.4V40.6C8,38.3,9,35.9,11,34.6L11,34.6z M67.7,72V47.2
		L48.9,61.7L67.7,72L67.7,72z"/>
</g>
</svg>
