<?xml version="1.0" encoding="utf-8"?>
<!-- Generator: Adobe Illustrator 19.2.1, SVG Export Plug-In . SVG Version: 6.00 Build 0)  -->
<svg version="1.1" id="Layer_1" xmlns="http://www.w3.org/2000/svg" xmlns:xlink="http://www.w3.org/1999/xlink" x="0px" y="0px"
	 viewBox="0 0 80 80" style="enable-background:new 0 0 80 80;" xml:space="preserve">
<style type="text/css">
	.st0{fill:#FFF4EA;}
	.st1{fill:#75BE4B;}
</style>
<path class="st0" d="M19.5,11.1H3.8c-1.1,0-1.9,0.9-1.9,1.9v26.5h19.5V13C21.4,11.9,20.6,11.1,19.5,11.1"/>
<path class="st1" d="M19.5,9.2H5H3.8C1.7,9.2,0,10.9,0,13v51.9c0,2.1,1.7,3.8,3.8,3.8h15.7c2.1,0,3.8-1.7,3.8-3.8V13
	C23.3,10.9,21.6,9.2,19.5,9.2 M21.4,39.5H1.9V13c0-1.1,0.9-1.9,1.9-1.9H5h14.5c1.1,0,1.9,0.9,1.9,1.9V39.5z M21.4,64.9
	c0,1.1-0.9,1.9-1.9,1.9H3.8c-1.1,0-1.9-0.9-1.9-1.9V41.4h19.5V64.9z"/>
<path class="st1" d="M8.5,48h6.3c0.5,0,1-0.4,1-1c0-0.5-0.4-0.9-1-0.9H8.5c-0.5,0-1,0.4-1,0.9C7.5,47.6,8,48,8.5,48"/>
<path class="st1" d="M8.5,62h6.3c0.5,0,1-0.4,1-1c0-0.5-0.4-1-1-1H8.5c-0.5,0-1,0.4-1,1C7.5,61.5,8,62,8.5,62"/>
<path class="st1" d="M8.5,55h6.3c0.5,0,1-0.4,1-1c0-0.5-0.4-1-1-1H8.5c-0.5,0-1,0.4-1,1C7.5,54.6,8,55,8.5,55"/>
<path class="st0" d="M49.2,2.3H29.8c-1.3,0-2.4,1.1-2.4,2.4v28h24.1v-28C51.5,3.4,50.5,2.3,49.2,2.3"/>
<path class="st1" d="M49.2,0H31.2h-1.4c-2.6,0-4.7,2.1-4.7,4.7v59.4c0,2.6,2.1,4.7,4.7,4.7h19.3c2.6,0,4.7-2.1,4.7-4.7V4.7
	C53.9,2.1,51.8,0,49.2,0 M51.5,32.7H27.5v-28c0-1.3,1.1-2.4,2.4-2.4h1.4h17.9c1.3,0,2.4,1.1,2.4,2.4V32.7z M51.5,64.2
	c0,1.3-1.1,2.4-2.4,2.4H29.8c-1.3,0-2.4-1.1-2.4-2.4V35.1h24.1C51.5,35.1,51.5,64.2,51.5,64.2z"/>
<path class="st1" d="M35.6,43.2h7.8c0.6,0,1.2-0.5,1.2-1.2c0-0.6-0.5-1.2-1.2-1.2h-7.8c-0.7,0-1.2,0.5-1.2,1.2
	C34.4,42.7,34.9,43.2,35.6,43.2"/>
<path class="st1" d="M35.6,60.5h7.8c0.6,0,1.2-0.5,1.2-1.2c0-0.7-0.5-1.2-1.2-1.2h-7.8c-0.7,0-1.2,0.5-1.2,1.2
	C34.4,59.9,34.9,60.5,35.6,60.5"/>
<path class="st1" d="M35.6,51.9h7.8c0.6,0,1.2-0.5,1.2-1.2s-0.5-1.2-1.2-1.2h-7.8c-0.7,0-1.2,0.5-1.2,1.2S34.9,51.9,35.6,51.9"/>
<path class="st0" d="M76.2,11.1H60.5c-1.1,0-1.9,0.9-1.9,1.9v26.5h19.5V13C78.1,11.9,77.2,11.1,76.2,11.1"/>
<path class="st1" d="M76.2,9.2H61.7h-1.1c-2.1,0-3.8,1.7-3.8,3.8v51.9c0,2.1,1.7,3.8,3.8,3.8h15.7c2.1,0,3.8-1.7,3.8-3.8V13
	C80,10.9,78.3,9.2,76.2,9.2 M78.1,39.5H58.6V13c0-1.1,0.9-1.9,1.9-1.9h1.1h14.5c1.1,0,1.9,0.9,1.9,1.9V39.5z M78.1,64.9
	c0,1.1-0.9,1.9-1.9,1.9H60.5c-1.1,0-1.9-0.9-1.9-1.9V41.4h19.5V64.9z"/>
<path class="st1" d="M65.2,48h6.3c0.5,0,0.9-0.4,0.9-1c0-0.5-0.4-0.9-0.9-0.9h-6.3c-0.5,0-1,0.4-1,0.9C64.2,47.6,64.6,48,65.2,48"/>
<path class="st1" d="M65.2,62h6.3c0.5,0,0.9-0.4,0.9-1c0-0.5-0.4-1-0.9-1h-6.3c-0.5,0-1,0.4-1,1C64.2,61.5,64.6,62,65.2,62"/>
<path class="st1" d="M65.2,55h6.3c0.5,0,0.9-0.4,0.9-1c0-0.5-0.4-1-0.9-1h-6.3c-0.5,0-1,0.4-1,1C64.2,54.6,64.6,55,65.2,55"/>
</svg>
