<?xml version="1.0" encoding="utf-8"?>
<!-- Generator: Adobe Illustrator 19.2.1, SVG Export Plug-In . SVG Version: 6.00 Build 0)  -->
<svg version="1.1" id="Layer_1" xmlns="http://www.w3.org/2000/svg" xmlns:xlink="http://www.w3.org/1999/xlink" x="0px" y="0px"
	 viewBox="0 0 80 80" style="enable-background:new 0 0 80 80;" xml:space="preserve">
<style type="text/css">
	.st0{fill:#4B4940;}
	.st1{fill:#75BE4B;}
</style>
<g>
	<path class="st0" d="M56.7,51.9c0.4-0.4,1.1-0.3,1.4,0.1c0.4,0.4,0.3,1.1-0.1,1.5L41,68.1c-0.4,0.4-1.1,0.3-1.5-0.1
		c-0.4-0.4-0.3-1.1,0.1-1.4L56.7,51.9L56.7,51.9z M51.1,68.1c-0.4,0.4-1.1,0.3-1.5-0.1c-0.4-0.4-0.3-1.1,0.1-1.4l6.9-6
		c0.4-0.4,1.1-0.3,1.4,0.1c0.4,0.4,0.3,1.1-0.1,1.5L51.1,68.1L51.1,68.1z M46.6,51.9c0.4-0.4,1.1-0.3,1.5,0.1
		c0.4,0.4,0.3,1.1-0.1,1.5l-6.9,6c-0.4,0.4-1.1,0.3-1.5-0.1c-0.4-0.4-0.3-1.1,0.1-1.5L46.6,51.9L46.6,51.9z M26.5,61.4
		c0.6,0.4,1,1,1,1.7c0,1.1-0.9,2.1-2.1,2.1s-2.1-0.9-2.1-2.1c0-0.7,0.4-1.4,1-1.7v-7c-0.6-0.4-1-1-1-1.7c0-1.1,0.9-2.1,2.1-2.1
		s2.1,0.9,2.1,2.1c0,0.7-0.4,1.4-1,1.7V61.4L26.5,61.4z M9.1,77.3c-1.1,0-2.1-0.9-2.1-2.1c0-1.1,0.9-2.1,2.1-2.1h3.1V50.4
		c0.5,0.1,1.1,0.2,1.7,0.2c0.5,0,1,0,1.4-0.1v22.8h15.4V49.7c0.8-0.4,1.4-0.8,2.1-1.4v24.9h32V50.4c0.5,0.1,1,0.1,1.5,0.1
		c0.6,0,1.1-0.1,1.6-0.2v22.8h3.1c1.1,0,2.1,0.9,2.1,2.1s-0.9,2.1-2.1,2.1L9.1,77.3L9.1,77.3z"/>
	<path class="st1" d="M64.6,20.6l-49.3,0l-8.3,19c22,0,43.9,0,65.9,0L64.6,20.6z M20.4,36.5c-0.7,0-1.4,0-2.1,0l3-12.9
		c0.7,0,1.3,0,2,0L20.4,36.5z M30.6,36.5c-0.7,0-1.4,0-2,0l1.5-12.9c0.7,0,1.3,0,2,0L30.6,36.5z M39.1,36.5l0-12.8c0.7,0,1.3,0,2,0
		l0.1,12.8C40.4,36.5,39.7,36.5,39.1,36.5z M49.4,36.5l-1.5-12.9c0.7,0,1.3,0,2,0l1.5,12.9C50.7,36.5,50.1,36.5,49.4,36.5z
		 M59.6,36.5l-2.9-12.8c0.7,0,1.3,0,2,0l3,12.8C61,36.5,60.3,36.5,59.6,36.5z"/>
	<path class="st1" d="M73,41.7c0,3.7-3.3,6.8-6.8,6.8c-3.4,0-5.8-2.1-6.5-5c-0.8,2.9-3.4,5-6.5,5s-5.8-2.1-6.5-5
		c-0.8,2.9-3.4,5-6.5,5c-3.1,0-5.8-2.1-6.5-5c-0.8,2.9-3.4,5-6.5,5c-3.1,0-5.8-2.1-6.5-5c-0.8,2.9-3.4,5-6.5,5c-3.7,0-6.8-3-6.8-6.8
		H73L73,41.7z"/>
	<path class="st1" d="M65.9,16H14.1c-2,0-2,3.1,0,3.1h51.8C67.9,19.1,67.9,16,65.9,16L65.9,16z"/>
</g>
</svg>
