<?xml version="1.0" encoding="UTF-8"?>
<svg xmlns="http://www.w3.org/2000/svg" xmlns:xlink="http://www.w3.org/1999/xlink" version="1.2" >
<font id="Proxima Soft Bold">
<font-face  font-family="Proxima Soft" units-per-em="1000" ascent="790" descent="-210" font-style="normal" font-weight="700" font-stretch="normal" cap-height="667" x-height="483" underline-position="-123" underline-thickness="20" />
<missing-glyph  horiz-adv-x="483" d="M108 -90 L375 -90 C400 -90 417 -73 417 -48 L417 710 C417 735 400 752 375 752 L108 752 C83 752 66 735 66 710 L66 -48 C66 -73 83 -90 108 -90 L108 -90 Z M385 722 L385 -60 L97 -60 L97 722 L385 722 Z " />
<glyph glyph-name="NULL" d="" />
<glyph glyph-name="&amp;#x0;" d="" />
<glyph glyph-name="&amp;#xd;" unicode="&#xd;" d="" />
<glyph glyph-name="space" unicode="&#x20;" horiz-adv-x="256" d="" />
<glyph glyph-name="exclam" unicode="&#x21;" horiz-adv-x="256" d="M128 210 C159 210 185 234 187 266 L201 597 C203 640 169 674 127 674 C86 674 52 639 54 597 L69 266 C71 234 96 210 128 210 L128 210 Z M48 70 C48 27 84 -10 128 -10 C172 -10 208 27 208 70 C208 114 172 151 128 151 C84 151 48 114 48 70 L48 70 Z " />
<glyph glyph-name="quotedbl" unicode="&#x22;" horiz-adv-x="406" d="M113 369 C130 369 142 380 145 395 C160 475 182 594 182 608 C182 646 150 677 113 677 C75 677 44 646 44 608 C44 594 65 475 81 395 C84 380 96 369 113 369 L113 369 Z M294 369 C312 369 323 380 325 395 C347 507 362 597 362 608 C362 646 332 677 294 677 C256 677 225 646 225 608 C225 597 240 507 263 395 C265 380 277 369 294 369 L294 369 Z " />
<glyph glyph-name="numbersign" unicode="&#x23;" horiz-adv-x="618" d="M555 496 L504 496 L544 616 C545 619 546 625 546 630 C546 654 526 674 502 674 C483 674 465 661 460 644 L411 496 L317 496 L357 616 C358 619 358 625 358 630 C358 654 338 674 314 674 C294 674 277 662 271 644 L223 496 L144 496 C123 496 104 478 104 456 C104 433 123 416 144 416 L195 416 L141 250 L65 250 C43 250 25 233 25 210 C25 187 43 169 65 169 L113 169 L74 52 C72 48 71 42 71 37 C71 13 91 -7 116 -7 C135 -7 152 6 158 23 L207 169 L302 169 L262 52 C261 48 260 42 260 37 C260 13 280 -7 304 -7 C323 -7 341 6 346 23 L395 169 L476 169 C498 169 516 187 516 210 C516 233 498 250 476 250 L422 250 L477 416 L555 416 C577 416 595 433 595 456 C595 478 577 496 555 496 L555 496 Z M328 250 L235 250 L289 416 L383 416 L328 250 Z " />
<glyph glyph-name="dollar" unicode="&#x24;" horiz-adv-x="614" d="M580 202 C580 338 465 378 361 405 L361 545 C390 538 418 527 444 510 C454 504 465 500 478 500 C514 500 544 530 544 566 C544 590 530 612 511 623 C466 651 416 667 361 673 L361 728 C361 754 339 775 313 775 C288 775 266 754 266 728 L266 675 C132 662 51 576 51 474 C51 339 163 299 266 274 L266 117 C222 124 184 142 151 165 C141 172 128 177 114 177 C77 177 48 147 48 111 C48 88 59 67 77 55 C127 20 189 -4 266 -10 L266 -60 C266 -86 288 -107 313 -107 C339 -107 361 -86 361 -60 L361 -9 C508 6 580 92 580 202 L580 202 Z M197 486 C197 522 224 548 275 553 L275 426 C229 438 197 455 197 486 L197 486 Z M352 114 L352 254 C400 240 435 223 435 186 C435 153 409 122 352 114 L352 114 Z " />
<glyph glyph-name="percent" unicode="&#x25;" horiz-adv-x="757" d="M195 345 C298 345 365 416 365 509 C365 603 298 677 195 677 C93 677 26 603 26 509 C26 416 93 345 195 345 L195 345 Z M183 -7 C194 -7 204 -1 210 8 L605 625 C608 630 610 636 610 642 C610 660 596 674 578 674 C566 674 556 668 550 659 L157 42 C153 36 151 31 151 25 C151 7 166 -7 183 -7 L183 -7 Z M195 415 C150 415 116 451 116 509 C116 570 150 605 195 605 C241 605 274 570 274 509 C274 451 241 415 195 415 L195 415 Z M562 -12 C664 -12 732 60 732 153 C732 247 664 321 562 321 C460 321 393 247 393 153 C393 60 460 -12 562 -12 L562 -12 Z M562 58 C516 58 483 94 483 153 C483 214 516 249 562 249 C608 249 642 214 642 153 C642 94 608 58 562 58 L562 58 Z " />
<glyph glyph-name="ampersand" unicode="&#x26;" horiz-adv-x="646" d="M573 102 C554 116 535 130 516 145 C541 179 562 215 581 251 C584 258 587 267 587 276 C587 305 562 329 533 329 C511 329 493 317 484 297 C472 270 458 242 441 215 C420 236 401 258 383 281 C366 301 345 326 326 353 C408 391 489 434 489 536 C489 625 408 677 314 677 C203 677 123 607 123 517 C123 472 141 423 168 374 C92 335 24 283 24 181 C24 52 122 -12 244 -12 C321 -12 383 16 436 58 C460 37 484 17 503 3 C515 -5 526 -7 539 -7 C571 -7 599 20 599 53 C599 70 591 90 573 102 L573 102 Z M250 514 C250 555 281 585 320 585 C353 585 379 564 379 529 C379 480 336 451 279 424 C262 456 250 487 250 514 L250 514 Z M262 88 C207 88 159 128 159 193 C159 239 182 270 217 295 C239 264 262 234 284 207 C300 187 329 157 362 126 C332 103 298 88 262 88 L262 88 Z " />
<glyph glyph-name="quotesingle" unicode="&#x27;" horiz-adv-x="225" d="M113 369 C130 369 142 380 145 395 C160 475 182 594 182 608 C182 646 150 677 113 677 C75 677 44 646 44 608 C44 594 65 475 81 395 C84 380 96 369 113 369 L113 369 Z " />
<glyph glyph-name="parenleft" unicode="&#x28;" horiz-adv-x="297" d="M213 -184 C243 -184 267 -159 267 -128 C267 -119 265 -110 261 -103 C205 7 178 109 178 243 C178 378 205 479 262 590 C266 598 267 606 267 615 C267 645 243 670 213 670 C194 670 178 661 168 647 C87 534 41 384 41 243 C41 102 87 -48 168 -161 C178 -175 194 -184 213 -184 L213 -184 Z " />
<glyph glyph-name="parenright" unicode="&#x29;" horiz-adv-x="297" d="M84 -184 C102 -184 119 -175 129 -161 C210 -48 257 102 257 243 C257 384 210 534 128 647 C118 661 102 670 84 670 C54 670 29 645 29 615 C29 606 31 598 35 590 C92 479 119 378 119 243 C119 109 92 8 35 -103 C31 -110 29 -119 29 -128 C29 -159 54 -184 84 -184 L84 -184 Z " />
<glyph glyph-name="asterisk" unicode="&#x2a;" horiz-adv-x="351" d="M175 359 C192 359 207 373 206 390 L201 477 L273 430 C278 426 284 425 290 425 C306 425 320 439 320 455 C320 467 314 477 304 482 L228 521 L304 560 C314 566 320 576 320 587 C320 604 306 617 290 617 C284 617 278 615 273 613 L201 566 L206 653 C207 671 192 684 175 684 C159 684 144 669 145 653 L149 566 L77 613 C72 616 67 617 60 617 C44 617 31 604 31 587 C31 576 36 566 46 560 L123 521 L46 482 C36 477 31 467 31 455 C31 439 44 425 60 425 C67 425 72 427 77 430 L149 477 L145 390 C144 373 159 359 175 359 L175 359 Z " />
<glyph glyph-name="plus" unicode="&#x2b;" horiz-adv-x="504" d="M296 298 L443 298 C465 298 483 315 483 337 C483 359 465 377 443 377 L296 377 L296 536 C296 560 276 579 252 579 C229 579 209 560 209 536 L209 377 L61 377 C40 377 22 359 22 337 C22 315 40 298 61 298 L209 298 L209 131 C209 107 229 88 252 88 C276 88 296 107 296 131 L296 298 Z " />
<glyph glyph-name="comma" unicode="&#x2c;" horiz-adv-x="256" d="M130 -124 C183 -77 215 -17 215 49 C215 114 172 151 125 151 C83 151 47 115 47 71 C47 28 77 -2 115 -2 C122 -2 131 0 134 1 C129 -24 108 -51 84 -73 C77 -80 73 -89 73 -99 C73 -118 88 -133 107 -133 C116 -133 124 -130 130 -124 L130 -124 Z " />
<glyph glyph-name="hyphen" unicode="&#x2d;" horiz-adv-x="300" d="M76 188 L224 188 C253 188 278 212 278 242 C278 272 253 296 224 296 L76 296 C47 296 22 272 22 242 C22 212 47 188 76 188 L76 188 Z " />
<glyph glyph-name="period" unicode="&#x2e;" horiz-adv-x="256" d="M47 70 C47 26 84 -11 128 -11 C172 -11 209 26 209 70 C209 114 172 151 128 151 C84 151 47 114 47 70 L47 70 Z " />
<glyph glyph-name="slash" unicode="&#x2f;" horiz-adv-x="329" d="M58 -27 C78 -27 93 -15 99 2 L312 637 C314 640 315 646 315 651 C315 675 295 694 271 694 C251 694 236 682 230 665 L17 30 C15 27 14 21 14 16 C14 -8 34 -27 58 -27 L58 -27 Z " />
<glyph glyph-name="zero" unicode="0" horiz-adv-x="620" d="M34 333 C34 161 119 -12 310 -12 C500 -12 586 161 586 333 C586 505 500 677 310 677 C119 677 34 505 34 333 L34 333 Z M441 333 C441 210 405 114 310 114 C214 114 178 210 178 333 C178 456 214 551 310 551 C405 551 441 456 441 333 L441 333 Z " />
<glyph glyph-name="one" unicode="1" horiz-adv-x="408" d="M271 -7 C310 -7 342 26 342 64 L342 592 C342 637 305 674 260 674 C237 674 216 665 201 650 L43 492 C33 481 26 467 26 450 C26 418 52 391 85 391 C101 391 116 398 127 409 L199 484 L199 64 C199 26 231 -7 271 -7 L271 -7 Z " />
<glyph glyph-name="two" unicode="2" horiz-adv-x="590" d="M104 0 L483 0 C517 0 546 28 546 63 C546 97 517 125 483 125 L261 125 C440 251 534 350 534 464 C534 597 421 677 279 677 C206 677 130 656 68 609 C53 598 41 579 41 558 C41 523 70 495 105 495 C118 495 130 499 140 506 C180 534 226 551 281 551 C337 551 390 522 390 464 C390 384 315 318 61 133 C43 120 30 98 30 74 C30 33 64 0 104 0 L104 0 Z " />
<glyph glyph-name="three" unicode="3" horiz-adv-x="578" d="M274 -12 C434 -12 537 69 537 184 C537 284 449 337 381 344 C455 357 527 412 527 496 C527 607 431 677 275 677 C184 677 113 649 59 607 C45 596 35 579 35 560 C35 528 62 501 94 501 C106 501 117 505 126 511 C167 539 212 553 260 553 C330 553 384 526 384 473 C384 423 335 399 261 399 L232 399 C199 399 171 372 171 339 C171 304 199 277 233 277 L261 277 C354 277 395 252 395 198 C395 147 350 112 269 112 C220 112 168 127 123 157 C113 164 101 168 90 168 C55 168 27 140 27 106 C27 86 38 67 53 56 C107 15 182 -12 274 -12 L274 -12 Z " />
<glyph glyph-name="four" unicode="4" horiz-adv-x="597" d="M514 263 L486 263 L486 550 C486 618 431 674 363 674 C318 674 280 650 258 616 L30 258 C23 246 18 232 18 216 C18 173 54 138 96 138 L344 138 L344 64 C344 26 376 -7 416 -7 C455 -7 486 26 486 64 L486 138 L515 138 C550 138 579 165 579 201 C579 236 549 263 514 263 L514 263 Z M164 263 L344 541 L344 263 L164 263 Z " />
<glyph glyph-name="five" unicode="5" horiz-adv-x="608" d="M96 49 C151 10 219 -12 306 -12 C467 -12 573 77 573 218 C573 353 472 433 359 433 C298 433 244 409 209 378 L209 545 L474 545 C507 545 536 572 536 605 C536 640 507 667 474 667 L145 667 C96 667 70 640 70 592 L70 337 C70 295 104 261 146 261 C164 261 180 266 193 276 C228 303 265 314 309 314 C385 314 429 273 429 212 C429 157 384 112 305 112 C253 112 206 125 165 154 C155 161 143 164 131 164 C96 164 68 136 68 101 C68 80 80 59 96 49 L96 49 Z " />
<glyph glyph-name="six" unicode="6" horiz-adv-x="608" d="M34 332 C34 144 119 -12 322 -12 C474 -12 577 87 577 217 C577 359 470 432 350 432 C277 432 210 392 179 347 C178 351 178 356 178 361 C178 467 244 554 345 554 C382 554 411 546 437 531 C445 526 455 524 466 524 C499 524 527 551 527 585 C527 609 513 630 493 639 C451 663 402 677 345 677 C148 677 34 534 34 332 L34 332 Z M433 211 C433 164 392 112 315 112 C221 112 185 186 179 250 C211 289 259 314 309 314 C374 314 433 283 433 211 L433 211 Z " />
<glyph glyph-name="seven" unicode="7" horiz-adv-x="548" d="M229 -7 C259 -7 285 10 295 36 L529 572 C533 580 535 589 535 599 C535 637 504 667 467 667 L83 667 C49 667 20 639 20 604 C20 570 49 542 83 542 L363 542 L164 93 C161 83 158 74 158 64 C158 25 190 -7 229 -7 L229 -7 Z " />
<glyph glyph-name="eight" unicode="8" horiz-adv-x="606" d="M35 173 C35 48 163 -12 303 -12 C443 -12 571 49 571 173 C571 254 507 316 427 344 C501 369 560 418 560 501 C560 626 426 677 303 677 C179 677 46 626 46 501 C46 418 104 369 178 344 C98 316 35 254 35 173 L35 173 Z M415 479 C415 427 344 404 303 398 C262 404 190 427 190 479 C190 526 237 555 303 555 C368 555 415 526 415 479 L415 479 Z M427 190 C427 141 371 110 303 110 C233 110 179 141 179 190 C179 248 261 276 303 281 C344 276 427 248 427 190 L427 190 Z " />
<glyph glyph-name="nine" unicode="9" horiz-adv-x="608" d="M115 27 C157 3 207 -11 263 -11 C460 -11 573 132 573 333 C573 522 488 678 286 678 C134 678 30 579 30 449 C30 307 138 233 258 233 C331 233 398 274 430 319 L430 305 C430 204 370 113 263 113 C225 113 196 120 170 135 C162 140 152 142 142 142 C109 142 81 115 81 81 C81 57 95 37 115 27 L115 27 Z M428 415 C397 376 348 353 298 353 C234 353 175 384 175 455 C175 502 216 555 292 555 C387 555 423 479 428 415 L428 415 Z " />
<glyph glyph-name="colon" unicode="&#x3a;" horiz-adv-x="256" d="M47 409 C47 365 84 328 128 328 C172 328 209 365 209 409 C209 453 172 490 128 490 C84 490 47 453 47 409 L47 409 Z M47 70 C47 26 84 -11 128 -11 C172 -11 209 26 209 70 C209 114 172 151 128 151 C84 151 47 114 47 70 L47 70 Z " />
<glyph glyph-name="semicolon" unicode="&#x3b;" horiz-adv-x="256" d="M128 328 C172 328 209 366 209 409 C209 453 172 490 128 490 C84 490 47 453 47 409 C47 366 84 328 128 328 L128 328 Z M130 -124 C183 -77 215 -17 215 49 C215 114 172 151 125 151 C83 151 47 115 47 71 C47 29 77 -1 115 -1 C122 -1 131 1 134 3 C129 -22 108 -50 84 -73 C77 -79 73 -88 73 -98 C73 -117 88 -133 107 -133 C116 -133 124 -129 130 -124 L130 -124 Z " />
<glyph glyph-name="less" unicode="&#x3c;" horiz-adv-x="504" d="M61 275 L423 113 C427 111 434 110 440 110 C464 110 483 129 483 152 C483 170 472 186 457 191 L120 334 L456 478 C471 485 483 499 483 517 C483 541 464 561 439 561 C434 561 427 559 423 557 L61 394 C39 384 22 361 22 335 C22 308 39 285 61 275 L61 275 Z " />
<glyph glyph-name="equal" unicode="&#x3d;" horiz-adv-x="504" d="M61 388 L443 388 C465 388 483 406 483 428 C483 450 465 468 443 468 L61 468 C40 468 22 450 22 428 C22 406 40 388 61 388 L61 388 Z M61 201 L443 201 C465 201 483 218 483 240 C483 261 465 279 443 279 L61 279 C40 279 22 261 22 239 C22 218 40 201 61 201 L61 201 Z " />
<glyph glyph-name="greater" unicode="&#x3e;" horiz-adv-x="504" d="M82 113 L443 275 C466 285 483 308 483 335 C483 361 466 384 443 394 L82 557 C77 559 71 561 65 561 C41 561 22 541 22 517 C22 499 34 485 49 478 L384 334 L48 191 C33 185 22 170 22 152 C22 129 41 110 64 110 C71 110 77 111 82 113 L82 113 Z " />
<glyph glyph-name="question" unicode="&#x3f;" horiz-adv-x="456" d="M145 292 C145 277 148 262 155 248 C161 224 184 206 210 206 C241 206 267 232 270 261 C270 263 271 266 270 270 C269 274 269 277 269 280 C269 315 301 337 335 363 C382 396 436 436 436 519 C436 612 357 677 228 677 C164 677 105 658 55 621 C39 610 28 592 28 570 C28 536 56 509 90 509 C102 509 115 513 124 519 C149 540 178 551 213 551 C268 551 291 525 291 494 C291 464 264 445 233 423 C193 394 145 361 145 292 L145 292 Z M145 70 C145 26 182 -11 226 -11 C270 -11 307 26 307 70 C307 114 270 151 226 151 C182 151 145 114 145 70 L145 70 Z " />
<glyph glyph-name="at" unicode="&#x40;" horiz-adv-x="783" d="M614 425 C622 461 598 491 560 491 C532 491 509 471 504 441 L502 432 C481 470 437 498 378 498 C262 498 152 387 152 253 C152 156 210 85 307 85 C361 85 415 116 450 165 L452 159 C458 121 489 85 549 85 C636 85 747 164 747 332 C747 498 623 638 432 638 C224 638 35 457 35 244 C35 67 170 -70 352 -70 C389 -70 467 -63 546 -16 C551 -12 555 -8 555 0 C555 10 547 19 537 19 C535 19 530 18 526 15 C462 -23 399 -32 356 -32 C193 -32 74 89 74 246 C74 433 238 599 428 599 C596 599 704 490 704 332 C704 218 649 171 610 171 C589 171 573 185 573 216 C573 221 575 236 576 243 L614 425 Z M462 240 C440 210 404 175 351 175 C300 175 268 211 268 263 C268 336 326 408 406 408 C450 408 476 379 487 357 L462 240 Z " />
<glyph glyph-name="A" unicode="A" horiz-adv-x="678" d="M650 90 L456 594 C438 641 392 674 339 674 C285 674 240 641 222 594 L27 90 C24 83 22 74 22 65 C22 25 54 -7 94 -7 C125 -7 153 13 162 41 L189 119 L489 119 L516 41 C525 13 552 -7 583 -7 C623 -7 656 25 656 65 C656 74 653 83 650 90 L650 90 Z M233 242 L339 544 L445 242 L233 242 Z " />
<glyph glyph-name="B" unicode="B" horiz-adv-x="663" d="M141 0 L428 0 C555 0 622 80 622 180 C622 264 565 333 494 344 C557 357 609 413 609 497 C609 586 544 667 417 667 L141 667 C93 667 66 640 66 592 L66 76 C66 27 93 0 141 0 L141 0 Z M208 399 L208 546 L386 546 C434 546 464 514 464 473 C464 430 434 399 386 399 L208 399 Z M208 121 L208 278 L391 278 C447 278 477 242 477 200 C477 152 445 121 391 121 L208 121 Z " />
<glyph glyph-name="C" unicode="C" horiz-adv-x="677" d="M384 -12 C494 -12 569 30 622 88 C633 99 639 115 639 132 C639 169 609 199 572 199 C552 199 534 190 522 177 C488 138 440 114 384 114 C268 114 180 207 180 333 C180 459 268 552 384 552 C440 552 488 527 521 490 C534 475 552 467 572 467 C609 467 639 497 639 534 C639 551 633 568 622 579 C569 637 494 678 384 678 C189 678 34 538 34 333 C34 128 189 -12 384 -12 L384 -12 Z " />
<glyph glyph-name="D" unicode="D" horiz-adv-x="718" d="M141 0 L329 0 C538 0 683 132 683 333 C683 534 538 667 329 667 L141 667 C93 667 66 640 66 592 L66 76 C66 27 93 0 141 0 L141 0 Z M208 125 L208 542 L329 542 C466 542 538 451 538 333 C538 220 461 125 329 125 L208 125 Z " />
<glyph glyph-name="E" unicode="E" horiz-adv-x="583" d="M141 0 L483 0 C517 0 545 28 545 62 C545 95 517 123 483 123 L208 123 L208 278 L476 278 C510 278 538 305 538 339 C538 372 510 400 476 400 L208 400 L208 545 L483 545 C517 545 545 572 545 605 C545 640 517 667 483 667 L141 667 C93 667 66 640 66 592 L66 76 C66 27 93 0 141 0 L141 0 Z " />
<glyph glyph-name="F" unicode="F" horiz-adv-x="571" d="M138 -7 C177 -7 208 26 208 64 L208 278 L476 278 C510 278 538 305 538 339 C538 372 510 400 476 400 L208 400 L208 545 L483 545 C517 545 545 572 545 605 C545 640 517 667 483 667 L141 667 C93 667 66 640 66 592 L66 64 C66 26 98 -7 138 -7 L138 -7 Z " />
<glyph glyph-name="G" unicode="G" horiz-adv-x="720" d="M605 369 L409 369 C375 369 347 340 347 306 C347 272 375 245 409 245 L531 245 L531 165 C504 140 453 114 389 114 C268 114 180 207 180 333 C180 459 268 552 389 552 C442 552 487 530 521 497 C533 485 550 478 567 478 C604 478 633 508 633 544 C633 564 625 582 612 594 C558 644 487 678 389 678 C194 678 34 544 34 333 C34 123 194 -13 389 -13 C489 -13 570 21 634 75 C664 100 673 129 673 167 L673 300 C673 341 646 369 605 369 L605 369 Z " />
<glyph glyph-name="H" unicode="H" horiz-adv-x="731" d="M594 -7 C634 -7 666 26 666 64 L666 603 C666 642 634 674 595 674 C555 674 523 642 523 603 L523 405 L208 405 L208 603 C208 642 177 674 137 674 C98 674 66 642 66 603 L66 64 C66 26 98 -7 138 -7 C177 -7 208 26 208 64 L208 280 L523 280 L523 64 C523 26 555 -7 594 -7 L594 -7 Z " />
<glyph glyph-name="I" unicode="I" horiz-adv-x="274" d="M138 -7 C177 -7 208 26 208 64 L208 603 C208 642 177 674 138 674 C98 674 66 642 66 603 L66 64 C66 26 98 -7 138 -7 L138 -7 Z " />
<glyph glyph-name="J" unicode="J" horiz-adv-x="486" d="M55 21 C95 -2 138 -12 185 -12 C322 -12 420 61 420 219 L420 603 C420 642 388 674 349 674 C309 674 278 642 278 603 L278 221 C278 156 237 114 174 114 C148 114 128 121 109 133 C101 137 92 139 82 139 C47 139 19 111 19 76 C19 51 34 31 55 21 L55 21 Z " />
<glyph glyph-name="K" unicode="K" horiz-adv-x="636" d="M585 106 L362 350 L564 564 C576 576 581 591 581 608 C581 643 552 674 515 674 C496 674 479 667 465 652 L208 368 L208 603 C208 642 177 674 137 674 C98 674 66 642 66 603 L66 64 C66 26 98 -7 137 -7 C177 -7 208 26 208 64 L208 205 L262 265 L484 15 C496 0 514 -7 535 -7 C574 -7 602 26 602 62 C602 78 595 94 585 106 L585 106 Z " />
<glyph glyph-name="L" unicode="L" horiz-adv-x="523" d="M141 0 L435 0 C468 0 497 28 497 63 C497 97 468 125 435 125 L208 125 L208 603 C208 642 177 674 138 674 C98 674 66 642 66 603 L66 76 C66 27 93 0 141 0 L141 0 Z " />
<glyph glyph-name="M" unicode="M" horiz-adv-x="855" d="M717 -7 C757 -7 789 26 789 64 L789 558 C789 622 737 674 672 674 C623 674 580 643 564 599 L427 251 L291 599 C274 643 232 674 182 674 C118 674 66 622 66 558 L66 64 C66 26 98 -7 138 -7 C177 -7 208 26 208 64 L208 480 L389 19 C395 4 410 -7 427 -7 C444 -7 459 4 465 19 L646 480 L646 64 C646 26 678 -7 717 -7 L717 -7 Z " />
<glyph glyph-name="N" unicode="N" horiz-adv-x="729" d="M576 -7 C624 -7 663 32 663 80 L663 603 C663 642 631 674 592 674 C552 674 521 642 521 603 L521 235 L235 635 C218 659 190 674 159 674 C107 674 66 632 66 581 L66 64 C66 26 98 -7 138 -7 C177 -7 208 26 208 64 L208 448 L505 30 C521 7 547 -7 576 -7 L576 -7 Z " />
<glyph glyph-name="O" unicode="O" horiz-adv-x="765" d="M34 333 C34 132 181 -12 382 -12 C584 -12 731 132 731 333 C731 534 584 678 382 678 C181 678 34 534 34 333 L34 333 Z M585 333 C585 209 505 114 382 114 C259 114 180 209 180 333 C180 458 259 552 382 552 C505 552 585 458 585 333 L585 333 Z " />
<glyph glyph-name="P" unicode="P" horiz-adv-x="624" d="M138 -7 C177 -7 208 26 208 64 L208 239 L378 239 C522 239 602 336 602 452 C602 569 523 667 378 667 L141 667 C93 667 66 640 66 592 L66 64 C66 26 98 -7 138 -7 L138 -7 Z M457 453 C457 397 415 361 359 361 L208 361 L208 545 L359 545 C415 545 457 508 457 453 L457 453 Z " />
<glyph glyph-name="Q" unicode="Q" horiz-adv-x="765" d="M656 84 L644 98 C699 158 731 239 731 333 C731 534 584 678 382 678 C181 678 34 534 34 333 C34 132 181 -12 382 -12 C440 -12 494 0 541 22 L558 2 C571 -15 592 -23 614 -20 C649 -16 673 16 669 51 C668 64 663 75 656 84 L656 84 Z M382 114 C259 114 180 209 180 333 C180 458 259 552 382 552 C505 552 585 458 585 333 C585 285 573 241 551 206 L510 253 C498 269 476 278 454 274 C419 270 396 239 399 203 C401 191 406 180 413 171 L452 125 C431 118 407 114 382 114 L382 114 Z " />
<glyph glyph-name="R" unicode="R" horiz-adv-x="643" d="M475 259 C541 283 602 345 602 452 C602 576 517 667 378 667 L141 667 C93 667 66 640 66 592 L66 64 C66 26 98 -7 138 -7 C177 -7 208 26 208 64 L208 239 L325 239 L475 23 C487 6 509 -7 534 -7 C572 -7 602 26 602 60 C602 80 597 93 588 105 L475 259 Z M208 545 L357 545 C414 545 457 509 457 453 C457 397 414 361 357 361 L208 361 L208 545 Z " />
<glyph glyph-name="S" unicode="S" horiz-adv-x="600" d="M68 55 C128 13 205 -12 303 -12 C483 -12 570 80 570 202 C570 350 430 383 320 408 C243 426 187 440 187 485 C187 525 221 553 295 553 C342 553 394 539 446 510 C455 504 467 500 480 500 C515 500 545 530 545 566 C545 590 531 612 512 622 C448 659 381 677 305 677 C138 677 42 587 42 476 C42 327 182 297 291 272 C368 254 426 237 426 187 C426 149 388 112 310 112 C243 112 188 133 142 165 C131 173 118 177 104 177 C68 177 38 147 38 110 C38 87 50 67 68 55 L68 55 Z " />
<glyph glyph-name="T" unicode="T" horiz-adv-x="582" d="M292 -7 C331 -7 363 26 363 64 L363 542 L502 542 C536 542 565 570 565 604 C565 639 536 667 502 667 L81 667 C47 667 18 639 18 604 C18 570 47 542 81 542 L220 542 L220 64 C220 26 252 -7 292 -7 L292 -7 Z " />
<glyph glyph-name="U" unicode="U" horiz-adv-x="728" d="M66 266 C66 102 161 -12 365 -12 C567 -12 662 101 662 267 L662 602 C662 642 630 674 590 674 C550 674 518 642 518 602 L518 271 C518 178 467 114 365 114 C261 114 210 178 210 271 L210 602 C210 642 178 674 138 674 C98 674 66 642 66 602 L66 266 Z " />
<glyph glyph-name="V" unicode="V" horiz-adv-x="672" d="M336 -7 C389 -7 435 27 453 74 L646 573 C649 581 651 590 651 599 C651 641 617 674 576 674 C544 674 516 653 505 624 L336 154 L166 624 C156 653 128 674 95 674 C54 674 20 641 20 599 C20 590 22 581 26 573 L218 74 C236 27 282 -7 336 -7 L336 -7 Z " />
<glyph glyph-name="W" unicode="W" horiz-adv-x="918" d="M652 -7 C697 -7 734 23 745 62 L892 577 C893 584 894 592 894 599 C894 640 861 674 819 674 C783 674 753 649 745 616 L641 185 L526 623 C518 653 492 674 460 674 C427 674 400 653 392 623 L277 185 L172 616 C164 649 134 674 99 674 C57 674 24 641 24 599 C24 592 25 584 26 578 L174 62 C185 23 222 -7 266 -7 C311 -7 349 24 359 66 L459 458 L560 66 C570 24 607 -7 652 -7 L652 -7 Z " />
<glyph glyph-name="X" unicode="X" horiz-adv-x="668" d="M628 107 L423 342 L618 563 C625 573 631 589 631 604 C631 642 601 674 563 674 C542 674 523 667 509 649 L334 441 L159 649 C145 667 126 674 105 674 C67 674 37 642 37 604 C37 589 43 573 53 560 L245 342 L40 107 C28 94 23 77 23 62 C23 25 53 -7 91 -7 C111 -7 131 -1 144 15 L334 240 L524 15 C537 -1 557 -7 577 -7 C615 -7 645 25 645 62 C645 77 640 94 628 107 L628 107 Z " />
<glyph glyph-name="Y" unicode="Y" horiz-adv-x="644" d="M608 605 C608 644 577 674 539 674 C517 674 496 663 483 644 L323 398 L161 644 C148 664 127 674 105 674 C67 674 36 644 36 605 C36 591 40 577 50 564 L251 273 L251 64 C251 26 283 -7 323 -7 C362 -7 394 26 394 64 L394 275 L594 564 C604 577 608 591 608 605 L608 605 Z " />
<glyph glyph-name="Z" unicode="Z" horiz-adv-x="592" d="M113 0 L494 0 C528 0 557 28 557 63 C557 97 528 125 494 125 L228 125 L535 542 C544 554 550 571 550 588 C550 632 515 667 471 667 L97 667 C63 667 34 639 34 604 C34 570 63 542 97 542 L357 542 L50 126 C40 113 34 97 34 79 C34 35 70 0 113 0 L113 0 Z " />
<glyph glyph-name="bracketleft" unicode="&#x5b;" horiz-adv-x="280" d="M99 -190 L230 -190 C252 -190 271 -171 271 -148 C271 -124 252 -105 229 -105 L138 -105 L138 593 L229 593 C252 593 271 612 271 636 C271 659 252 678 229 678 L99 678 C70 678 47 655 47 626 L47 -139 C47 -167 70 -190 99 -190 L99 -190 Z " />
<glyph glyph-name="backslash" unicode="&#x5c;" horiz-adv-x="329" d="M271 -27 C295 -27 315 -8 315 16 C315 21 314 27 312 30 L99 665 C93 682 78 694 58 694 C34 694 14 675 14 651 C14 646 15 640 17 637 L230 2 C236 -15 251 -27 271 -27 L271 -27 Z " />
<glyph glyph-name="bracketright" unicode="&#x5d;" horiz-adv-x="280" d="M50 -190 L181 -190 C210 -190 233 -167 233 -139 L233 626 C233 655 210 678 181 678 L51 678 C28 678 9 659 9 636 C9 612 28 593 51 593 L142 593 L142 -105 L51 -105 C28 -105 9 -124 9 -148 C9 -171 28 -190 50 -190 L50 -190 Z " />
<glyph glyph-name="asciicircum" unicode="&#x5e;" horiz-adv-x="441" d="M360 326 C383 326 402 345 402 368 C402 375 400 382 398 386 L283 634 C272 658 249 674 221 674 C194 674 170 659 160 635 L43 386 C41 381 39 375 39 368 C39 345 58 326 82 326 C100 326 115 337 121 352 L220 580 L320 352 C327 336 342 326 360 326 L360 326 Z " />
<glyph glyph-name="underscore" unicode="&#x5f;" horiz-adv-x="564" d="M32 -125 L532 -125 C555 -125 574 -106 574 -82 C574 -59 555 -40 532 -40 L32 -40 C10 -40 -10 -59 -10 -82 C-10 -106 10 -125 32 -125 L32 -125 Z " />
<glyph glyph-name="grave" unicode="&#x60;" horiz-adv-x="251" d="M163 556 C168 550 177 547 185 547 C203 547 218 561 218 579 C218 587 214 595 209 601 L119 698 C112 706 101 711 90 711 C70 711 52 693 52 671 C52 660 56 651 64 643 L163 556 Z " />
<glyph glyph-name="a" unicode="a" horiz-adv-x="543" d="M269 495 C206 495 145 479 90 443 C77 435 67 419 67 401 C67 374 89 352 115 352 C124 352 133 355 140 359 C175 381 209 391 247 391 C311 391 353 359 353 310 L353 243 C321 282 264 302 200 302 C123 302 32 261 32 148 C32 40 123 -12 200 -12 C263 -12 320 12 352 50 C356 17 384 -7 416 -7 C452 -7 480 23 480 59 L480 312 C480 451 379 495 269 495 L269 495 Z M251 74 C201 74 160 100 160 145 C160 191 201 218 251 218 C292 218 332 204 353 176 L353 116 C332 88 292 74 251 74 L251 74 Z " />
<glyph glyph-name="b" unicode="b" horiz-adv-x="586" d="M339 495 C282 495 228 471 190 421 L190 610 C190 645 161 674 127 674 C91 674 63 645 63 610 L63 57 C63 22 91 -7 127 -7 C160 -7 191 20 191 55 L191 60 C230 13 282 -12 339 -12 C461 -12 553 80 553 241 C553 399 462 495 339 495 L339 495 Z M299 101 C258 101 211 124 190 155 L190 326 C211 358 258 382 299 382 C373 382 422 325 422 241 C422 157 373 101 299 101 L299 101 Z " />
<glyph glyph-name="c" unicode="c" horiz-adv-x="493" d="M32 242 C32 93 139 -12 288 -12 C352 -12 399 6 435 33 C450 43 460 61 460 80 C460 112 434 137 402 137 C390 137 378 133 369 126 C348 109 323 101 294 101 C217 101 163 158 163 242 C163 326 217 382 294 382 C323 382 348 374 370 357 C379 350 390 346 403 346 C434 346 460 372 460 403 C460 422 450 440 435 450 C399 477 352 495 288 495 C139 495 32 390 32 242 L32 242 Z " />
<glyph glyph-name="d" unicode="d" horiz-adv-x="586" d="M459 674 C424 674 395 645 395 610 L395 421 C356 471 302 495 246 495 C123 495 32 399 32 241 C32 80 124 -12 246 -12 C303 -12 355 13 394 60 L394 56 C395 20 424 -9 459 -9 C495 -9 523 21 523 57 L523 610 C523 645 494 674 459 674 L459 674 Z M285 101 C213 101 163 158 163 241 C163 325 213 382 285 382 C328 382 373 359 395 327 L395 156 C373 124 328 101 285 101 L285 101 Z " />
<glyph glyph-name="e" unicode="e" horiz-adv-x="553" d="M32 242 C32 87 143 -12 290 -12 C346 -12 402 1 449 28 C464 37 476 53 476 72 C476 99 453 122 426 122 C417 122 409 120 402 116 C372 99 336 89 304 89 C222 89 173 140 165 201 L448 201 C497 201 524 219 524 261 C524 387 426 495 282 495 C135 495 32 382 32 242 L32 242 Z M282 394 C366 394 398 333 401 287 L163 287 C169 335 203 394 282 394 L282 394 Z " />
<glyph glyph-name="f" unicode="f" horiz-adv-x="327" d="M279 577 C283 577 290 576 295 576 C325 575 344 597 344 624 C344 648 327 666 305 671 C289 675 272 677 254 677 C159 677 91 614 91 509 L91 483 L60 483 C29 483 4 458 4 427 C4 397 29 372 60 372 L91 372 L91 57 C91 22 120 -7 155 -7 C190 -7 219 22 219 57 L219 372 L268 372 C299 372 324 397 324 427 C324 458 299 483 268 483 L219 483 L219 507 C219 553 243 577 279 577 L279 577 Z " />
<glyph glyph-name="g" unicode="g" horiz-adv-x="585" d="M459 490 C424 490 394 463 394 429 L394 421 C354 471 302 495 245 495 C123 495 32 407 32 249 C32 88 124 3 245 3 C304 3 355 30 394 78 L394 30 C394 -65 322 -92 261 -92 C218 -92 179 -83 145 -61 C137 -56 127 -53 118 -53 C89 -53 65 -77 65 -106 C65 -125 76 -142 91 -151 C143 -184 196 -196 261 -196 C380 -196 522 -151 522 33 L522 426 C522 461 493 490 459 490 L459 490 Z M285 116 C213 116 163 166 163 249 C163 332 213 382 285 382 C327 382 373 359 394 327 L394 171 C373 140 327 116 285 116 L285 116 Z " />
<glyph glyph-name="h" unicode="h" horiz-adv-x="580" d="M453 -7 C489 -7 517 22 517 57 L517 343 C517 437 466 495 360 495 C281 495 221 457 190 420 L190 610 C190 645 162 674 127 674 C92 674 63 645 63 610 L63 57 C63 22 92 -7 127 -7 C162 -7 190 22 190 57 L190 325 C212 354 251 382 300 382 C355 382 390 361 390 294 L390 57 C390 22 419 -7 453 -7 L453 -7 Z " />
<glyph glyph-name="i" unicode="i" horiz-adv-x="253" d="M126 562 C168 562 202 596 202 638 C202 680 168 714 126 714 C85 714 50 680 50 638 C50 596 85 562 126 562 L126 562 Z M126 -7 C161 -7 190 22 190 57 L190 426 C190 461 161 490 127 490 C91 490 63 461 63 426 L63 57 C63 22 91 -7 126 -7 L126 -7 Z " />
<glyph glyph-name="j" unicode="j" horiz-adv-x="253" d="M126 562 C168 562 202 596 202 638 C202 680 168 714 126 714 C85 714 50 680 50 638 C50 596 85 562 126 562 L126 562 Z M23 -196 C134 -196 190 -122 190 -13 L190 426 C190 461 161 490 127 490 C91 490 63 461 63 426 L63 -13 C63 -67 36 -88 2 -90 L-2 -90 C-26 -91 -44 -115 -44 -140 C-44 -174 -18 -196 13 -196 L23 -196 Z " />
<glyph glyph-name="k" unicode="k" horiz-adv-x="535" d="M491 96 L343 261 L474 389 C485 400 491 416 491 431 C491 463 465 490 432 490 C417 490 402 485 390 473 L190 270 L190 610 C190 645 161 674 127 674 C91 674 63 645 63 610 L63 57 C63 22 91 -7 126 -7 C161 -7 190 22 190 57 L190 129 L250 185 L392 15 C404 0 422 -7 441 -7 C477 -7 504 20 504 57 C504 72 499 88 491 96 L491 96 Z " />
<glyph glyph-name="l" unicode="l" horiz-adv-x="253" d="M127 -7 C161 -7 190 22 190 57 L190 610 C190 645 161 674 127 674 C91 674 63 645 63 610 L63 57 C63 22 91 -7 127 -7 L127 -7 Z " />
<glyph glyph-name="m" unicode="m" horiz-adv-x="852" d="M648 495 C574 495 510 451 482 407 C464 462 419 495 348 495 C275 495 212 450 191 421 L191 426 C191 462 162 491 126 491 C91 491 63 462 63 426 L63 57 C63 22 91 -7 127 -7 C161 -7 190 22 190 57 L190 325 C209 352 246 382 290 382 C342 382 362 350 362 305 L362 57 C362 22 391 -7 426 -7 C461 -7 490 22 490 57 L490 326 C508 352 545 382 590 382 C642 382 662 350 662 305 L662 57 C662 22 691 -7 726 -7 C761 -7 790 22 790 57 L790 349 C790 448 737 495 648 495 L648 495 Z " />
<glyph glyph-name="n" unicode="n" horiz-adv-x="579" d="M359 495 C280 495 222 457 191 422 L191 426 C191 462 162 491 126 491 C91 491 63 462 63 426 L63 57 C63 22 91 -7 127 -7 C161 -7 190 22 190 57 L190 325 C211 354 250 382 300 382 C354 382 389 359 389 292 L389 57 C389 22 418 -7 452 -7 C488 -7 516 22 516 57 L516 341 C516 435 465 495 359 495 L359 495 Z " />
<glyph glyph-name="o" unicode="o" horiz-adv-x="574" d="M287 -12 C447 -12 543 104 543 242 C543 379 447 495 287 495 C128 495 32 379 32 242 C32 104 128 -12 287 -12 L287 -12 Z M287 101 C208 101 164 166 164 242 C164 317 208 382 287 382 C366 382 411 317 411 242 C411 166 366 101 287 101 L287 101 Z " />
<glyph glyph-name="p" unicode="p" horiz-adv-x="585" d="M339 495 C281 495 229 470 191 423 L191 426 C191 462 162 492 127 492 C91 492 63 462 63 426 L63 -127 C63 -162 91 -191 127 -191 C161 -191 190 -162 190 -127 L190 62 C230 12 282 -12 339 -12 C463 -12 553 81 553 242 C553 403 463 495 339 495 L339 495 Z M299 101 C258 101 211 126 190 156 L190 327 C211 358 258 382 299 382 C372 382 421 325 421 242 C421 158 372 101 299 101 L299 101 Z " />
<glyph glyph-name="q" unicode="q" horiz-adv-x="585" d="M458 490 C424 490 394 463 394 429 L394 422 C357 470 304 495 245 495 C122 495 32 403 32 242 C32 81 122 -12 245 -12 C302 -12 354 11 394 62 L394 -127 C394 -162 423 -191 458 -191 C493 -191 522 -162 522 -127 L522 426 C522 461 493 490 458 490 L458 490 Z M285 101 C213 101 163 158 163 242 C163 325 213 382 285 382 C327 382 373 358 394 327 L394 156 C373 126 327 101 285 101 L285 101 Z " />
<glyph glyph-name="r" unicode="r" horiz-adv-x="360" d="M301 492 C290 492 281 489 269 484 C240 473 211 446 190 417 L191 426 C191 462 162 490 126 490 C91 490 63 461 63 425 L63 57 C63 22 91 -7 127 -7 C161 -7 190 22 190 57 L190 319 C211 350 261 368 294 372 C334 378 354 404 354 435 C354 466 335 492 301 492 L301 492 Z " />
<glyph glyph-name="s" unicode="s" horiz-adv-x="477" d="M59 35 C110 4 172 -12 237 -12 C371 -12 446 54 446 143 C446 263 335 285 252 301 C198 312 160 323 160 353 C160 381 190 398 236 398 C277 398 315 386 346 367 C352 363 362 361 370 361 C397 361 419 383 419 410 C419 428 409 444 394 452 C350 479 297 495 235 495 C108 495 37 424 37 343 C37 228 144 208 227 192 C282 181 324 169 324 135 C324 105 298 86 243 86 C199 86 151 103 112 127 C104 131 95 134 85 134 C56 134 32 110 32 81 C32 62 43 44 59 35 L59 35 Z " />
<glyph glyph-name="t" unicode="t" horiz-adv-x="338" d="M280 103 C274 103 268 101 259 101 C231 101 216 124 216 154 L216 372 L266 372 C296 372 321 397 321 427 C321 458 296 483 266 483 L216 483 L216 558 C216 593 187 622 153 622 C117 622 88 593 88 558 L88 483 L57 483 C26 483 1 458 1 427 C1 397 26 372 57 372 L88 372 L88 120 C88 34 136 -12 225 -12 C252 -12 274 -8 291 -2 C313 5 329 23 329 48 C329 78 310 101 280 103 L280 103 Z " />
<glyph glyph-name="u" unicode="u" horiz-adv-x="579" d="M452 490 C417 490 389 461 389 426 L389 156 C367 128 328 101 279 101 C225 101 190 123 190 190 L190 426 C190 461 161 490 127 490 C91 490 63 461 63 426 L63 140 C63 46 113 -12 219 -12 C298 -12 355 24 388 60 L388 57 C388 21 417 -8 453 -8 C488 -8 516 21 516 57 L516 426 C516 461 487 490 452 490 L452 490 Z " />
<glyph glyph-name="v" unicode="v" horiz-adv-x="513" d="M430 490 C404 490 380 475 371 451 L256 144 L140 451 C131 475 108 490 82 490 C47 490 20 462 20 427 C20 419 22 411 25 404 L167 53 C181 18 216 -7 257 -7 C297 -7 331 18 346 53 L488 403 C491 410 493 419 493 427 C493 462 466 490 430 490 L430 490 Z " />
<glyph glyph-name="w" unicode="w" horiz-adv-x="769" d="M555 -7 C594 -7 629 19 639 56 L747 410 C748 415 750 422 750 427 C750 462 722 490 688 490 C658 490 634 470 627 444 L547 158 L455 439 C446 469 418 490 385 490 C352 490 323 469 314 439 L222 158 L142 444 C135 471 111 490 82 490 C47 490 20 462 20 428 C20 422 21 415 22 410 L130 56 C141 19 175 -7 215 -7 C255 -7 289 19 299 56 L385 329 L470 56 C480 19 515 -7 555 -7 L555 -7 Z " />
<glyph glyph-name="x" unicode="x" horiz-adv-x="498" d="M458 89 L324 250 L449 393 C457 402 464 417 464 431 C464 461 439 490 405 490 C390 490 374 487 362 471 L249 336 L136 471 C123 487 108 490 93 490 C59 490 34 461 34 431 C34 417 41 402 49 393 L174 250 L40 89 C31 80 25 66 25 51 C25 24 46 -7 83 -7 C99 -7 115 -2 127 14 L248 164 L371 12 C381 -2 399 -7 415 -7 C451 -7 473 24 473 51 C473 66 466 80 458 89 L458 89 Z " />
<glyph glyph-name="y" unicode="y" horiz-adv-x="510" d="M43 -138 C43 -169 66 -194 100 -195 C105 -196 110 -196 114 -196 C186 -195 253 -169 289 -79 L485 403 C488 410 490 419 490 427 C490 462 463 490 427 490 C401 490 377 475 368 451 L253 143 L137 451 C129 475 105 490 79 490 C44 490 17 462 17 427 C17 419 18 411 21 404 L187 -7 L169 -48 C157 -74 136 -82 103 -83 C101 -83 99 -84 97 -84 C68 -85 43 -107 43 -138 L43 -138 Z " />
<glyph glyph-name="z" unicode="z" horiz-adv-x="479" d="M98 0 L388 0 C418 0 443 25 443 56 C443 86 418 111 388 111 L211 111 L426 384 C434 393 439 407 439 422 C439 456 412 483 378 483 L91 483 C60 483 35 458 35 427 C35 397 60 372 91 372 L260 372 L49 104 C40 93 35 79 35 63 C35 28 63 0 98 0 L98 0 Z " />
<glyph glyph-name="braceleft" unicode="&#x7b;" horiz-adv-x="288" d="M210 -190 L239 -190 C261 -190 280 -172 280 -148 C280 -124 261 -105 239 -105 L210 -105 C176 -105 148 -74 148 -30 L148 154 C148 196 135 230 102 244 C135 258 148 292 148 334 L148 519 C148 563 176 593 210 593 L239 593 C261 593 280 612 280 636 C280 659 261 678 239 678 L210 678 C130 678 55 617 55 518 L55 347 C55 319 45 294 22 284 C6 278 -5 262 -5 244 C-5 226 6 211 22 204 C45 194 55 170 55 141 L55 -31 C55 -130 130 -190 210 -190 L210 -190 Z " />
<glyph glyph-name="bar" unicode="&#x7c;" horiz-adv-x="216" d="M108 -27 C132 -27 151 -8 151 15 L151 652 C151 675 132 694 108 694 C85 694 66 675 66 652 L66 15 C66 -8 85 -27 108 -27 L108 -27 Z " />
<glyph glyph-name="braceright" unicode="&#x7d;" horiz-adv-x="288" d="M78 -190 C158 -190 233 -130 233 -31 L233 141 C233 170 243 194 266 204 C282 211 293 226 293 244 C293 262 282 278 266 284 C243 294 233 319 233 347 L233 518 C233 617 158 678 78 678 L49 678 C27 678 8 659 8 636 C8 612 27 593 49 593 L78 593 C112 593 141 563 141 519 L141 334 C141 292 154 258 187 244 C154 230 141 196 141 154 L141 -30 C141 -74 112 -105 78 -105 L49 -105 C27 -105 8 -124 8 -148 C8 -172 27 -190 49 -190 L78 -190 Z " />
<glyph glyph-name="asciitilde" unicode="&#x7e;" horiz-adv-x="510" d="M438 669 C416 669 397 653 395 631 C386 551 370 489 335 489 C311 489 302 518 290 552 C274 603 253 666 175 666 C77 666 44 569 29 458 C26 432 47 409 73 409 C95 409 114 426 116 448 C125 526 141 588 175 588 C200 588 209 560 221 525 C237 475 258 412 335 412 C435 412 467 510 480 621 C483 646 463 669 438 669 L438 669 Z " />
<glyph glyph-name="uni00A0" unicode="&#xa0;" horiz-adv-x="256" d="" />
<glyph glyph-name="exclamdown" unicode="&#xa1;" horiz-adv-x="256" d="M127 494 C83 494 47 457 47 413 C47 370 83 332 127 332 C171 332 208 370 208 413 C208 457 171 494 127 494 L127 494 Z M69 217 L54 -114 C53 -157 86 -191 128 -191 C170 -191 204 -156 202 -114 L187 217 C185 248 159 272 128 272 C96 272 70 248 69 217 L69 217 Z " />
<glyph glyph-name="cent" unicode="&#xa2;" horiz-adv-x="499" d="M402 137 C390 137 378 133 369 126 C358 117 346 111 333 107 L333 376 C346 372 359 366 370 357 C379 350 390 346 403 346 C434 346 460 372 460 403 C460 422 450 440 435 450 C408 470 375 485 333 492 L333 526 C333 551 313 572 287 572 C261 572 241 551 241 526 L241 491 C117 472 32 374 32 242 C32 109 117 11 241 -8 L241 -61 C241 -86 261 -107 287 -107 C313 -107 333 -86 333 -61 L333 -9 C375 -2 408 13 435 33 C450 43 460 61 460 80 C460 112 434 137 402 137 L402 137 Z M163 242 C163 305 193 352 241 372 L241 111 C193 131 163 179 163 242 L163 242 Z " />
<glyph glyph-name="sterling" unicode="&#xa3;" horiz-adv-x="550" d="M464 126 C457 126 450 125 443 123 C430 117 414 114 396 114 C372 114 354 121 336 129 C317 137 296 146 266 146 C251 146 231 144 216 139 C253 161 281 203 281 250 C281 257 281 263 280 269 L360 269 C382 269 400 287 400 310 C400 332 382 350 360 350 L250 350 C246 355 243 361 239 366 C219 396 200 425 200 467 C200 524 246 561 305 561 C337 561 364 548 385 524 C396 512 413 504 431 504 C466 504 494 533 494 568 C494 587 486 603 472 615 C426 657 364 677 288 677 C169 677 45 597 45 470 C45 421 67 385 91 350 L56 350 C34 350 15 332 15 310 C15 287 34 269 56 269 L143 269 C150 252 155 235 155 215 C155 175 127 136 70 95 C56 84 46 67 46 48 C46 17 70 -8 100 -8 C112 -8 121 -5 128 1 C161 23 184 31 210 31 C237 31 259 22 283 13 C312 1 343 -13 391 -13 C430 -13 461 -6 486 5 C510 14 527 37 527 63 C527 98 499 126 464 126 L464 126 Z " />
<glyph glyph-name="currency" unicode="&#xa4;" horiz-adv-x="623" d="M527 193 C553 233 567 282 567 333 C567 385 553 433 526 473 L569 516 C579 526 584 539 584 553 C584 582 560 606 530 606 C516 606 503 600 493 590 L448 545 C410 567 364 579 311 579 C258 579 212 567 175 545 L130 590 C121 600 107 606 93 606 C63 606 39 582 39 553 C39 539 44 526 55 516 L97 473 C70 433 56 385 56 333 C56 282 70 233 97 193 L55 151 C44 141 39 128 39 114 C39 85 63 61 93 61 C107 61 121 67 130 76 L174 120 C212 99 258 86 311 86 C365 86 411 99 449 121 L493 76 C503 67 516 61 530 61 C560 61 584 85 584 114 C584 128 579 141 569 151 L527 193 Z M311 200 C230 200 184 261 184 333 C184 404 230 465 311 465 C394 465 439 404 439 333 C439 261 394 200 311 200 L311 200 Z " />
<glyph glyph-name="yen" unicode="&#xa5;" horiz-adv-x="645" d="M540 674 C518 674 496 664 483 644 L323 398 L162 644 C149 664 127 674 105 674 C68 674 37 644 37 605 C37 591 41 577 51 564 L197 352 L56 352 C35 352 16 334 16 312 C16 291 35 273 56 273 L252 273 L252 193 L56 193 C35 193 16 175 16 154 C16 132 35 115 56 115 L252 115 L252 64 C252 26 283 -7 323 -7 C362 -7 394 26 394 64 L394 115 L591 115 C612 115 630 132 630 153 C630 175 612 193 591 193 L394 193 L394 273 L591 273 C612 273 630 291 630 312 C630 334 612 352 591 352 L449 352 L594 564 C605 577 608 591 608 605 C608 644 577 674 540 674 L540 674 Z " />
<glyph glyph-name="brokenbar" unicode="&#xa6;" horiz-adv-x="216" d="M108 364 C132 364 151 384 151 406 L151 652 C151 675 132 694 108 694 C85 694 66 675 66 652 L66 406 C66 384 85 364 108 364 L108 364 Z M108 -27 C132 -27 151 -8 151 15 L151 261 C151 284 132 303 108 303 C85 303 66 284 66 261 L66 15 C66 -8 85 -27 108 -27 L108 -27 Z " />
<glyph glyph-name="section" unicode="&#xa7;" horiz-adv-x="484" d="M363 198 C417 225 446 271 446 326 C446 438 344 461 261 478 C206 490 160 499 160 534 C160 568 191 588 240 588 C277 588 317 577 350 556 C357 552 365 550 373 550 C398 550 419 570 419 595 C419 611 410 626 398 634 C359 658 307 677 235 677 C117 677 37 614 37 532 C37 472 72 430 135 406 C90 390 37 349 37 281 C37 172 136 149 217 130 C274 116 324 104 324 65 C324 27 289 7 237 7 C189 7 144 27 108 52 C101 57 91 60 82 60 C55 60 34 39 34 13 C34 -4 42 -18 55 -27 C101 -59 159 -81 237 -81 C358 -81 446 -24 446 75 C446 141 411 177 363 198 L363 198 Z M238 374 C281 364 321 345 321 302 C321 267 302 245 263 228 C212 239 160 253 160 300 C160 334 177 360 238 374 L238 374 Z " />
<glyph glyph-name="dieresis" unicode="&#xa8;" horiz-adv-x="423" d="M106 554 C143 554 173 583 173 622 C173 659 143 689 106 689 C68 689 38 659 38 622 C38 583 68 554 106 554 L106 554 Z M317 554 C354 554 385 583 385 622 C385 659 354 689 317 689 C280 689 249 659 249 622 C249 583 280 554 317 554 L317 554 Z " />
<glyph glyph-name="copyright" unicode="&#xa9;" horiz-adv-x="778" d="M44 334 C44 144 199 -11 389 -11 C580 -11 734 144 734 334 C734 525 580 679 389 679 C199 679 44 525 44 334 L44 334 Z M698 334 C698 165 559 25 389 25 C220 25 80 165 80 334 C80 504 220 643 389 643 C559 643 698 504 698 334 L698 334 Z M186 335 C186 213 279 123 394 123 C449 123 499 144 535 182 C539 185 540 190 540 195 C540 209 529 217 518 217 C512 217 506 214 502 210 C475 180 435 163 394 163 C306 163 232 236 232 335 C232 436 306 505 394 505 C435 505 475 488 502 458 C506 454 512 451 517 451 C529 451 540 460 540 474 C540 478 538 483 535 487 C498 525 449 545 394 545 C279 545 186 457 186 335 L186 335 Z " />
<glyph glyph-name="ordfeminine" unicode="&#xaa;" horiz-adv-x="385" d="M190 648 C149 648 107 637 68 613 C59 607 52 596 52 584 C52 565 67 551 86 551 C92 551 98 552 103 556 C127 572 151 579 174 579 C215 579 243 558 243 525 L243 485 C225 505 192 523 141 523 C88 523 31 491 31 422 C31 352 88 318 141 318 C191 318 224 338 242 358 C246 335 265 317 288 317 C315 317 335 339 335 365 L335 523 C335 620 263 648 190 648 L190 648 Z M179 375 C149 375 122 391 122 422 C122 451 149 467 179 467 C204 467 230 457 243 439 L243 404 C230 386 204 375 179 375 L179 375 Z " />
<glyph glyph-name="guillemotleft" unicode="&#xab;" horiz-adv-x="527" d="M216 56 C240 56 260 76 260 100 C260 111 256 121 249 129 L147 243 L248 355 C255 362 259 373 259 384 C259 407 240 427 216 427 C203 427 191 422 183 413 L77 296 C62 279 55 261 55 243 C55 225 62 208 77 190 L183 71 C191 62 203 56 216 56 L216 56 Z M406 56 C430 56 450 76 450 100 C450 111 446 121 439 129 L337 243 L438 355 C445 362 449 373 449 384 C449 407 430 427 406 427 C393 427 380 422 373 413 L267 296 C252 279 244 261 244 243 C244 225 252 208 267 190 L373 71 C381 62 393 56 406 56 L406 56 Z " />
<glyph glyph-name="logicalnot" unicode="&#xac;" horiz-adv-x="515" d="M475 233 L475 395 C475 442 450 468 403 468 L61 468 C41 468 22 450 22 428 C22 406 41 389 61 389 L394 388 L394 233 C394 211 413 193 435 193 C457 193 475 211 475 233 L475 233 Z " />
<glyph glyph-name="uni00AD" unicode="&#xad;" horiz-adv-x="300" d="M76 188 L224 188 C253 188 278 212 278 242 C278 272 253 296 224 296 L76 296 C47 296 22 272 22 242 C22 212 47 188 76 188 L76 188 Z " />
<glyph glyph-name="registered" unicode="&#xae;" horiz-adv-x="494" d="M35 465 C35 348 130 253 247 253 C365 253 459 348 459 465 C459 583 365 677 247 677 C130 677 35 583 35 465 L35 465 Z M427 465 C427 366 346 285 247 285 C147 285 67 366 67 465 C67 565 147 645 247 645 C346 645 427 565 427 465 L427 465 Z M311 346 C314 341 320 339 325 339 C335 339 344 347 344 357 C344 360 343 363 341 366 L290 441 C310 446 344 467 344 512 C344 557 306 586 265 586 L186 586 C175 586 166 577 166 566 L166 356 C166 347 173 339 183 339 C193 339 200 347 200 356 L200 439 L250 439 L311 346 Z M309 512 C309 487 286 470 265 470 L200 470 L200 556 L265 556 C286 556 309 539 309 512 L309 512 Z " />
<glyph glyph-name="macron" unicode="&#xaf;" horiz-adv-x="363" d="M44 562 L319 562 C339 562 355 578 355 598 C355 618 339 634 319 634 L44 634 C24 634 8 618 8 598 C8 578 24 562 44 562 L44 562 Z " />
<glyph glyph-name="degree" unicode="&#xb0;" horiz-adv-x="311" d="M155 407 C229 407 290 466 290 541 C290 616 229 677 155 677 C80 677 20 616 20 541 C20 466 80 407 155 407 L155 407 Z M155 608 C191 608 221 578 221 541 C221 505 191 476 155 476 C118 476 90 505 90 541 C90 578 118 608 155 608 L155 608 Z " />
<glyph glyph-name="plusminus" unicode="&#xb1;" horiz-adv-x="504" d="M296 326 L443 326 C465 326 483 344 483 366 C483 387 465 404 443 404 L296 404 L296 564 C296 588 276 608 252 608 C229 608 209 588 209 564 L209 404 L61 404 C40 404 22 387 22 365 C22 344 40 326 61 326 L209 326 L209 159 C209 135 229 115 252 115 C276 115 296 135 296 159 L296 326 Z M61 0 L443 0 C465 0 483 18 483 39 C483 61 465 78 443 78 L61 78 C40 78 22 61 22 40 C22 18 40 0 61 0 L61 0 Z " />
<glyph glyph-name="uni00B2" unicode="&#xb2;" horiz-adv-x="363" d="M56 421 L300 421 C324 421 340 440 340 460 C340 480 324 498 300 498 L158 498 C274 580 330 637 330 702 C330 783 261 827 169 827 C125 827 76 815 34 784 C24 777 18 765 18 752 C18 730 36 712 57 712 C66 712 73 715 80 720 C104 738 134 750 167 750 C205 750 235 732 235 695 C235 654 191 610 38 507 C24 497 13 484 13 465 C13 440 31 421 56 421 L56 421 Z " />
<glyph glyph-name="uni00B3" unicode="&#xb3;" horiz-adv-x="376" d="M176 414 C277 414 342 462 342 532 C342 592 287 624 246 627 C293 635 335 669 335 718 C335 783 278 827 177 827 C119 827 75 810 39 784 C31 777 24 766 24 754 C24 734 41 717 61 717 C68 717 76 719 82 723 C109 742 137 750 166 750 C208 750 239 736 239 706 C239 672 210 661 157 661 L144 661 C124 661 106 644 106 624 C106 603 124 587 144 587 L158 587 C209 587 247 577 247 538 C247 510 220 491 173 491 C144 491 111 500 82 521 C76 525 68 527 60 527 C37 527 20 509 20 488 C20 474 27 461 37 454 C72 430 118 414 176 414 L176 414 Z " />
<glyph glyph-name="acute" unicode="&#xb4;" horiz-adv-x="251" d="M88 556 L186 643 C195 651 199 660 199 671 C199 693 181 711 161 711 C149 711 139 706 132 698 L41 601 C37 595 33 587 33 579 C33 561 48 547 66 547 C74 547 83 550 88 556 L88 556 Z " />
<glyph glyph-name="uni00B5" unicode="&#xb5;" horiz-adv-x="593" d="M552 99 L547 100 C530 104 516 119 516 145 L516 426 C516 461 487 490 452 490 C417 490 389 461 389 426 L389 156 C367 128 328 100 280 100 C225 100 190 125 190 190 L190 426 C190 461 161 490 127 490 C91 490 63 461 63 426 L63 -127 C63 -162 91 -191 126 -191 C161 -191 190 -162 190 -127 L190 16 C201 1 224 -12 260 -12 C318 -12 367 26 395 76 C411 18 452 -12 521 -12 L532 -12 C566 -11 588 13 588 46 C588 70 576 92 552 99 L552 99 Z " />
<glyph glyph-name="paragraph" unicode="&#xb6;" horiz-adv-x="449" d="M372 -107 C389 -107 403 -92 403 -75 L403 592 C403 640 376 667 327 667 L199 667 C104 667 27 590 27 495 C27 400 104 323 199 323 L199 -75 C199 -92 213 -107 230 -107 C248 -107 262 -92 262 -76 L262 605 L340 605 L340 -75 C340 -92 354 -107 372 -107 L372 -107 Z " />
<glyph glyph-name="periodcentered" unicode="&#xb7;" horiz-adv-x="256" d="M128 164 C172 164 208 201 208 244 C208 288 172 325 128 325 C84 325 47 288 47 244 C47 201 84 164 128 164 L128 164 Z " />
<glyph glyph-name="cedilla" unicode="&#xb8;" horiz-adv-x="221" d="M110 -196 C170 -196 221 -164 221 -111 C221 -69 191 -41 154 -41 C141 -41 128 -44 118 -51 L144 11 L81 11 L58 -53 C57 -56 56 -60 56 -63 C56 -82 69 -96 87 -96 C95 -96 101 -93 105 -91 C111 -86 120 -83 129 -83 C148 -83 158 -93 158 -109 C158 -131 133 -142 106 -142 C86 -142 64 -136 43 -124 C38 -121 34 -120 29 -120 C14 -120 1 -133 1 -149 C1 -163 10 -171 18 -175 C40 -186 73 -196 110 -196 L110 -196 Z " />
<glyph glyph-name="uni00B9" unicode="&#xb9;" horiz-adv-x="273" d="M170 414 C197 414 219 436 219 462 L219 775 C219 804 195 828 165 828 C150 828 137 822 128 813 L23 709 C15 702 11 691 11 681 C11 659 28 642 50 642 C61 642 71 646 78 653 L122 698 L122 462 C122 436 144 414 170 414 L170 414 Z " />
<glyph glyph-name="ordmasculine" unicode="&#xba;" horiz-adv-x="405" d="M30 483 C30 394 96 318 202 318 C310 318 375 394 375 483 C375 572 310 648 202 648 C96 648 30 572 30 483 L30 483 Z M280 483 C280 428 251 392 202 392 C153 392 125 428 125 483 C125 538 153 572 202 572 C251 572 280 538 280 483 L280 483 Z " />
<glyph glyph-name="guillemotright" unicode="&#xbb;" horiz-adv-x="527" d="M121 56 C134 56 146 62 154 71 L260 190 C276 208 283 225 283 243 C283 261 275 279 260 296 L154 413 C147 422 134 427 121 427 C98 427 78 407 78 384 C78 373 82 362 89 355 L190 243 L88 129 C81 121 78 111 78 100 C78 76 97 56 121 56 L121 56 Z M311 56 C324 56 336 62 344 71 L450 190 C465 208 473 225 473 243 C473 261 465 279 450 296 L344 413 C337 422 324 427 311 427 C287 427 268 407 268 384 C268 373 272 362 279 355 L380 243 L278 129 C271 121 267 111 267 100 C267 76 287 56 311 56 L311 56 Z " />
<glyph glyph-name="onequarter" unicode="&#xbc;" horiz-adv-x="776" d="M219 308 L219 621 C219 650 195 674 165 674 C150 674 137 668 128 659 L23 555 C15 548 11 537 11 527 C11 505 28 488 50 488 C61 488 71 492 78 499 L122 544 L122 308 C122 282 144 260 170 260 C197 260 219 282 219 308 L219 308 Z M600 642 C600 660 585 674 567 674 C556 674 545 668 540 659 L146 43 C143 37 141 31 141 25 C141 7 155 -7 173 -7 C184 -7 195 -1 200 8 L595 625 C598 630 600 636 600 642 L600 642 Z M736 161 L713 161 L713 324 C713 370 676 407 630 407 C600 407 574 391 560 368 L421 150 C417 144 415 135 415 127 C415 104 433 86 456 86 L618 86 L618 40 C618 14 639 -7 666 -7 C692 -7 713 14 713 40 L713 86 L736 86 C756 86 773 102 773 123 C773 144 756 161 736 161 L736 161 Z M517 161 L618 319 L618 161 L517 161 Z " />
<glyph glyph-name="onehalf" unicode="&#xbd;" horiz-adv-x="813" d="M170 260 C197 260 219 282 219 308 L219 621 C219 650 195 674 165 674 C150 674 137 668 128 659 L23 555 C15 548 11 537 11 527 C11 505 28 488 50 488 C61 488 71 492 78 499 L122 544 L122 308 C122 282 144 260 170 260 L170 260 Z M200 8 L595 625 C598 630 600 636 600 642 C600 660 585 674 567 674 C556 674 545 668 540 659 L146 43 C143 37 141 31 141 25 C141 7 155 -7 173 -7 C184 -7 195 -1 200 8 L200 8 Z M506 0 L750 0 C774 0 790 19 790 39 C790 59 774 77 750 77 L608 77 C724 159 780 216 780 281 C780 362 711 406 619 406 C575 406 526 394 484 363 C474 356 468 344 468 331 C468 309 486 291 507 291 C516 291 523 294 530 299 C554 317 584 329 617 329 C655 329 685 311 685 274 C685 233 641 189 488 86 C474 76 463 63 463 44 C463 19 481 0 506 0 L506 0 Z " />
<glyph glyph-name="threequarters" unicode="&#xbe;" horiz-adv-x="861" d="M685 642 C685 660 670 674 652 674 C641 674 630 668 625 659 L231 43 C228 37 226 31 226 25 C226 7 240 -7 258 -7 C269 -7 280 -1 285 8 L680 625 C683 630 685 636 685 642 L685 642 Z M342 378 C342 438 287 470 246 473 C293 481 335 515 335 564 C335 629 278 673 177 673 C119 673 75 656 39 630 C31 623 24 612 24 600 C24 580 41 563 61 563 C68 563 76 565 82 569 C109 588 137 596 166 596 C208 596 239 582 239 552 C239 518 210 507 157 507 L144 507 C124 507 106 490 106 470 C106 449 124 433 144 433 L158 433 C209 433 247 423 247 384 C247 356 220 337 173 337 C144 337 111 346 82 367 C76 371 68 373 60 373 C37 373 20 355 20 334 C20 320 27 307 37 300 C72 276 118 260 176 260 C277 260 342 308 342 378 L342 378 Z M821 161 L798 161 L798 324 C798 370 761 407 715 407 C685 407 659 391 645 368 L506 150 C502 144 500 135 500 127 C500 104 518 86 541 86 L703 86 L703 40 C703 14 724 -7 751 -7 C777 -7 798 14 798 40 L798 86 L821 86 C841 86 858 102 858 123 C858 144 841 161 821 161 L821 161 Z M602 161 L703 319 L703 161 L602 161 Z " />
<glyph glyph-name="questiondown" unicode="&#xbf;" horiz-adv-x="398" d="M311 412 C311 457 274 494 230 494 C186 494 149 457 149 412 C149 369 186 331 230 331 C274 331 311 369 311 412 L311 412 Z M311 190 C311 205 307 220 301 234 C294 258 272 276 246 276 C214 276 188 251 185 222 C185 220 185 217 186 213 C186 208 187 205 187 202 C186 167 155 145 120 120 C73 86 19 47 19 -37 C19 -129 99 -195 227 -195 C292 -195 351 -175 400 -138 C416 -128 427 -109 427 -88 C427 -54 400 -27 366 -27 C353 -27 341 -30 332 -37 C306 -58 277 -69 243 -69 C188 -69 164 -43 164 -12 C164 19 191 38 223 59 C263 88 311 122 311 190 L311 190 Z " />
<glyph glyph-name="Agrave" unicode="&#xc0;" horiz-adv-x="678" d="M316 723 C321 717 330 714 338 714 C356 714 371 728 371 746 C371 754 367 762 362 768 L272 865 C265 873 254 878 243 878 C223 878 205 860 205 838 C205 827 209 818 217 810 L316 723 Z M650 90 L456 594 C438 641 392 674 339 674 C285 674 240 641 222 594 L27 90 C24 83 22 74 22 65 C22 25 54 -7 94 -7 C125 -7 153 13 162 41 L189 119 L489 119 L516 41 C525 13 552 -7 583 -7 C623 -7 656 25 656 65 C656 74 653 83 650 90 L650 90 Z M233 242 L339 544 L445 242 L233 242 Z " />
<glyph glyph-name="Aacute" unicode="&#xc1;" horiz-adv-x="678" d="M346 714 C354 714 363 717 368 723 L466 810 C475 818 479 827 479 838 C479 860 461 878 441 878 C429 878 419 873 412 865 L321 768 C317 762 313 754 313 746 C313 728 328 714 346 714 L346 714 Z M650 90 L456 594 C438 641 392 674 339 674 C285 674 240 641 222 594 L27 90 C24 83 22 74 22 65 C22 25 54 -7 94 -7 C125 -7 153 13 162 41 L189 119 L489 119 L516 41 C525 13 552 -7 583 -7 C623 -7 656 25 656 65 C656 74 653 83 650 90 L650 90 Z M233 242 L339 544 L445 242 L233 242 Z " />
<glyph glyph-name="Acircumflex" unicode="&#xc2;" horiz-adv-x="678" d="M247 717 C257 717 266 721 273 729 L340 812 L406 729 C413 721 422 717 432 717 C450 717 465 731 465 751 C465 757 464 763 461 768 L413 843 C400 861 378 873 357 873 L323 873 C301 873 279 861 267 843 L218 768 C215 763 214 757 214 751 C214 731 229 717 247 717 L247 717 Z M650 90 L456 594 C438 641 392 674 339 674 C285 674 240 641 222 594 L27 90 C24 83 22 74 22 65 C22 25 54 -7 94 -7 C125 -7 153 13 162 41 L189 119 L489 119 L516 41 C525 13 552 -7 583 -7 C623 -7 656 25 656 65 C656 74 653 83 650 90 L650 90 Z M233 242 L339 544 L445 242 L233 242 Z " />
<glyph glyph-name="Atilde" unicode="&#xc3;" horiz-adv-x="678" d="M212 720 C228 720 241 731 245 746 C249 777 264 789 279 789 C295 789 306 776 319 762 C336 743 357 721 396 721 C455 721 491 756 500 824 C503 845 487 862 467 862 C451 862 437 851 434 836 C429 806 416 794 400 794 C384 794 373 806 359 820 C342 839 322 861 284 861 C224 861 188 825 179 758 C176 739 191 720 212 720 L212 720 Z M650 90 L456 594 C438 641 392 674 339 674 C285 674 240 641 222 594 L27 90 C24 83 22 74 22 65 C22 25 54 -7 94 -7 C125 -7 153 13 162 41 L189 119 L489 119 L516 41 C525 13 552 -7 583 -7 C623 -7 656 25 656 65 C656 74 653 83 650 90 L650 90 Z M233 242 L339 544 L445 242 L233 242 Z " />
<glyph glyph-name="Adieresis" unicode="&#xc4;" horiz-adv-x="678" d="M234 721 C271 721 301 750 301 789 C301 826 271 856 234 856 C196 856 166 826 166 789 C166 750 196 721 234 721 L234 721 Z M445 721 C482 721 513 750 513 789 C513 826 482 856 445 856 C408 856 377 826 377 789 C377 750 408 721 445 721 L445 721 Z M650 90 L456 594 C438 641 392 674 339 674 C285 674 240 641 222 594 L27 90 C24 83 22 74 22 65 C22 25 54 -7 94 -7 C125 -7 153 13 162 41 L189 119 L489 119 L516 41 C525 13 552 -7 583 -7 C623 -7 656 25 656 65 C656 74 653 83 650 90 L650 90 Z M233 242 L339 544 L445 242 L233 242 Z " />
<glyph glyph-name="Aring" unicode="&#xc5;" horiz-adv-x="678" d="M340 698 C398 698 444 745 444 803 C444 860 398 909 340 909 C283 909 235 860 235 803 C235 745 283 698 340 698 L340 698 Z M340 850 C366 850 386 829 386 803 C386 778 366 756 340 756 C315 756 293 778 293 803 C293 829 315 850 340 850 L340 850 Z M650 90 L456 594 C438 641 392 674 339 674 C285 674 240 641 222 594 L27 90 C24 83 22 74 22 65 C22 25 54 -7 94 -7 C125 -7 153 13 162 41 L189 119 L489 119 L516 41 C525 13 552 -7 583 -7 C623 -7 656 25 656 65 C656 74 653 83 650 90 L650 90 Z M233 242 L339 544 L445 242 L233 242 Z " />
<glyph glyph-name="AE" unicode="&#xc6;" horiz-adv-x="962" d="M866 123 L591 123 L591 278 L859 278 C892 278 920 305 920 339 C920 372 892 400 859 400 L591 400 L591 545 L866 545 C899 545 927 572 927 605 C927 640 899 667 866 667 L450 667 C409 667 381 651 360 616 L41 93 C36 83 32 72 32 59 C32 22 62 -7 98 -7 C122 -7 145 7 155 26 L208 119 L448 119 L448 76 C448 27 475 0 524 0 L866 0 C899 0 927 28 927 62 C927 95 899 123 866 123 L866 123 Z M277 242 L448 545 L448 242 L277 242 Z " />
<glyph glyph-name="Ccedilla" unicode="&#xc7;" horiz-adv-x="677" d="M572 199 C552 199 534 190 522 177 C488 138 440 114 384 114 C268 114 180 207 180 333 C180 459 268 552 384 552 C440 552 488 527 521 490 C534 475 552 467 572 467 C609 467 639 497 639 534 C639 551 633 568 622 579 C569 637 494 678 384 678 C189 678 34 538 34 333 C34 141 170 6 347 -10 L332 -53 C331 -56 330 -60 330 -63 C330 -82 343 -96 361 -96 C369 -96 375 -93 379 -91 C385 -86 394 -83 403 -83 C422 -83 432 -93 432 -109 C432 -131 407 -142 380 -142 C360 -142 338 -136 317 -124 C312 -121 308 -120 303 -120 C288 -120 275 -133 275 -149 C275 -163 284 -171 292 -175 C314 -186 347 -196 384 -196 C444 -196 495 -164 495 -111 C495 -69 465 -41 428 -41 C415 -41 402 -44 392 -51 L409 -11 C505 -5 573 34 622 88 C633 99 639 115 639 132 C639 169 609 199 572 199 L572 199 Z " />
<glyph glyph-name="Egrave" unicode="&#xc8;" horiz-adv-x="583" d="M285 723 C290 717 299 714 307 714 C325 714 340 728 340 746 C340 754 336 762 331 768 L241 865 C234 873 223 878 212 878 C192 878 174 860 174 838 C174 827 178 818 186 810 L285 723 Z M141 0 L483 0 C517 0 545 28 545 62 C545 95 517 123 483 123 L208 123 L208 278 L476 278 C510 278 538 305 538 339 C538 372 510 400 476 400 L208 400 L208 545 L483 545 C517 545 545 572 545 605 C545 640 517 667 483 667 L141 667 C93 667 66 640 66 592 L66 76 C66 27 93 0 141 0 L141 0 Z " />
<glyph glyph-name="Eacute" unicode="&#xc9;" horiz-adv-x="583" d="M337 723 L435 810 C444 818 448 827 448 838 C448 860 430 878 410 878 C398 878 388 873 381 865 L290 768 C286 762 282 754 282 746 C282 728 297 714 315 714 C323 714 332 717 337 723 L337 723 Z M141 0 L483 0 C517 0 545 28 545 62 C545 95 517 123 483 123 L208 123 L208 278 L476 278 C510 278 538 305 538 339 C538 372 510 400 476 400 L208 400 L208 545 L483 545 C517 545 545 572 545 605 C545 640 517 667 483 667 L141 667 C93 667 66 640 66 592 L66 76 C66 27 93 0 141 0 L141 0 Z " />
<glyph glyph-name="Ecircumflex" unicode="&#xca;" horiz-adv-x="583" d="M375 729 C382 721 391 717 401 717 C419 717 434 731 434 751 C434 757 433 763 430 768 L382 843 C369 861 347 873 326 873 L292 873 C270 873 248 861 236 843 L187 768 C184 763 183 757 183 751 C183 731 198 717 216 717 C226 717 235 721 242 729 L309 812 L375 729 Z M141 0 L483 0 C517 0 545 28 545 62 C545 95 517 123 483 123 L208 123 L208 278 L476 278 C510 278 538 305 538 339 C538 372 510 400 476 400 L208 400 L208 545 L483 545 C517 545 545 572 545 605 C545 640 517 667 483 667 L141 667 C93 667 66 640 66 592 L66 76 C66 27 93 0 141 0 L141 0 Z " />
<glyph glyph-name="Edieresis" unicode="&#xcb;" horiz-adv-x="583" d="M203 721 C240 721 270 750 270 789 C270 826 240 856 203 856 C165 856 135 826 135 789 C135 750 165 721 203 721 L203 721 Z M414 721 C451 721 482 750 482 789 C482 826 451 856 414 856 C377 856 346 826 346 789 C346 750 377 721 414 721 L414 721 Z M141 0 L483 0 C517 0 545 28 545 62 C545 95 517 123 483 123 L208 123 L208 278 L476 278 C510 278 538 305 538 339 C538 372 510 400 476 400 L208 400 L208 545 L483 545 C517 545 545 572 545 605 C545 640 517 667 483 667 L141 667 C93 667 66 640 66 592 L66 76 C66 27 93 0 141 0 L141 0 Z " />
<glyph glyph-name="Igrave" unicode="&#xcc;" horiz-adv-x="274" d="M115 723 C120 717 129 714 137 714 C155 714 170 728 170 746 C170 754 166 762 161 768 L71 865 C64 873 53 878 42 878 C22 878 4 860 4 838 C4 827 8 818 16 810 L115 723 Z M138 -7 C177 -7 208 26 208 64 L208 603 C208 642 177 674 138 674 C98 674 66 642 66 603 L66 64 C66 26 98 -7 138 -7 L138 -7 Z " />
<glyph glyph-name="Iacute" unicode="&#xcd;" horiz-adv-x="274" d="M167 723 L265 810 C274 818 278 827 278 838 C278 860 260 878 240 878 C228 878 218 873 211 865 L120 768 C116 762 112 754 112 746 C112 728 127 714 145 714 C153 714 162 717 167 723 L167 723 Z M138 -7 C177 -7 208 26 208 64 L208 603 C208 642 177 674 138 674 C98 674 66 642 66 603 L66 64 C66 26 98 -7 138 -7 L138 -7 Z " />
<glyph glyph-name="Icircumflex" unicode="&#xce;" horiz-adv-x="274" d="M205 729 C212 721 221 717 231 717 C249 717 264 731 264 751 C264 757 263 763 260 768 L212 843 C199 861 177 873 156 873 L122 873 C100 873 78 861 66 843 L17 768 C14 763 13 757 13 751 C13 731 28 717 46 717 C56 717 65 721 72 729 L139 812 L205 729 Z M138 -7 C177 -7 208 26 208 64 L208 603 C208 642 177 674 138 674 C98 674 66 642 66 603 L66 64 C66 26 98 -7 138 -7 L138 -7 Z " />
<glyph glyph-name="Idieresis" unicode="&#xcf;" horiz-adv-x="274" d="M33 721 C70 721 100 750 100 789 C100 826 70 856 33 856 C-5 856 -35 826 -35 789 C-35 750 -5 721 33 721 L33 721 Z M244 721 C281 721 312 750 312 789 C312 826 281 856 244 856 C207 856 176 826 176 789 C176 750 207 721 244 721 L244 721 Z M138 -7 C177 -7 208 26 208 64 L208 603 C208 642 177 674 138 674 C98 674 66 642 66 603 L66 64 C66 26 98 -7 138 -7 L138 -7 Z " />
<glyph glyph-name="Eth" unicode="&#xd0;" horiz-adv-x="742" d="M353 667 L166 667 C117 667 90 640 90 592 L90 384 L57 384 C27 384 1 360 1 330 C1 299 27 276 57 276 L90 276 L90 76 C90 27 117 0 166 0 L354 0 C562 0 708 132 708 333 C708 534 562 667 353 667 L353 667 Z M353 125 L233 125 L233 276 L336 276 C365 276 389 300 389 330 C389 360 365 384 336 384 L233 384 L233 542 L354 542 C490 542 562 451 562 333 C562 220 485 125 353 125 L353 125 Z " />
<glyph glyph-name="Ntilde" unicode="&#xd1;" horiz-adv-x="729" d="M422 721 C481 721 517 756 526 824 C529 845 513 862 493 862 C477 862 463 851 460 836 C455 806 442 794 426 794 C410 794 399 806 385 820 C368 839 348 861 310 861 C250 861 214 825 205 758 C202 739 217 720 238 720 C254 720 267 731 271 746 C275 777 290 789 305 789 C321 789 332 776 345 762 C362 743 383 721 422 721 L422 721 Z M576 -7 C624 -7 663 32 663 80 L663 603 C663 642 631 674 592 674 C552 674 521 642 521 603 L521 235 L235 635 C218 659 190 674 159 674 C107 674 66 632 66 581 L66 64 C66 26 98 -7 138 -7 C177 -7 208 26 208 64 L208 448 L505 30 C521 7 547 -7 576 -7 L576 -7 Z " />
<glyph glyph-name="Ograve" unicode="&#xd2;" horiz-adv-x="765" d="M359 723 C364 717 373 714 381 714 C399 714 414 728 414 746 C414 754 410 762 405 768 L315 865 C308 873 297 878 286 878 C266 878 248 860 248 838 C248 827 252 818 260 810 L359 723 Z M34 333 C34 132 181 -12 382 -12 C584 -12 731 132 731 333 C731 534 584 678 382 678 C181 678 34 534 34 333 L34 333 Z M585 333 C585 209 505 114 382 114 C259 114 180 209 180 333 C180 458 259 552 382 552 C505 552 585 458 585 333 L585 333 Z " />
<glyph glyph-name="Oacute" unicode="&#xd3;" horiz-adv-x="765" d="M411 723 L509 810 C518 818 522 827 522 838 C522 860 504 878 484 878 C472 878 462 873 455 865 L364 768 C360 762 356 754 356 746 C356 728 371 714 389 714 C397 714 406 717 411 723 L411 723 Z M34 333 C34 132 181 -12 382 -12 C584 -12 731 132 731 333 C731 534 584 678 382 678 C181 678 34 534 34 333 L34 333 Z M585 333 C585 209 505 114 382 114 C259 114 180 209 180 333 C180 458 259 552 382 552 C505 552 585 458 585 333 L585 333 Z " />
<glyph glyph-name="Ocircumflex" unicode="&#xd4;" horiz-adv-x="765" d="M449 729 C456 721 465 717 475 717 C493 717 508 731 508 751 C508 757 507 763 504 768 L456 843 C443 861 421 873 400 873 L366 873 C344 873 322 861 310 843 L261 768 C258 763 257 757 257 751 C257 731 272 717 290 717 C300 717 309 721 316 729 L383 812 L449 729 Z M34 333 C34 132 181 -12 382 -12 C584 -12 731 132 731 333 C731 534 584 678 382 678 C181 678 34 534 34 333 L34 333 Z M585 333 C585 209 505 114 382 114 C259 114 180 209 180 333 C180 458 259 552 382 552 C505 552 585 458 585 333 L585 333 Z " />
<glyph glyph-name="Otilde" unicode="&#xd5;" horiz-adv-x="765" d="M439 721 C498 721 534 756 543 824 C546 845 530 862 510 862 C494 862 480 851 477 836 C472 806 459 794 443 794 C427 794 416 806 402 820 C385 839 365 861 327 861 C267 861 231 825 222 758 C219 739 234 720 255 720 C271 720 284 731 288 746 C292 777 307 789 322 789 C338 789 349 776 362 762 C379 743 400 721 439 721 L439 721 Z M34 333 C34 132 181 -12 382 -12 C584 -12 731 132 731 333 C731 534 584 678 382 678 C181 678 34 534 34 333 L34 333 Z M585 333 C585 209 505 114 382 114 C259 114 180 209 180 333 C180 458 259 552 382 552 C505 552 585 458 585 333 L585 333 Z " />
<glyph glyph-name="Odieresis" unicode="&#xd6;" horiz-adv-x="765" d="M277 721 C314 721 344 750 344 789 C344 826 314 856 277 856 C239 856 209 826 209 789 C209 750 239 721 277 721 L277 721 Z M488 721 C525 721 556 750 556 789 C556 826 525 856 488 856 C451 856 420 826 420 789 C420 750 451 721 488 721 L488 721 Z M34 333 C34 132 181 -12 382 -12 C584 -12 731 132 731 333 C731 534 584 678 382 678 C181 678 34 534 34 333 L34 333 Z M585 333 C585 209 505 114 382 114 C259 114 180 209 180 333 C180 458 259 552 382 552 C505 552 585 458 585 333 L585 333 Z " />
<glyph glyph-name="multiply" unicode="&#xd7;" horiz-adv-x="504" d="M252 278 L371 160 C378 153 388 149 398 149 C420 149 438 166 438 187 C438 198 433 208 426 215 L308 334 L426 452 C433 459 438 469 438 480 C438 502 420 519 398 519 C388 519 377 515 370 508 L252 389 L135 508 C128 515 117 520 106 520 C84 520 67 502 67 480 C67 469 72 459 78 452 L196 334 L78 215 C72 208 67 198 67 187 C67 166 84 148 106 148 C117 148 127 153 134 160 L252 278 Z " />
<glyph glyph-name="Oslash" unicode="&#xd8;" horiz-adv-x="765" d="M621 591 L635 609 C640 615 643 625 643 634 C643 656 626 674 603 674 C590 674 578 668 571 658 L555 637 C505 663 446 678 382 678 C181 678 34 534 34 333 C34 232 71 145 134 84 L114 58 C109 52 106 42 106 33 C106 11 123 -7 146 -7 C159 -7 171 -1 178 9 L198 35 C250 5 313 -12 382 -12 C584 -12 731 132 731 333 C731 439 690 530 621 591 L621 591 Z M180 333 C180 458 259 552 382 552 C416 552 448 545 474 531 L220 197 C194 234 180 281 180 333 L180 333 Z M382 114 C343 114 308 124 279 141 L537 481 C568 442 585 391 585 333 C585 209 505 114 382 114 L382 114 Z " />
<glyph glyph-name="Ugrave" unicode="&#xd9;" horiz-adv-x="728" d="M342 723 C347 717 356 714 364 714 C382 714 397 728 397 746 C397 754 393 762 388 768 L298 865 C291 873 280 878 269 878 C249 878 231 860 231 838 C231 827 235 818 243 810 L342 723 Z M66 266 C66 102 161 -12 365 -12 C567 -12 662 101 662 267 L662 602 C662 642 630 674 590 674 C550 674 518 642 518 602 L518 271 C518 178 467 114 365 114 C261 114 210 178 210 271 L210 602 C210 642 178 674 138 674 C98 674 66 642 66 602 L66 266 Z " />
<glyph glyph-name="Uacute" unicode="&#xda;" horiz-adv-x="728" d="M394 723 L492 810 C501 818 505 827 505 838 C505 860 487 878 467 878 C455 878 445 873 438 865 L347 768 C343 762 339 754 339 746 C339 728 354 714 372 714 C380 714 389 717 394 723 L394 723 Z M66 266 C66 102 161 -12 365 -12 C567 -12 662 101 662 267 L662 602 C662 642 630 674 590 674 C550 674 518 642 518 602 L518 271 C518 178 467 114 365 114 C261 114 210 178 210 271 L210 602 C210 642 178 674 138 674 C98 674 66 642 66 602 L66 266 Z " />
<glyph glyph-name="Ucircumflex" unicode="&#xdb;" horiz-adv-x="728" d="M432 729 C439 721 448 717 458 717 C476 717 491 731 491 751 C491 757 490 763 487 768 L439 843 C426 861 404 873 383 873 L349 873 C327 873 305 861 293 843 L244 768 C241 763 240 757 240 751 C240 731 255 717 273 717 C283 717 292 721 299 729 L366 812 L432 729 Z M66 266 C66 102 161 -12 365 -12 C567 -12 662 101 662 267 L662 602 C662 642 630 674 590 674 C550 674 518 642 518 602 L518 271 C518 178 467 114 365 114 C261 114 210 178 210 271 L210 602 C210 642 178 674 138 674 C98 674 66 642 66 602 L66 266 Z " />
<glyph glyph-name="Udieresis" unicode="&#xdc;" horiz-adv-x="728" d="M260 721 C297 721 327 750 327 789 C327 826 297 856 260 856 C222 856 192 826 192 789 C192 750 222 721 260 721 L260 721 Z M471 721 C508 721 539 750 539 789 C539 826 508 856 471 856 C434 856 403 826 403 789 C403 750 434 721 471 721 L471 721 Z M66 266 C66 102 161 -12 365 -12 C567 -12 662 101 662 267 L662 602 C662 642 630 674 590 674 C550 674 518 642 518 602 L518 271 C518 178 467 114 365 114 C261 114 210 178 210 271 L210 602 C210 642 178 674 138 674 C98 674 66 642 66 602 L66 266 Z " />
<glyph glyph-name="Yacute" unicode="&#xdd;" horiz-adv-x="644" d="M330 714 C338 714 347 717 352 723 L450 810 C459 818 463 827 463 838 C463 860 445 878 425 878 C413 878 403 873 396 865 L305 768 C301 762 297 754 297 746 C297 728 312 714 330 714 L330 714 Z M608 605 C608 644 577 674 539 674 C517 674 496 663 483 644 L323 398 L161 644 C148 664 127 674 105 674 C67 674 36 644 36 605 C36 591 40 577 50 564 L251 273 L251 64 C251 26 283 -7 323 -7 C362 -7 394 26 394 64 L394 275 L594 564 C604 577 608 591 608 605 L608 605 Z " />
<glyph glyph-name="Thorn" unicode="&#xde;" horiz-adv-x="624" d="M138 -7 C177 -7 208 26 208 64 L208 130 L378 130 C522 130 602 227 602 343 C602 460 523 559 378 559 L208 559 L208 603 C208 642 177 674 137 674 C98 674 66 642 66 603 L66 64 C66 26 98 -7 138 -7 L138 -7 Z M457 344 C457 289 416 253 356 253 L208 253 L208 437 L356 437 C416 437 457 399 457 344 L457 344 Z " />
<glyph glyph-name="germandbls" unicode="&#xdf;" horiz-adv-x="643" d="M426 -12 C549 -12 627 54 627 144 C627 267 524 288 448 304 C403 314 366 321 366 349 C366 374 390 390 417 409 C453 435 498 467 498 532 C498 622 398 677 292 677 C147 677 63 585 63 475 L63 57 C63 22 92 -7 127 -7 C162 -7 190 22 190 57 L190 475 C190 531 234 564 290 564 C328 564 367 547 367 514 C367 496 348 482 324 465 C289 440 244 407 244 344 C244 233 341 210 415 193 C464 181 505 170 505 139 C505 112 478 87 426 87 C386 87 347 101 316 122 C308 127 299 130 289 130 C261 130 238 108 238 80 C238 63 248 48 261 39 C304 8 352 -12 426 -12 L426 -12 Z " />
<glyph glyph-name="agrave" unicode="&#xe0;" horiz-adv-x="543" d="M248 576 C253 570 262 567 270 567 C288 567 303 581 303 599 C303 607 299 615 294 621 L204 718 C197 726 186 731 175 731 C155 731 137 713 137 691 C137 680 141 671 149 663 L248 576 Z M269 495 C206 495 145 479 90 443 C77 435 67 419 67 401 C67 374 89 352 115 352 C124 352 133 355 140 359 C175 381 209 391 247 391 C311 391 353 359 353 310 L353 243 C321 282 264 302 200 302 C123 302 32 261 32 148 C32 40 123 -12 200 -12 C263 -12 320 12 352 50 C356 17 384 -7 416 -7 C452 -7 480 23 480 59 L480 312 C480 451 379 495 269 495 L269 495 Z M251 74 C201 74 160 100 160 145 C160 191 201 218 251 218 C292 218 332 204 353 176 L353 116 C332 88 292 74 251 74 L251 74 Z " />
<glyph glyph-name="aacute" unicode="&#xe1;" horiz-adv-x="543" d="M278 567 C286 567 295 570 300 576 L398 663 C407 671 411 680 411 691 C411 713 393 731 373 731 C361 731 351 726 344 718 L253 621 C249 615 245 607 245 599 C245 581 260 567 278 567 L278 567 Z M269 495 C206 495 145 479 90 443 C77 435 67 419 67 401 C67 374 89 352 115 352 C124 352 133 355 140 359 C175 381 209 391 247 391 C311 391 353 359 353 310 L353 243 C321 282 264 302 200 302 C123 302 32 261 32 148 C32 40 123 -12 200 -12 C263 -12 320 12 352 50 C356 17 384 -7 416 -7 C452 -7 480 23 480 59 L480 312 C480 451 379 495 269 495 L269 495 Z M251 74 C201 74 160 100 160 145 C160 191 201 218 251 218 C292 218 332 204 353 176 L353 116 C332 88 292 74 251 74 L251 74 Z " />
<glyph glyph-name="acircumflex" unicode="&#xe2;" horiz-adv-x="543" d="M179 570 C189 570 198 574 205 582 L272 665 L338 582 C345 574 354 570 364 570 C382 570 397 584 397 604 C397 610 396 616 393 621 L345 696 C332 714 310 726 289 726 L255 726 C233 726 211 714 199 696 L150 621 C147 616 146 610 146 604 C146 584 161 570 179 570 L179 570 Z M269 495 C206 495 145 479 90 443 C77 435 67 419 67 401 C67 374 89 352 115 352 C124 352 133 355 140 359 C175 381 209 391 247 391 C311 391 353 359 353 310 L353 243 C321 282 264 302 200 302 C123 302 32 261 32 148 C32 40 123 -12 200 -12 C263 -12 320 12 352 50 C356 17 384 -7 416 -7 C452 -7 480 23 480 59 L480 312 C480 451 379 495 269 495 L269 495 Z M251 74 C201 74 160 100 160 145 C160 191 201 218 251 218 C292 218 332 204 353 176 L353 116 C332 88 292 74 251 74 L251 74 Z " />
<glyph glyph-name="atilde" unicode="&#xe3;" horiz-adv-x="543" d="M144 573 C160 573 173 584 177 599 C181 630 196 642 211 642 C227 642 238 629 251 615 C268 596 289 574 328 574 C387 574 423 609 432 677 C435 698 419 715 399 715 C383 715 369 704 366 689 C361 659 348 647 332 647 C316 647 305 659 291 673 C274 692 254 714 216 714 C156 714 120 678 111 611 C108 592 123 573 144 573 L144 573 Z M269 495 C206 495 145 479 90 443 C77 435 67 419 67 401 C67 374 89 352 115 352 C124 352 133 355 140 359 C175 381 209 391 247 391 C311 391 353 359 353 310 L353 243 C321 282 264 302 200 302 C123 302 32 261 32 148 C32 40 123 -12 200 -12 C263 -12 320 12 352 50 C356 17 384 -7 416 -7 C452 -7 480 23 480 59 L480 312 C480 451 379 495 269 495 L269 495 Z M251 74 C201 74 160 100 160 145 C160 191 201 218 251 218 C292 218 332 204 353 176 L353 116 C332 88 292 74 251 74 L251 74 Z " />
<glyph glyph-name="adieresis" unicode="&#xe4;" horiz-adv-x="543" d="M166 574 C203 574 233 603 233 642 C233 679 203 709 166 709 C128 709 98 679 98 642 C98 603 128 574 166 574 L166 574 Z M377 574 C414 574 445 603 445 642 C445 679 414 709 377 709 C340 709 309 679 309 642 C309 603 340 574 377 574 L377 574 Z M269 495 C206 495 145 479 90 443 C77 435 67 419 67 401 C67 374 89 352 115 352 C124 352 133 355 140 359 C175 381 209 391 247 391 C311 391 353 359 353 310 L353 243 C321 282 264 302 200 302 C123 302 32 261 32 148 C32 40 123 -12 200 -12 C263 -12 320 12 352 50 C356 17 384 -7 416 -7 C452 -7 480 23 480 59 L480 312 C480 451 379 495 269 495 L269 495 Z M251 74 C201 74 160 100 160 145 C160 191 201 218 251 218 C292 218 332 204 353 176 L353 116 C332 88 292 74 251 74 L251 74 Z " />
<glyph glyph-name="aring" unicode="&#xe5;" horiz-adv-x="543" d="M272 551 C330 551 376 598 376 656 C376 713 330 762 272 762 C215 762 167 713 167 656 C167 598 215 551 272 551 L272 551 Z M272 703 C298 703 318 682 318 656 C318 631 298 609 272 609 C247 609 225 631 225 656 C225 682 247 703 272 703 L272 703 Z M269 495 C206 495 145 479 90 443 C77 435 67 419 67 401 C67 374 89 352 115 352 C124 352 133 355 140 359 C175 381 209 391 247 391 C311 391 353 359 353 310 L353 243 C321 282 264 302 200 302 C123 302 32 261 32 148 C32 40 123 -12 200 -12 C263 -12 320 12 352 50 C356 17 384 -7 416 -7 C452 -7 480 23 480 59 L480 312 C480 451 379 495 269 495 L269 495 Z M251 74 C201 74 160 100 160 145 C160 191 201 218 251 218 C292 218 332 204 353 176 L353 116 C332 88 292 74 251 74 L251 74 Z " />
<glyph glyph-name="ae" unicode="&#xe6;" horiz-adv-x="870" d="M500 201 L766 201 C814 201 841 219 841 261 C841 387 750 495 616 495 C525 495 476 458 441 412 C414 465 357 495 272 495 C209 495 146 479 91 443 C77 435 67 419 67 401 C67 374 89 351 116 351 C125 351 133 353 140 358 C178 381 217 391 257 391 C326 391 372 359 372 311 L372 246 C335 284 273 304 207 304 C113 304 32 252 32 146 C32 38 128 -12 234 -12 C320 -12 395 25 435 76 C479 13 543 -12 621 -12 C667 -12 719 1 766 28 C781 37 792 53 792 72 C792 100 770 123 742 123 C733 123 725 120 718 116 C691 100 659 92 630 92 C553 92 509 142 500 201 L500 201 Z M718 287 L498 287 C503 335 536 394 608 394 C686 394 716 333 718 287 L718 287 Z M372 175 L372 169 C372 131 320 88 256 88 C204 88 160 109 160 153 C160 196 204 218 259 218 C304 218 348 202 372 175 L372 175 Z " />
<glyph glyph-name="ccedilla" unicode="&#xe7;" horiz-adv-x="493" d="M402 137 C390 137 378 133 369 126 C348 109 323 101 294 101 C217 101 163 158 163 242 C163 326 217 382 294 382 C323 382 348 374 370 357 C379 350 390 346 403 346 C434 346 460 372 460 403 C460 422 450 440 435 450 C399 477 352 495 288 495 C139 495 32 390 32 242 C32 105 122 6 252 -10 L236 -53 C235 -56 234 -60 234 -63 C234 -82 247 -96 265 -96 C273 -96 279 -93 283 -91 C289 -86 298 -83 307 -83 C326 -83 336 -93 336 -109 C336 -131 311 -142 284 -142 C264 -142 242 -136 221 -124 C216 -121 212 -120 207 -120 C192 -120 179 -133 179 -149 C179 -163 188 -171 196 -175 C218 -186 251 -196 288 -196 C348 -196 399 -164 399 -111 C399 -69 369 -41 332 -41 C319 -41 306 -44 296 -51 L313 -11 C364 -7 404 10 435 33 C450 43 460 61 460 80 C460 112 434 137 402 137 L402 137 Z " />
<glyph glyph-name="egrave" unicode="&#xe8;" horiz-adv-x="553" d="M259 576 C264 570 273 567 281 567 C299 567 314 581 314 599 C314 607 310 615 305 621 L215 718 C208 726 197 731 186 731 C166 731 148 713 148 691 C148 680 152 671 160 663 L259 576 Z M32 242 C32 87 143 -12 290 -12 C346 -12 402 1 449 28 C464 37 476 53 476 72 C476 99 453 122 426 122 C417 122 409 120 402 116 C372 99 336 89 304 89 C222 89 173 140 165 201 L448 201 C497 201 524 219 524 261 C524 387 426 495 282 495 C135 495 32 382 32 242 L32 242 Z M282 394 C366 394 398 333 401 287 L163 287 C169 335 203 394 282 394 L282 394 Z " />
<glyph glyph-name="eacute" unicode="&#xe9;" horiz-adv-x="553" d="M311 576 L409 663 C418 671 422 680 422 691 C422 713 404 731 384 731 C372 731 362 726 355 718 L264 621 C260 615 256 607 256 599 C256 581 271 567 289 567 C297 567 306 570 311 576 L311 576 Z M32 242 C32 87 143 -12 290 -12 C346 -12 402 1 449 28 C464 37 476 53 476 72 C476 99 453 122 426 122 C417 122 409 120 402 116 C372 99 336 89 304 89 C222 89 173 140 165 201 L448 201 C497 201 524 219 524 261 C524 387 426 495 282 495 C135 495 32 382 32 242 L32 242 Z M282 394 C366 394 398 333 401 287 L163 287 C169 335 203 394 282 394 L282 394 Z " />
<glyph glyph-name="ecircumflex" unicode="&#xea;" horiz-adv-x="553" d="M349 582 C356 574 365 570 375 570 C393 570 408 584 408 604 C408 610 407 616 404 621 L356 696 C343 714 321 726 300 726 L266 726 C244 726 222 714 210 696 L161 621 C158 616 157 610 157 604 C157 584 172 570 190 570 C200 570 209 574 216 582 L283 665 L349 582 Z M32 242 C32 87 143 -12 290 -12 C346 -12 402 1 449 28 C464 37 476 53 476 72 C476 99 453 122 426 122 C417 122 409 120 402 116 C372 99 336 89 304 89 C222 89 173 140 165 201 L448 201 C497 201 524 219 524 261 C524 387 426 495 282 495 C135 495 32 382 32 242 L32 242 Z M282 394 C366 394 398 333 401 287 L163 287 C169 335 203 394 282 394 L282 394 Z " />
<glyph glyph-name="edieresis" unicode="&#xeb;" horiz-adv-x="553" d="M177 574 C214 574 244 603 244 642 C244 679 214 709 177 709 C139 709 109 679 109 642 C109 603 139 574 177 574 L177 574 Z M388 574 C425 574 456 603 456 642 C456 679 425 709 388 709 C351 709 320 679 320 642 C320 603 351 574 388 574 L388 574 Z M32 242 C32 87 143 -12 290 -12 C346 -12 402 1 449 28 C464 37 476 53 476 72 C476 99 453 122 426 122 C417 122 409 120 402 116 C372 99 336 89 304 89 C222 89 173 140 165 201 L448 201 C497 201 524 219 524 261 C524 387 426 495 282 495 C135 495 32 382 32 242 L32 242 Z M282 394 C366 394 398 333 401 287 L163 287 C169 335 203 394 282 394 L282 394 Z " />
<glyph glyph-name="igrave" unicode="&#xec;" horiz-adv-x="253" d="M103 576 C108 570 117 567 125 567 C143 567 158 581 158 599 C158 607 154 615 149 621 L59 718 C52 726 41 731 30 731 C10 731 -8 713 -8 691 C-8 680 -4 671 4 663 L103 576 Z M126 -7 C161 -7 190 22 190 57 L190 426 C190 461 161 490 127 490 C91 490 63 461 63 426 L63 57 C63 22 91 -7 126 -7 L126 -7 Z " />
<glyph glyph-name="iacute" unicode="&#xed;" horiz-adv-x="253" d="M155 576 L253 663 C262 671 266 680 266 691 C266 713 248 731 228 731 C216 731 206 726 199 718 L108 621 C104 615 100 607 100 599 C100 581 115 567 133 567 C141 567 150 570 155 576 L155 576 Z M126 -7 C161 -7 190 22 190 57 L190 426 C190 461 161 490 127 490 C91 490 63 461 63 426 L63 57 C63 22 91 -7 126 -7 L126 -7 Z " />
<glyph glyph-name="icircumflex" unicode="&#xee;" horiz-adv-x="253" d="M193 582 C200 574 209 570 219 570 C237 570 252 584 252 604 C252 610 251 616 248 621 L200 696 C187 714 165 726 144 726 L110 726 C88 726 66 714 54 696 L5 621 C2 616 1 610 1 604 C1 584 16 570 34 570 C44 570 53 574 60 582 L127 665 L193 582 Z M126 -7 C161 -7 190 22 190 57 L190 426 C190 461 161 490 127 490 C91 490 63 461 63 426 L63 57 C63 22 91 -7 126 -7 L126 -7 Z " />
<glyph glyph-name="idieresis" unicode="&#xef;" horiz-adv-x="253" d="M21 574 C58 574 88 603 88 642 C88 679 58 709 21 709 C-17 709 -47 679 -47 642 C-47 603 -17 574 21 574 L21 574 Z M232 574 C269 574 300 603 300 642 C300 679 269 709 232 709 C195 709 164 679 164 642 C164 603 195 574 232 574 L232 574 Z M126 -7 C161 -7 190 22 190 57 L190 426 C190 461 161 490 127 490 C91 490 63 461 63 426 L63 57 C63 22 91 -7 126 -7 L126 -7 Z " />
<glyph glyph-name="eth" unicode="&#xf0;" horiz-adv-x="574" d="M372 588 L422 610 C433 615 441 626 441 640 C441 657 427 671 409 671 C405 671 400 671 397 669 L316 633 C292 652 266 670 239 688 C229 694 217 698 205 698 C171 698 144 670 144 636 C144 615 156 595 173 584 C177 581 182 579 186 576 L100 538 C89 533 81 522 81 509 C81 491 96 477 113 477 C118 477 123 477 127 479 L249 533 C319 482 379 427 406 367 C367 428 315 460 246 460 C125 460 32 362 32 224 C32 87 133 -12 287 -12 C447 -12 543 96 543 252 C543 384 479 492 372 588 L372 588 Z M287 101 C208 101 164 157 164 224 C164 291 208 347 287 347 C366 347 411 291 411 224 C411 157 366 101 287 101 L287 101 Z " />
<glyph glyph-name="ntilde" unicode="&#xf1;" horiz-adv-x="579" d="M163 573 C179 573 192 584 196 599 C200 630 215 642 230 642 C246 642 257 629 270 615 C287 596 308 574 347 574 C406 574 442 609 451 677 C454 698 438 715 418 715 C402 715 388 704 385 689 C380 659 367 647 351 647 C335 647 324 659 310 673 C293 692 273 714 235 714 C175 714 139 678 130 611 C127 592 142 573 163 573 L163 573 Z M359 495 C280 495 222 457 191 422 L191 426 C191 462 162 491 126 491 C91 491 63 462 63 426 L63 57 C63 22 91 -7 127 -7 C161 -7 190 22 190 57 L190 325 C211 354 250 382 300 382 C354 382 389 359 389 292 L389 57 C389 22 418 -7 452 -7 C488 -7 516 22 516 57 L516 341 C516 435 465 495 359 495 L359 495 Z " />
<glyph glyph-name="ograve" unicode="&#xf2;" horiz-adv-x="574" d="M264 576 C269 570 278 567 286 567 C304 567 319 581 319 599 C319 607 315 615 310 621 L220 718 C213 726 202 731 191 731 C171 731 153 713 153 691 C153 680 157 671 165 663 L264 576 Z M287 -12 C447 -12 543 104 543 242 C543 379 447 495 287 495 C128 495 32 379 32 242 C32 104 128 -12 287 -12 L287 -12 Z M287 101 C208 101 164 166 164 242 C164 317 208 382 287 382 C366 382 411 317 411 242 C411 166 366 101 287 101 L287 101 Z " />
<glyph glyph-name="oacute" unicode="&#xf3;" horiz-adv-x="574" d="M316 576 L414 663 C423 671 427 680 427 691 C427 713 409 731 389 731 C377 731 367 726 360 718 L269 621 C265 615 261 607 261 599 C261 581 276 567 294 567 C302 567 311 570 316 576 L316 576 Z M287 -12 C447 -12 543 104 543 242 C543 379 447 495 287 495 C128 495 32 379 32 242 C32 104 128 -12 287 -12 L287 -12 Z M287 101 C208 101 164 166 164 242 C164 317 208 382 287 382 C366 382 411 317 411 242 C411 166 366 101 287 101 L287 101 Z " />
<glyph glyph-name="ocircumflex" unicode="&#xf4;" horiz-adv-x="574" d="M354 582 C361 574 370 570 380 570 C398 570 413 584 413 604 C413 610 412 616 409 621 L361 696 C348 714 326 726 305 726 L271 726 C249 726 227 714 215 696 L166 621 C163 616 162 610 162 604 C162 584 177 570 195 570 C205 570 214 574 221 582 L288 665 L354 582 Z M287 -12 C447 -12 543 104 543 242 C543 379 447 495 287 495 C128 495 32 379 32 242 C32 104 128 -12 287 -12 L287 -12 Z M287 101 C208 101 164 166 164 242 C164 317 208 382 287 382 C366 382 411 317 411 242 C411 166 366 101 287 101 L287 101 Z " />
<glyph glyph-name="otilde" unicode="&#xf5;" horiz-adv-x="574" d="M344 574 C403 574 439 609 448 677 C451 698 435 715 415 715 C399 715 385 704 382 689 C377 659 364 647 348 647 C332 647 321 659 307 673 C290 692 270 714 232 714 C172 714 136 678 127 611 C124 592 139 573 160 573 C176 573 189 584 193 599 C197 630 212 642 227 642 C243 642 254 629 267 615 C284 596 305 574 344 574 L344 574 Z M287 -12 C447 -12 543 104 543 242 C543 379 447 495 287 495 C128 495 32 379 32 242 C32 104 128 -12 287 -12 L287 -12 Z M287 101 C208 101 164 166 164 242 C164 317 208 382 287 382 C366 382 411 317 411 242 C411 166 366 101 287 101 L287 101 Z " />
<glyph glyph-name="odieresis" unicode="&#xf6;" horiz-adv-x="574" d="M182 574 C219 574 249 603 249 642 C249 679 219 709 182 709 C144 709 114 679 114 642 C114 603 144 574 182 574 L182 574 Z M393 574 C430 574 461 603 461 642 C461 679 430 709 393 709 C356 709 325 679 325 642 C325 603 356 574 393 574 L393 574 Z M287 -12 C447 -12 543 104 543 242 C543 379 447 495 287 495 C128 495 32 379 32 242 C32 104 128 -12 287 -12 L287 -12 Z M287 101 C208 101 164 166 164 242 C164 317 208 382 287 382 C366 382 411 317 411 242 C411 166 366 101 287 101 L287 101 Z " />
<glyph glyph-name="divide" unicode="&#xf7;" horiz-adv-x="511" d="M255 454 C289 454 316 482 316 516 C316 549 289 576 255 576 C221 576 194 549 194 516 C194 482 221 454 255 454 L255 454 Z M61 298 L450 298 C471 298 489 315 489 337 C489 359 471 377 450 377 L61 377 C40 377 22 359 22 337 C22 315 40 298 61 298 L61 298 Z M255 96 C289 96 316 123 316 157 C316 190 289 218 255 218 C221 218 194 190 194 157 C194 123 221 96 255 96 L255 96 Z " />
<glyph glyph-name="oslash" unicode="&#xf8;" horiz-adv-x="574" d="M475 419 L493 440 C498 445 500 452 500 460 C500 477 487 490 470 490 C461 490 453 486 447 479 L429 457 C390 481 342 495 287 495 C128 495 32 379 32 242 C32 175 55 112 97 67 L76 42 C72 37 69 30 69 22 C69 6 82 -7 99 -7 C108 -7 115 -3 121 3 L142 28 C182 3 230 -12 287 -12 C447 -12 543 104 543 242 C543 310 519 373 475 419 L475 419 Z M164 242 C164 317 208 382 287 382 C311 382 333 376 350 365 L181 166 C170 188 164 214 164 242 L164 242 Z M287 101 C261 101 239 108 221 120 L392 321 C404 298 411 271 411 242 C411 166 366 101 287 101 L287 101 Z " />
<glyph glyph-name="ugrave" unicode="&#xf9;" horiz-adv-x="579" d="M266 576 C271 570 280 567 288 567 C306 567 321 581 321 599 C321 607 317 615 312 621 L222 718 C215 726 204 731 193 731 C173 731 155 713 155 691 C155 680 159 671 167 663 L266 576 Z M452 490 C417 490 389 461 389 426 L389 156 C367 128 328 101 279 101 C225 101 190 123 190 190 L190 426 C190 461 161 490 127 490 C91 490 63 461 63 426 L63 140 C63 46 113 -12 219 -12 C298 -12 355 24 388 60 L388 57 C388 21 417 -8 453 -8 C488 -8 516 21 516 57 L516 426 C516 461 487 490 452 490 L452 490 Z " />
<glyph glyph-name="uacute" unicode="&#xfa;" horiz-adv-x="579" d="M296 567 C304 567 313 570 318 576 L416 663 C425 671 429 680 429 691 C429 713 411 731 391 731 C379 731 369 726 362 718 L271 621 C267 615 263 607 263 599 C263 581 278 567 296 567 L296 567 Z M452 490 C417 490 389 461 389 426 L389 156 C367 128 328 101 279 101 C225 101 190 123 190 190 L190 426 C190 461 161 490 127 490 C91 490 63 461 63 426 L63 140 C63 46 113 -12 219 -12 C298 -12 355 24 388 60 L388 57 C388 21 417 -8 453 -8 C488 -8 516 21 516 57 L516 426 C516 461 487 490 452 490 L452 490 Z " />
<glyph glyph-name="ucircumflex" unicode="&#xfb;" horiz-adv-x="579" d="M197 570 C207 570 216 574 223 582 L290 665 L356 582 C363 574 372 570 382 570 C400 570 415 584 415 604 C415 610 414 616 411 621 L363 696 C350 714 328 726 307 726 L273 726 C251 726 229 714 217 696 L168 621 C165 616 164 610 164 604 C164 584 179 570 197 570 L197 570 Z M452 490 C417 490 389 461 389 426 L389 156 C367 128 328 101 279 101 C225 101 190 123 190 190 L190 426 C190 461 161 490 127 490 C91 490 63 461 63 426 L63 140 C63 46 113 -12 219 -12 C298 -12 355 24 388 60 L388 57 C388 21 417 -8 453 -8 C488 -8 516 21 516 57 L516 426 C516 461 487 490 452 490 L452 490 Z " />
<glyph glyph-name="udieresis" unicode="&#xfc;" horiz-adv-x="579" d="M184 574 C221 574 251 603 251 642 C251 679 221 709 184 709 C146 709 116 679 116 642 C116 603 146 574 184 574 L184 574 Z M395 574 C432 574 463 603 463 642 C463 679 432 709 395 709 C358 709 327 679 327 642 C327 603 358 574 395 574 L395 574 Z M452 490 C417 490 389 461 389 426 L389 156 C367 128 328 101 279 101 C225 101 190 123 190 190 L190 426 C190 461 161 490 127 490 C91 490 63 461 63 426 L63 140 C63 46 113 -12 219 -12 C298 -12 355 24 388 60 L388 57 C388 21 417 -8 453 -8 C488 -8 516 21 516 57 L516 426 C516 461 487 490 452 490 L452 490 Z " />
<glyph glyph-name="yacute" unicode="&#xfd;" horiz-adv-x="510" d="M282 576 L380 663 C389 671 393 680 393 691 C393 713 375 731 355 731 C343 731 333 726 326 718 L235 621 C231 615 227 607 227 599 C227 581 242 567 260 567 C268 567 277 570 282 576 L282 576 Z M43 -138 C43 -169 66 -194 100 -195 C105 -196 110 -196 114 -196 C186 -195 253 -169 289 -79 L485 403 C488 410 490 419 490 427 C490 462 463 490 427 490 C401 490 377 475 368 451 L253 143 L137 451 C129 475 105 490 79 490 C44 490 17 462 17 427 C17 419 18 411 21 404 L187 -7 L169 -48 C157 -74 136 -82 103 -83 C101 -83 99 -84 97 -84 C68 -85 43 -107 43 -138 L43 -138 Z " />
<glyph glyph-name="thorn" unicode="&#xfe;" horiz-adv-x="585" d="M190 62 C229 12 282 -12 339 -12 C463 -12 553 81 553 242 C553 403 463 495 339 495 C280 495 227 469 190 422 L190 610 C190 645 161 674 126 674 C91 674 63 645 63 610 L63 -127 C63 -162 91 -191 127 -191 C161 -191 190 -162 190 -127 L190 62 Z M421 242 C421 158 372 101 299 101 C258 101 211 126 190 156 L190 327 C211 358 258 382 299 382 C372 382 421 325 421 242 L421 242 Z " />
<glyph glyph-name="ydieresis" unicode="&#xff;" horiz-adv-x="510" d="M148 574 C185 574 215 603 215 642 C215 679 185 709 148 709 C110 709 80 679 80 642 C80 603 110 574 148 574 L148 574 Z M359 574 C396 574 427 603 427 642 C427 679 396 709 359 709 C322 709 291 679 291 642 C291 603 322 574 359 574 L359 574 Z M43 -138 C43 -169 66 -194 100 -195 C105 -196 110 -196 114 -196 C186 -195 253 -169 289 -79 L485 403 C488 410 490 419 490 427 C490 462 463 490 427 490 C401 490 377 475 368 451 L253 143 L137 451 C129 475 105 490 79 490 C44 490 17 462 17 427 C17 419 18 411 21 404 L187 -7 L169 -48 C157 -74 136 -82 103 -83 C101 -83 99 -84 97 -84 C68 -85 43 -107 43 -138 L43 -138 Z " />
<glyph glyph-name="Amacron" unicode="&#x100;" horiz-adv-x="678" d="M201 729 L476 729 C496 729 512 745 512 765 C512 785 496 801 476 801 L201 801 C181 801 165 785 165 765 C165 745 181 729 201 729 L201 729 Z M650 90 L456 594 C438 641 392 674 339 674 C285 674 240 641 222 594 L27 90 C24 83 22 74 22 65 C22 25 54 -7 94 -7 C125 -7 153 13 162 41 L189 119 L489 119 L516 41 C525 13 552 -7 583 -7 C623 -7 656 25 656 65 C656 74 653 83 650 90 L650 90 Z M233 242 L339 544 L445 242 L233 242 Z " />
<glyph glyph-name="amacron" unicode="&#x101;" horiz-adv-x="543" d="M133 582 L408 582 C428 582 444 598 444 618 C444 638 428 654 408 654 L133 654 C113 654 97 638 97 618 C97 598 113 582 133 582 L133 582 Z M269 495 C206 495 145 479 90 443 C77 435 67 419 67 401 C67 374 89 352 115 352 C124 352 133 355 140 359 C175 381 209 391 247 391 C311 391 353 359 353 310 L353 243 C321 282 264 302 200 302 C123 302 32 261 32 148 C32 40 123 -12 200 -12 C263 -12 320 12 352 50 C356 17 384 -7 416 -7 C452 -7 480 23 480 59 L480 312 C480 451 379 495 269 495 L269 495 Z M251 74 C201 74 160 100 160 145 C160 191 201 218 251 218 C292 218 332 204 353 176 L353 116 C332 88 292 74 251 74 L251 74 Z " />
<glyph glyph-name="Abreve" unicode="&#x102;" horiz-adv-x="678" d="M186 783 C228 742 281 720 339 720 C398 720 450 742 492 783 C498 790 503 799 503 809 C503 829 487 846 467 846 C457 846 447 841 441 835 C413 807 379 792 339 792 C298 792 264 808 236 836 C230 842 220 846 210 846 C190 846 174 829 174 809 C174 799 179 789 186 783 L186 783 Z M650 90 L456 594 C438 641 392 674 339 674 C285 674 240 641 222 594 L27 90 C24 83 22 74 22 65 C22 25 54 -7 94 -7 C125 -7 153 13 162 41 L189 119 L489 119 L516 41 C525 13 552 -7 583 -7 C623 -7 656 25 656 65 C656 74 653 83 650 90 L650 90 Z M233 242 L339 544 L445 242 L233 242 Z " />
<glyph glyph-name="abreve" unicode="&#x103;" horiz-adv-x="543" d="M118 636 C160 595 213 573 271 573 C330 573 382 595 424 636 C430 643 435 652 435 662 C435 682 419 699 399 699 C389 699 379 694 373 688 C345 660 311 645 271 645 C230 645 196 661 168 689 C162 695 152 699 142 699 C122 699 106 682 106 662 C106 652 111 642 118 636 L118 636 Z M269 495 C206 495 145 479 90 443 C77 435 67 419 67 401 C67 374 89 352 115 352 C124 352 133 355 140 359 C175 381 209 391 247 391 C311 391 353 359 353 310 L353 243 C321 282 264 302 200 302 C123 302 32 261 32 148 C32 40 123 -12 200 -12 C263 -12 320 12 352 50 C356 17 384 -7 416 -7 C452 -7 480 23 480 59 L480 312 C480 451 379 495 269 495 L269 495 Z M251 74 C201 74 160 100 160 145 C160 191 201 218 251 218 C292 218 332 204 353 176 L353 116 C332 88 292 74 251 74 L251 74 Z " />
<glyph glyph-name="Aogonek" unicode="&#x104;" horiz-adv-x="684" d="M619 -105 C614 -105 611 -107 604 -107 C586 -107 570 -96 570 -76 C570 -48 587 -28 629 7 C633 10 634 12 633 13 C647 26 656 44 656 65 C656 74 653 83 650 90 L456 594 C438 641 392 674 339 674 C285 674 240 641 222 594 L27 90 C24 83 22 74 22 65 C22 25 54 -7 94 -7 C125 -7 153 13 162 41 L189 119 L489 119 L516 41 C523 20 539 4 560 -3 C503 -23 456 -59 456 -106 C456 -163 514 -186 569 -186 C593 -186 613 -184 631 -179 C640 -176 657 -164 657 -143 C657 -121 640 -105 619 -105 L619 -105 Z M233 242 L339 544 L445 242 L233 242 Z " />
<glyph glyph-name="aogonek" unicode="&#x105;" horiz-adv-x="543" d="M440 -2 C464 8 480 32 480 59 L480 312 C480 451 379 495 269 495 C206 495 145 479 90 443 C77 435 67 419 67 401 C67 374 89 352 115 352 C124 352 133 355 140 359 C175 381 209 391 247 391 C311 391 353 359 353 310 L353 243 C321 282 264 302 200 302 C123 302 32 261 32 148 C32 40 123 -12 200 -12 C263 -12 320 12 352 50 C355 27 369 8 389 -1 C328 -20 278 -57 278 -106 C278 -163 336 -186 391 -186 C415 -186 435 -184 453 -179 C462 -176 479 -164 479 -143 C479 -121 462 -105 441 -105 C436 -105 433 -107 426 -107 C408 -107 392 -96 392 -76 C392 -51 406 -32 440 -2 L440 -2 Z M251 74 C201 74 160 100 160 145 C160 191 201 218 251 218 C292 218 332 204 353 176 L353 116 C332 88 292 74 251 74 L251 74 Z " />
<glyph glyph-name="Cacute" unicode="&#x106;" horiz-adv-x="677" d="M413 723 L511 810 C520 818 524 827 524 838 C524 860 506 878 486 878 C474 878 464 873 457 865 L366 768 C362 762 358 754 358 746 C358 728 373 714 391 714 C399 714 408 717 413 723 L413 723 Z M384 -12 C494 -12 569 30 622 88 C633 99 639 115 639 132 C639 169 609 199 572 199 C552 199 534 190 522 177 C488 138 440 114 384 114 C268 114 180 207 180 333 C180 459 268 552 384 552 C440 552 488 527 521 490 C534 475 552 467 572 467 C609 467 639 497 639 534 C639 551 633 568 622 579 C569 637 494 678 384 678 C189 678 34 538 34 333 C34 128 189 -12 384 -12 L384 -12 Z " />
<glyph glyph-name="cacute" unicode="&#x107;" horiz-adv-x="493" d="M314 576 L412 663 C421 671 425 680 425 691 C425 713 407 731 387 731 C375 731 365 726 358 718 L267 621 C263 615 259 607 259 599 C259 581 274 567 292 567 C300 567 309 570 314 576 L314 576 Z M32 242 C32 93 139 -12 288 -12 C352 -12 399 6 435 33 C450 43 460 61 460 80 C460 112 434 137 402 137 C390 137 378 133 369 126 C348 109 323 101 294 101 C217 101 163 158 163 242 C163 326 217 382 294 382 C323 382 348 374 370 357 C379 350 390 346 403 346 C434 346 460 372 460 403 C460 422 450 440 435 450 C399 477 352 495 288 495 C139 495 32 390 32 242 L32 242 Z " />
<glyph glyph-name="Ccircumflex" unicode="&#x108;" horiz-adv-x="677" d="M451 729 C458 721 467 717 477 717 C495 717 510 731 510 751 C510 757 509 763 506 768 L458 843 C445 861 423 873 402 873 L368 873 C346 873 324 861 312 843 L263 768 C260 763 259 757 259 751 C259 731 274 717 292 717 C302 717 311 721 318 729 L385 812 L451 729 Z M384 -12 C494 -12 569 30 622 88 C633 99 639 115 639 132 C639 169 609 199 572 199 C552 199 534 190 522 177 C488 138 440 114 384 114 C268 114 180 207 180 333 C180 459 268 552 384 552 C440 552 488 527 521 490 C534 475 552 467 572 467 C609 467 639 497 639 534 C639 551 633 568 622 579 C569 637 494 678 384 678 C189 678 34 538 34 333 C34 128 189 -12 384 -12 L384 -12 Z " />
<glyph glyph-name="ccircumflex" unicode="&#x109;" horiz-adv-x="493" d="M352 582 C359 574 368 570 378 570 C396 570 411 584 411 604 C411 610 410 616 407 621 L359 696 C346 714 324 726 303 726 L269 726 C247 726 225 714 213 696 L164 621 C161 616 160 610 160 604 C160 584 175 570 193 570 C203 570 212 574 219 582 L286 665 L352 582 Z M32 242 C32 93 139 -12 288 -12 C352 -12 399 6 435 33 C450 43 460 61 460 80 C460 112 434 137 402 137 C390 137 378 133 369 126 C348 109 323 101 294 101 C217 101 163 158 163 242 C163 326 217 382 294 382 C323 382 348 374 370 357 C379 350 390 346 403 346 C434 346 460 372 460 403 C460 422 450 440 435 450 C399 477 352 495 288 495 C139 495 32 390 32 242 L32 242 Z " />
<glyph glyph-name="Cdotaccent" unicode="&#x10a;" horiz-adv-x="677" d="M316 788 C316 750 347 720 384 720 C421 720 451 750 451 788 C451 825 421 856 384 856 C347 856 316 825 316 788 L316 788 Z M384 -12 C494 -12 569 30 622 88 C633 99 639 115 639 132 C639 169 609 199 572 199 C552 199 534 190 522 177 C488 138 440 114 384 114 C268 114 180 207 180 333 C180 459 268 552 384 552 C440 552 488 527 521 490 C534 475 552 467 572 467 C609 467 639 497 639 534 C639 551 633 568 622 579 C569 637 494 678 384 678 C189 678 34 538 34 333 C34 128 189 -12 384 -12 L384 -12 Z " />
<glyph glyph-name="cdotaccent" unicode="&#x10b;" horiz-adv-x="493" d="M217 641 C217 603 248 573 285 573 C322 573 352 603 352 641 C352 678 322 709 285 709 C248 709 217 678 217 641 L217 641 Z M32 242 C32 93 139 -12 288 -12 C352 -12 399 6 435 33 C450 43 460 61 460 80 C460 112 434 137 402 137 C390 137 378 133 369 126 C348 109 323 101 294 101 C217 101 163 158 163 242 C163 326 217 382 294 382 C323 382 348 374 370 357 C379 350 390 346 403 346 C434 346 460 372 460 403 C460 422 450 440 435 450 C399 477 352 495 288 495 C139 495 32 390 32 242 L32 242 Z " />
<glyph glyph-name="Ccaron" unicode="&#x10c;" horiz-adv-x="677" d="M474 873 C464 873 455 869 448 862 L382 778 L315 862 C308 869 299 873 289 873 C271 873 256 859 256 839 C256 833 257 827 260 823 L309 747 C321 729 343 717 365 717 L399 717 C420 717 442 729 455 747 L503 823 C506 827 507 833 507 839 C507 859 492 873 474 873 L474 873 Z M384 -12 C494 -12 569 30 622 88 C633 99 639 115 639 132 C639 169 609 199 572 199 C552 199 534 190 522 177 C488 138 440 114 384 114 C268 114 180 207 180 333 C180 459 268 552 384 552 C440 552 488 527 521 490 C534 475 552 467 572 467 C609 467 639 497 639 534 C639 551 633 568 622 579 C569 637 494 678 384 678 C189 678 34 538 34 333 C34 128 189 -12 384 -12 L384 -12 Z " />
<glyph glyph-name="ccaron" unicode="&#x10d;" horiz-adv-x="493" d="M375 726 C365 726 356 722 349 715 L283 631 L216 715 C209 722 200 726 190 726 C172 726 157 712 157 692 C157 686 158 680 161 676 L210 600 C222 582 244 570 266 570 L300 570 C321 570 343 582 356 600 L404 676 C407 680 408 686 408 692 C408 712 393 726 375 726 L375 726 Z M32 242 C32 93 139 -12 288 -12 C352 -12 399 6 435 33 C450 43 460 61 460 80 C460 112 434 137 402 137 C390 137 378 133 369 126 C348 109 323 101 294 101 C217 101 163 158 163 242 C163 326 217 382 294 382 C323 382 348 374 370 357 C379 350 390 346 403 346 C434 346 460 372 460 403 C460 422 450 440 435 450 C399 477 352 495 288 495 C139 495 32 390 32 242 L32 242 Z " />
<glyph glyph-name="Dcaron" unicode="&#x10e;" horiz-adv-x="718" d="M449 873 C439 873 430 869 423 862 L357 778 L290 862 C283 869 274 873 264 873 C246 873 231 859 231 839 C231 833 232 827 235 823 L284 747 C296 729 318 717 340 717 L374 717 C395 717 417 729 430 747 L478 823 C481 827 482 833 482 839 C482 859 467 873 449 873 L449 873 Z M141 0 L329 0 C538 0 683 132 683 333 C683 534 538 667 329 667 L141 667 C93 667 66 640 66 592 L66 76 C66 27 93 0 141 0 L141 0 Z M208 125 L208 542 L329 542 C466 542 538 451 538 333 C538 220 461 125 329 125 L208 125 Z " />
<glyph glyph-name="dcaron" unicode="&#x10f;" horiz-adv-x="690" d="M625 679 C591 679 564 651 564 617 C564 583 587 560 617 560 C623 560 630 561 632 562 C627 542 611 517 592 500 C585 493 580 486 580 477 C580 462 592 450 607 450 C614 450 620 454 624 457 C667 492 696 542 696 598 C696 650 662 679 625 679 L625 679 Z M459 674 C424 674 395 645 395 610 L395 421 C356 471 302 495 246 495 C123 495 32 399 32 241 C32 80 124 -12 246 -12 C303 -12 355 13 394 60 L394 56 C395 20 424 -9 459 -9 C495 -9 523 21 523 57 L523 610 C523 645 494 674 459 674 L459 674 Z M285 101 C213 101 163 158 163 241 C163 325 213 382 285 382 C328 382 373 359 395 327 L395 156 C373 124 328 101 285 101 L285 101 Z " />
<glyph glyph-name="Dcroat" unicode="&#x110;" horiz-adv-x="742" d="M353 667 L166 667 C117 667 90 640 90 592 L90 384 L57 384 C27 384 1 360 1 330 C1 299 27 276 57 276 L90 276 L90 76 C90 27 117 0 166 0 L354 0 C562 0 708 132 708 333 C708 534 562 667 353 667 L353 667 Z M353 125 L233 125 L233 276 L336 276 C365 276 389 300 389 330 C389 360 365 384 336 384 L233 384 L233 542 L354 542 C490 542 562 451 562 333 C562 220 485 125 353 125 L353 125 Z " />
<glyph glyph-name="dcroat" unicode="&#x111;" horiz-adv-x="588" d="M552 601 L523 601 L523 610 C523 645 494 674 459 674 C424 674 395 645 395 610 L395 601 L278 601 C258 601 242 584 242 564 C242 544 258 528 278 528 L395 528 L395 421 C356 471 302 495 246 495 C123 495 32 399 32 241 C32 80 124 -12 246 -12 C303 -12 355 13 394 60 L394 56 C395 20 424 -9 459 -9 C495 -9 523 21 523 57 L523 528 L552 528 C572 528 588 544 588 564 C588 584 572 601 552 601 L552 601 Z M285 101 C213 101 163 158 163 241 C163 325 213 382 285 382 C328 382 373 359 395 327 L395 156 C373 124 328 101 285 101 L285 101 Z " />
<glyph glyph-name="Emacron" unicode="&#x112;" horiz-adv-x="583" d="M170 729 L445 729 C465 729 481 745 481 765 C481 785 465 801 445 801 L170 801 C150 801 134 785 134 765 C134 745 150 729 170 729 L170 729 Z M141 0 L483 0 C517 0 545 28 545 62 C545 95 517 123 483 123 L208 123 L208 278 L476 278 C510 278 538 305 538 339 C538 372 510 400 476 400 L208 400 L208 545 L483 545 C517 545 545 572 545 605 C545 640 517 667 483 667 L141 667 C93 667 66 640 66 592 L66 76 C66 27 93 0 141 0 L141 0 Z " />
<glyph glyph-name="emacron" unicode="&#x113;" horiz-adv-x="553" d="M144 582 L419 582 C439 582 455 598 455 618 C455 638 439 654 419 654 L144 654 C124 654 108 638 108 618 C108 598 124 582 144 582 L144 582 Z M32 242 C32 87 143 -12 290 -12 C346 -12 402 1 449 28 C464 37 476 53 476 72 C476 99 453 122 426 122 C417 122 409 120 402 116 C372 99 336 89 304 89 C222 89 173 140 165 201 L448 201 C497 201 524 219 524 261 C524 387 426 495 282 495 C135 495 32 382 32 242 L32 242 Z M282 394 C366 394 398 333 401 287 L163 287 C169 335 203 394 282 394 L282 394 Z " />
<glyph glyph-name="Ebreve" unicode="&#x114;" horiz-adv-x="583" d="M308 720 C367 720 419 742 461 783 C467 790 472 799 472 809 C472 829 456 846 436 846 C426 846 416 841 410 835 C382 807 348 792 308 792 C267 792 233 808 205 836 C199 842 189 846 179 846 C159 846 143 829 143 809 C143 799 148 789 155 783 C197 742 250 720 308 720 L308 720 Z M141 0 L483 0 C517 0 545 28 545 62 C545 95 517 123 483 123 L208 123 L208 278 L476 278 C510 278 538 305 538 339 C538 372 510 400 476 400 L208 400 L208 545 L483 545 C517 545 545 572 545 605 C545 640 517 667 483 667 L141 667 C93 667 66 640 66 592 L66 76 C66 27 93 0 141 0 L141 0 Z " />
<glyph glyph-name="ebreve" unicode="&#x115;" horiz-adv-x="553" d="M282 573 C341 573 393 595 435 636 C441 643 446 652 446 662 C446 682 430 699 410 699 C400 699 390 694 384 688 C356 660 322 645 282 645 C241 645 207 661 179 689 C173 695 163 699 153 699 C133 699 117 682 117 662 C117 652 122 642 129 636 C171 595 224 573 282 573 L282 573 Z M32 242 C32 87 143 -12 290 -12 C346 -12 402 1 449 28 C464 37 476 53 476 72 C476 99 453 122 426 122 C417 122 409 120 402 116 C372 99 336 89 304 89 C222 89 173 140 165 201 L448 201 C497 201 524 219 524 261 C524 387 426 495 282 495 C135 495 32 382 32 242 L32 242 Z M282 394 C366 394 398 333 401 287 L163 287 C169 335 203 394 282 394 L282 394 Z " />
<glyph glyph-name="Edotaccent" unicode="&#x116;" horiz-adv-x="583" d="M240 788 C240 750 271 720 308 720 C345 720 375 750 375 788 C375 825 345 856 308 856 C271 856 240 825 240 788 L240 788 Z M141 0 L483 0 C517 0 545 28 545 62 C545 95 517 123 483 123 L208 123 L208 278 L476 278 C510 278 538 305 538 339 C538 372 510 400 476 400 L208 400 L208 545 L483 545 C517 545 545 572 545 605 C545 640 517 667 483 667 L141 667 C93 667 66 640 66 592 L66 76 C66 27 93 0 141 0 L141 0 Z " />
<glyph glyph-name="edotaccent" unicode="&#x117;" horiz-adv-x="553" d="M214 641 C214 603 245 573 282 573 C319 573 349 603 349 641 C349 678 319 709 282 709 C245 709 214 678 214 641 L214 641 Z M32 242 C32 87 143 -12 290 -12 C346 -12 402 1 449 28 C464 37 476 53 476 72 C476 99 453 122 426 122 C417 122 409 120 402 116 C372 99 336 89 304 89 C222 89 173 140 165 201 L448 201 C497 201 524 219 524 261 C524 387 426 495 282 495 C135 495 32 382 32 242 L32 242 Z M282 394 C366 394 398 333 401 287 L163 287 C169 335 203 394 282 394 L282 394 Z " />
<glyph glyph-name="Eogonek" unicode="&#x118;" horiz-adv-x="583" d="M504 4 C528 12 545 35 545 62 C545 95 517 123 483 123 L208 123 L208 278 L476 278 C510 278 538 305 538 339 C538 372 510 400 476 400 L208 400 L208 545 L483 545 C517 545 545 572 545 605 C545 640 517 667 483 667 L141 667 C93 667 66 640 66 592 L66 76 C66 27 93 0 141 0 L449 0 C387 -19 335 -56 335 -106 C335 -163 393 -186 448 -186 C472 -186 492 -184 510 -179 C519 -176 536 -164 536 -143 C536 -121 519 -105 498 -105 C493 -105 490 -107 483 -107 C465 -107 449 -96 449 -76 C449 -49 465 -29 504 4 L504 4 Z " />
<glyph glyph-name="eogonek" unicode="&#x119;" horiz-adv-x="553" d="M290 -12 C316 -12 339 -9 358 -5 C312 -31 280 -66 280 -106 C280 -163 338 -186 393 -186 C414 -186 432 -184 449 -180 C465 -176 478 -162 478 -144 C478 -122 458 -103 436 -106 C434 -107 431 -107 428 -107 C410 -107 393 -96 393 -70 C393 -40 419 -5 459 31 C470 41 477 54 477 69 C477 98 454 121 424 121 C416 121 408 120 402 116 C370 99 333 89 304 89 C222 89 173 140 165 201 L448 201 C497 201 524 219 524 261 C524 387 426 495 282 495 C135 495 32 382 32 242 C32 87 143 -12 290 -12 L290 -12 Z M282 394 C366 394 398 333 401 287 L163 287 C169 335 203 394 282 394 L282 394 Z " />
<glyph glyph-name="Ecaron" unicode="&#x11a;" horiz-adv-x="583" d="M398 873 C388 873 379 869 372 862 L306 778 L239 862 C232 869 223 873 213 873 C195 873 180 859 180 839 C180 833 181 827 184 823 L233 747 C245 729 267 717 289 717 L323 717 C344 717 366 729 379 747 L427 823 C430 827 431 833 431 839 C431 859 416 873 398 873 L398 873 Z M141 0 L483 0 C517 0 545 28 545 62 C545 95 517 123 483 123 L208 123 L208 278 L476 278 C510 278 538 305 538 339 C538 372 510 400 476 400 L208 400 L208 545 L483 545 C517 545 545 572 545 605 C545 640 517 667 483 667 L141 667 C93 667 66 640 66 592 L66 76 C66 27 93 0 141 0 L141 0 Z " />
<glyph glyph-name="ecaron" unicode="&#x11b;" horiz-adv-x="553" d="M372 726 C362 726 353 722 346 715 L280 631 L213 715 C206 722 197 726 187 726 C169 726 154 712 154 692 C154 686 155 680 158 676 L207 600 C219 582 241 570 263 570 L297 570 C318 570 340 582 353 600 L401 676 C404 680 405 686 405 692 C405 712 390 726 372 726 L372 726 Z M32 242 C32 87 143 -12 290 -12 C346 -12 402 1 449 28 C464 37 476 53 476 72 C476 99 453 122 426 122 C417 122 409 120 402 116 C372 99 336 89 304 89 C222 89 173 140 165 201 L448 201 C497 201 524 219 524 261 C524 387 426 495 282 495 C135 495 32 382 32 242 L32 242 Z M282 394 C366 394 398 333 401 287 L163 287 C169 335 203 394 282 394 L282 394 Z " />
<glyph glyph-name="Gcircumflex" unicode="&#x11c;" horiz-adv-x="720" d="M297 717 C307 717 316 721 323 729 L390 812 L456 729 C463 721 472 717 482 717 C500 717 515 731 515 751 C515 757 514 763 511 768 L463 843 C450 861 428 873 407 873 L373 873 C351 873 329 861 317 843 L268 768 C265 763 264 757 264 751 C264 731 279 717 297 717 L297 717 Z M605 369 L409 369 C375 369 347 340 347 306 C347 272 375 245 409 245 L531 245 L531 165 C504 140 453 114 389 114 C268 114 180 207 180 333 C180 459 268 552 389 552 C442 552 487 530 521 497 C533 485 550 478 567 478 C604 478 633 508 633 544 C633 564 625 582 612 594 C558 644 487 678 389 678 C194 678 34 544 34 333 C34 123 194 -13 389 -13 C489 -13 570 21 634 75 C664 100 673 129 673 167 L673 300 C673 341 646 369 605 369 L605 369 Z " />
<glyph glyph-name="gcircumflex" unicode="&#x11d;" horiz-adv-x="585" d="M203 570 C213 570 222 574 229 582 L296 665 L362 582 C369 574 378 570 388 570 C406 570 421 584 421 604 C421 610 420 616 417 621 L369 696 C356 714 334 726 313 726 L279 726 C257 726 235 714 223 696 L174 621 C171 616 170 610 170 604 C170 584 185 570 203 570 L203 570 Z M459 490 C424 490 394 463 394 429 L394 421 C354 471 302 495 245 495 C123 495 32 407 32 249 C32 88 124 3 245 3 C304 3 355 30 394 78 L394 30 C394 -65 322 -92 261 -92 C218 -92 179 -83 145 -61 C137 -56 127 -53 118 -53 C89 -53 65 -77 65 -106 C65 -125 76 -142 91 -151 C143 -184 196 -196 261 -196 C380 -196 522 -151 522 33 L522 426 C522 461 493 490 459 490 L459 490 Z M285 116 C213 116 163 166 163 249 C163 332 213 382 285 382 C327 382 373 359 394 327 L394 171 C373 140 327 116 285 116 L285 116 Z " />
<glyph glyph-name="Gbreve" unicode="&#x11e;" horiz-adv-x="720" d="M236 783 C278 742 331 720 389 720 C448 720 500 742 542 783 C548 790 553 799 553 809 C553 829 537 846 517 846 C507 846 497 841 491 835 C463 807 429 792 389 792 C348 792 314 808 286 836 C280 842 270 846 260 846 C240 846 224 829 224 809 C224 799 229 789 236 783 L236 783 Z M605 369 L409 369 C375 369 347 340 347 306 C347 272 375 245 409 245 L531 245 L531 165 C504 140 453 114 389 114 C268 114 180 207 180 333 C180 459 268 552 389 552 C442 552 487 530 521 497 C533 485 550 478 567 478 C604 478 633 508 633 544 C633 564 625 582 612 594 C558 644 487 678 389 678 C194 678 34 544 34 333 C34 123 194 -13 389 -13 C489 -13 570 21 634 75 C664 100 673 129 673 167 L673 300 C673 341 646 369 605 369 L605 369 Z " />
<glyph glyph-name="gbreve" unicode="&#x11f;" horiz-adv-x="585" d="M142 636 C184 595 237 573 295 573 C354 573 406 595 448 636 C454 643 459 652 459 662 C459 682 443 699 423 699 C413 699 403 694 397 688 C369 660 335 645 295 645 C254 645 220 661 192 689 C186 695 176 699 166 699 C146 699 130 682 130 662 C130 652 135 642 142 636 L142 636 Z M459 490 C424 490 394 463 394 429 L394 421 C354 471 302 495 245 495 C123 495 32 407 32 249 C32 88 124 3 245 3 C304 3 355 30 394 78 L394 30 C394 -65 322 -92 261 -92 C218 -92 179 -83 145 -61 C137 -56 127 -53 118 -53 C89 -53 65 -77 65 -106 C65 -125 76 -142 91 -151 C143 -184 196 -196 261 -196 C380 -196 522 -151 522 33 L522 426 C522 461 493 490 459 490 L459 490 Z M285 116 C213 116 163 166 163 249 C163 332 213 382 285 382 C327 382 373 359 394 327 L394 171 C373 140 327 116 285 116 L285 116 Z " />
<glyph glyph-name="Gdotaccent" unicode="&#x120;" horiz-adv-x="720" d="M389 720 C426 720 456 750 456 788 C456 825 426 856 389 856 C352 856 321 825 321 788 C321 750 352 720 389 720 L389 720 Z M605 369 L409 369 C375 369 347 340 347 306 C347 272 375 245 409 245 L531 245 L531 165 C504 140 453 114 389 114 C268 114 180 207 180 333 C180 459 268 552 389 552 C442 552 487 530 521 497 C533 485 550 478 567 478 C604 478 633 508 633 544 C633 564 625 582 612 594 C558 644 487 678 389 678 C194 678 34 544 34 333 C34 123 194 -13 389 -13 C489 -13 570 21 634 75 C664 100 673 129 673 167 L673 300 C673 341 646 369 605 369 L605 369 Z " />
<glyph glyph-name="gdotaccent" unicode="&#x121;" horiz-adv-x="585" d="M295 573 C332 573 362 603 362 641 C362 678 332 709 295 709 C258 709 227 678 227 641 C227 603 258 573 295 573 L295 573 Z M459 490 C424 490 394 463 394 429 L394 421 C354 471 302 495 245 495 C123 495 32 407 32 249 C32 88 124 3 245 3 C304 3 355 30 394 78 L394 30 C394 -65 322 -92 261 -92 C218 -92 179 -83 145 -61 C137 -56 127 -53 118 -53 C89 -53 65 -77 65 -106 C65 -125 76 -142 91 -151 C143 -184 196 -196 261 -196 C380 -196 522 -151 522 33 L522 426 C522 461 493 490 459 490 L459 490 Z M285 116 C213 116 163 166 163 249 C163 332 213 382 285 382 C327 382 373 359 394 327 L394 171 C373 140 327 116 285 116 L285 116 Z " />
<glyph glyph-name="uni0122" unicode="&#x122;" horiz-adv-x="720" d="M605 369 L409 369 C375 369 347 340 347 306 C347 272 375 245 409 245 L531 245 L531 165 C504 140 453 114 389 114 C268 114 180 207 180 333 C180 459 268 552 389 552 C442 552 487 530 521 497 C533 485 550 478 567 478 C604 478 633 508 633 544 C633 564 625 582 612 594 C558 644 487 678 389 678 C194 678 34 544 34 333 C34 123 194 -13 389 -13 C489 -13 570 21 634 75 C664 100 673 129 673 167 L673 300 C673 341 646 369 605 369 L605 369 Z M389 -57 C355 -57 328 -85 328 -119 C328 -153 351 -176 381 -176 C387 -176 394 -175 396 -174 C391 -194 375 -219 356 -236 C349 -243 344 -250 344 -259 C344 -274 356 -286 371 -286 C378 -286 384 -282 388 -279 C431 -244 460 -194 460 -138 C460 -86 426 -57 389 -57 L389 -57 Z " />
<glyph glyph-name="uni0123" unicode="&#x123;" horiz-adv-x="585" d="M296 547 C330 547 358 575 358 609 C358 643 334 666 304 666 C299 666 292 665 289 664 C294 684 310 708 329 726 C336 733 342 740 342 748 C342 764 329 775 314 775 C307 775 301 772 297 769 C254 734 225 684 225 628 C225 576 259 547 296 547 L296 547 Z M459 490 C424 490 394 463 394 429 L394 421 C354 471 302 495 245 495 C123 495 32 407 32 249 C32 88 124 3 245 3 C304 3 355 30 394 78 L394 30 C394 -65 322 -92 261 -92 C218 -92 179 -83 145 -61 C137 -56 127 -53 118 -53 C89 -53 65 -77 65 -106 C65 -125 76 -142 91 -151 C143 -184 196 -196 261 -196 C380 -196 522 -151 522 33 L522 426 C522 461 493 490 459 490 L459 490 Z M285 116 C213 116 163 166 163 249 C163 332 213 382 285 382 C327 382 373 359 394 327 L394 171 C373 140 327 116 285 116 L285 116 Z " />
<glyph glyph-name="Hcircumflex" unicode="&#x124;" horiz-adv-x="731" d="M433 729 C440 721 449 717 459 717 C477 717 492 731 492 751 C492 757 491 763 488 768 L440 843 C427 861 405 873 384 873 L350 873 C328 873 306 861 294 843 L245 768 C242 763 241 757 241 751 C241 731 256 717 274 717 C284 717 293 721 300 729 L367 812 L433 729 Z M594 -7 C634 -7 666 26 666 64 L666 603 C666 642 634 674 595 674 C555 674 523 642 523 603 L523 405 L208 405 L208 603 C208 642 177 674 137 674 C98 674 66 642 66 603 L66 64 C66 26 98 -7 138 -7 C177 -7 208 26 208 64 L208 280 L523 280 L523 64 C523 26 555 -7 594 -7 L594 -7 Z " />
<glyph glyph-name="hcircumflex" unicode="&#x125;" horiz-adv-x="580" d="M357 729 C364 721 373 717 383 717 C401 717 416 731 416 751 C416 757 415 763 412 768 L364 843 C351 861 329 873 308 873 L274 873 C252 873 230 861 218 843 L169 768 C166 763 165 757 165 751 C165 731 180 717 198 717 C208 717 217 721 224 729 L291 812 L357 729 Z M453 -7 C489 -7 517 22 517 57 L517 343 C517 437 466 495 360 495 C281 495 221 457 190 420 L190 610 C190 645 162 674 127 674 C92 674 63 645 63 610 L63 57 C63 22 92 -7 127 -7 C162 -7 190 22 190 57 L190 325 C212 354 251 382 300 382 C355 382 390 361 390 294 L390 57 C390 22 419 -7 453 -7 L453 -7 Z " />
<glyph glyph-name="Hbar" unicode="&#x126;" horiz-adv-x="748" d="M713 570 L674 570 L674 603 C674 642 642 674 603 674 C563 674 531 642 531 603 L531 570 L217 570 L217 603 C217 642 185 674 145 674 C106 674 74 642 74 603 L74 570 L37 570 C18 570 1 554 1 534 C1 514 18 498 37 498 L74 498 L74 64 C74 26 106 -7 146 -7 C185 -7 217 26 217 64 L217 280 L531 280 L531 64 C531 26 563 -7 602 -7 C642 -7 674 26 674 64 L674 498 L713 498 C733 498 749 514 749 534 C749 554 733 570 713 570 L713 570 Z M531 405 L217 405 L217 498 L531 498 L531 405 Z " />
<glyph glyph-name="hbar" unicode="&#x127;" horiz-adv-x="584" d="M364 495 C285 495 225 457 194 420 L194 528 L311 528 C331 528 348 544 348 564 C348 584 331 601 311 601 L194 601 L194 610 C194 645 166 674 131 674 C96 674 67 645 67 610 L67 601 L37 601 C17 601 1 584 1 564 C1 544 17 528 37 528 L67 528 L67 57 C67 22 96 -7 131 -7 C166 -7 194 22 194 57 L194 325 C216 354 255 382 304 382 C359 382 394 361 394 294 L394 57 C394 22 423 -7 457 -7 C493 -7 521 22 521 57 L521 343 C521 437 470 495 364 495 L364 495 Z " />
<glyph glyph-name="Itilde" unicode="&#x128;" horiz-adv-x="274" d="M195 721 C254 721 290 756 299 824 C302 845 286 862 266 862 C250 862 236 851 233 836 C228 806 215 794 199 794 C183 794 172 806 158 820 C141 839 121 861 83 861 C23 861 -13 825 -22 758 C-25 739 -10 720 11 720 C27 720 40 731 44 746 C48 777 63 789 78 789 C94 789 105 776 118 762 C135 743 156 721 195 721 L195 721 Z M138 -7 C177 -7 208 26 208 64 L208 603 C208 642 177 674 138 674 C98 674 66 642 66 603 L66 64 C66 26 98 -7 138 -7 L138 -7 Z " />
<glyph glyph-name="itilde" unicode="&#x129;" horiz-adv-x="253" d="M183 574 C242 574 278 609 287 677 C290 698 274 715 254 715 C238 715 224 704 221 689 C216 659 203 647 187 647 C171 647 160 659 146 673 C129 692 109 714 71 714 C11 714 -25 678 -34 611 C-37 592 -22 573 -1 573 C15 573 28 584 32 599 C36 630 51 642 66 642 C82 642 93 629 106 615 C123 596 144 574 183 574 L183 574 Z M126 -7 C161 -7 190 22 190 57 L190 426 C190 461 161 490 127 490 C91 490 63 461 63 426 L63 57 C63 22 91 -7 126 -7 L126 -7 Z " />
<glyph glyph-name="Imacron" unicode="&#x12a;" horiz-adv-x="274" d="M0 729 L275 729 C295 729 311 745 311 765 C311 785 295 801 275 801 L0 801 C-20 801 -36 785 -36 765 C-36 745 -20 729 0 729 L0 729 Z M138 -7 C177 -7 208 26 208 64 L208 603 C208 642 177 674 138 674 C98 674 66 642 66 603 L66 64 C66 26 98 -7 138 -7 L138 -7 Z " />
<glyph glyph-name="imacron" unicode="&#x12b;" horiz-adv-x="253" d="M-12 582 L263 582 C283 582 299 598 299 618 C299 638 283 654 263 654 L-12 654 C-32 654 -48 638 -48 618 C-48 598 -32 582 -12 582 L-12 582 Z M126 -7 C161 -7 190 22 190 57 L190 426 C190 461 161 490 127 490 C91 490 63 461 63 426 L63 57 C63 22 91 -7 126 -7 L126 -7 Z " />
<glyph glyph-name="Ibreve" unicode="&#x12c;" horiz-adv-x="274" d="M138 720 C197 720 249 742 291 783 C297 790 302 799 302 809 C302 829 286 846 266 846 C256 846 246 841 240 835 C212 807 178 792 138 792 C97 792 63 808 35 836 C29 842 19 846 9 846 C-11 846 -27 829 -27 809 C-27 799 -22 789 -15 783 C27 742 80 720 138 720 L138 720 Z M138 -7 C177 -7 208 26 208 64 L208 603 C208 642 177 674 138 674 C98 674 66 642 66 603 L66 64 C66 26 98 -7 138 -7 L138 -7 Z " />
<glyph glyph-name="ibreve" unicode="&#x12d;" horiz-adv-x="253" d="M126 573 C185 573 237 595 279 636 C285 643 290 652 290 662 C290 682 274 699 254 699 C244 699 234 694 228 688 C200 660 166 645 126 645 C85 645 51 661 23 689 C17 695 7 699 -3 699 C-23 699 -39 682 -39 662 C-39 652 -34 642 -27 636 C15 595 68 573 126 573 L126 573 Z M126 -7 C161 -7 190 22 190 57 L190 426 C190 461 161 490 127 490 C91 490 63 461 63 426 L63 57 C63 22 91 -7 126 -7 L126 -7 Z " />
<glyph glyph-name="Iogonek" unicode="&#x12e;" horiz-adv-x="274" d="M176 5 C196 18 208 40 208 64 L208 603 C208 642 177 674 138 674 C98 674 66 642 66 603 L66 64 C66 34 85 8 113 -2 C54 -22 6 -58 6 -106 C6 -163 64 -186 119 -186 C143 -186 163 -184 181 -179 C190 -176 207 -164 207 -143 C207 -121 190 -105 169 -105 C164 -105 161 -107 154 -107 C136 -107 120 -96 120 -76 C120 -49 136 -29 176 5 L176 5 Z " />
<glyph glyph-name="iogonek" unicode="&#x12f;" horiz-adv-x="253" d="M126 562 C168 562 202 596 202 638 C202 680 168 714 126 714 C85 714 50 680 50 638 C50 596 85 562 126 562 L126 562 Z M127 490 C91 490 63 461 63 426 L63 57 C63 32 78 9 99 -1 C38 -20 -12 -57 -12 -106 C-12 -163 46 -186 101 -186 C125 -186 145 -184 163 -179 C172 -176 189 -164 189 -143 C189 -121 172 -105 151 -105 C146 -105 143 -107 136 -107 C118 -107 102 -96 102 -76 C102 -51 116 -32 150 -2 C173 7 190 31 190 57 L190 426 C190 461 161 490 127 490 L127 490 Z " />
<glyph glyph-name="Idotaccent" unicode="&#x130;" horiz-adv-x="274" d="M70 788 C70 750 101 720 138 720 C175 720 205 750 205 788 C205 825 175 856 138 856 C101 856 70 825 70 788 L70 788 Z M138 -7 C177 -7 208 26 208 64 L208 603 C208 642 177 674 138 674 C98 674 66 642 66 603 L66 64 C66 26 98 -7 138 -7 L138 -7 Z " />
<glyph glyph-name="dotlessi" unicode="&#x131;" horiz-adv-x="253" d="M126 -7 C161 -7 190 22 190 57 L190 426 C190 461 161 490 127 490 C91 490 63 461 63 426 L63 57 C63 22 91 -7 126 -7 L126 -7 Z " />
<glyph glyph-name="IJ" unicode="&#x132;" horiz-adv-x="760" d="M138 -7 C177 -7 208 26 208 64 L208 603 C208 642 177 674 138 674 C98 674 66 642 66 603 L66 64 C66 26 98 -7 138 -7 L138 -7 Z M329 21 C369 -2 412 -12 459 -12 C596 -12 694 61 694 219 L694 603 C694 642 662 674 623 674 C583 674 552 642 552 603 L552 221 C552 156 511 114 448 114 C422 114 402 121 383 133 C375 137 366 139 356 139 C321 139 293 111 293 76 C293 51 308 31 329 21 L329 21 Z " />
<glyph glyph-name="ij" unicode="&#x133;" horiz-adv-x="506" d="M126 562 C168 562 202 596 202 638 C202 680 168 714 126 714 C85 714 50 680 50 638 C50 596 85 562 126 562 L126 562 Z M379 562 C421 562 455 596 455 638 C455 680 421 714 379 714 C338 714 303 680 303 638 C303 596 338 562 379 562 L379 562 Z M126 -7 C161 -7 190 22 190 57 L190 426 C190 461 161 490 127 490 C91 490 63 461 63 426 L63 57 C63 22 91 -7 126 -7 L126 -7 Z M276 -196 C387 -196 443 -122 443 -13 L443 426 C443 461 414 490 380 490 C344 490 316 461 316 426 L316 -13 C316 -67 289 -88 255 -90 L251 -90 C227 -91 209 -115 209 -140 C209 -174 235 -196 266 -196 L276 -196 Z " />
<glyph glyph-name="Jcircumflex" unicode="&#x134;" horiz-adv-x="486" d="M418 746 C425 738 434 734 444 734 C462 734 477 748 477 768 C477 774 476 780 473 785 L425 860 C412 878 390 890 369 890 L335 890 C313 890 291 878 279 860 L230 785 C227 780 226 774 226 768 C226 748 241 734 259 734 C269 734 278 738 285 746 L352 829 L418 746 Z M55 21 C95 -2 138 -12 185 -12 C322 -12 420 61 420 219 L420 603 C420 642 388 674 349 674 C309 674 278 642 278 603 L278 221 C278 156 237 114 174 114 C148 114 128 121 109 133 C101 137 92 139 82 139 C47 139 19 111 19 76 C19 51 34 31 55 21 L55 21 Z " />
<glyph glyph-name="jcircumflex" unicode="&#x135;" horiz-adv-x="253" d="M193 582 C200 574 209 570 219 570 C237 570 252 584 252 604 C252 610 251 616 248 621 L200 696 C187 714 165 726 144 726 L110 726 C88 726 66 714 54 696 L5 621 C2 616 1 610 1 604 C1 584 16 570 34 570 C44 570 53 574 60 582 L127 665 L193 582 Z M23 -196 C134 -196 190 -122 190 -13 L190 426 C190 461 161 490 127 490 C91 490 63 461 63 426 L63 -13 C63 -67 36 -88 2 -90 L-2 -90 C-26 -91 -44 -115 -44 -140 C-44 -174 -18 -196 13 -196 L23 -196 Z " />
<glyph glyph-name="uni0136" unicode="&#x136;" horiz-adv-x="636" d="M585 106 L362 350 L564 564 C576 576 581 591 581 608 C581 643 552 674 515 674 C496 674 479 667 465 652 L208 368 L208 603 C208 642 177 674 137 674 C98 674 66 642 66 603 L66 64 C66 26 98 -7 137 -7 C177 -7 208 26 208 64 L208 205 L262 265 L484 15 C496 0 514 -7 535 -7 C574 -7 602 26 602 62 C602 78 595 94 585 106 L585 106 Z M323 -57 C289 -57 262 -85 262 -119 C262 -153 285 -176 315 -176 C321 -176 328 -175 330 -174 C325 -194 309 -219 290 -236 C283 -243 278 -250 278 -259 C278 -274 290 -286 305 -286 C312 -286 318 -282 322 -279 C365 -244 394 -194 394 -138 C394 -86 360 -57 323 -57 L323 -57 Z " />
<glyph glyph-name="uni0137" unicode="&#x137;" horiz-adv-x="535" d="M491 96 L343 261 L474 389 C485 400 491 416 491 431 C491 463 465 490 432 490 C417 490 402 485 390 473 L190 270 L190 610 C190 645 161 674 127 674 C91 674 63 645 63 610 L63 57 C63 22 91 -7 126 -7 C161 -7 190 22 190 57 L190 129 L250 185 L392 15 C404 0 422 -7 441 -7 C477 -7 504 20 504 57 C504 72 499 88 491 96 L491 96 Z M269 -57 C235 -57 208 -85 208 -119 C208 -153 231 -176 261 -176 C267 -176 274 -175 276 -174 C271 -194 255 -219 236 -236 C229 -243 224 -250 224 -259 C224 -274 236 -286 251 -286 C258 -286 264 -282 268 -279 C311 -244 340 -194 340 -138 C340 -86 306 -57 269 -57 L269 -57 Z " />
<glyph glyph-name="kgreenlandic" unicode="&#x138;" horiz-adv-x="535" d="M491 96 L343 261 L474 389 C485 400 491 416 491 431 C491 463 465 490 432 490 C417 490 402 485 390 473 L190 270 L190 426 C190 461 161 490 127 490 C91 490 63 461 63 426 L63 57 C63 22 91 -7 126 -7 C161 -7 190 22 190 57 L190 129 L250 185 L392 15 C404 0 422 -7 441 -7 C477 -7 504 20 504 57 C504 72 499 88 491 96 L491 96 Z " />
<glyph glyph-name="Lacute" unicode="&#x139;" horiz-adv-x="523" d="M167 723 L265 810 C274 818 278 827 278 838 C278 860 260 878 240 878 C228 878 218 873 211 865 L120 768 C116 762 112 754 112 746 C112 728 127 714 145 714 C153 714 162 717 167 723 L167 723 Z M141 0 L435 0 C468 0 497 28 497 63 C497 97 468 125 435 125 L208 125 L208 603 C208 642 177 674 138 674 C98 674 66 642 66 603 L66 76 C66 27 93 0 141 0 L141 0 Z " />
<glyph glyph-name="lacute" unicode="&#x13a;" horiz-adv-x="253" d="M155 723 L253 810 C262 818 266 827 266 838 C266 860 248 878 228 878 C216 878 206 873 199 865 L108 768 C104 762 100 754 100 746 C100 728 115 714 133 714 C141 714 150 717 155 723 L155 723 Z M127 -7 C161 -7 190 22 190 57 L190 610 C190 645 161 674 127 674 C91 674 63 645 63 610 L63 57 C63 22 91 -7 127 -7 L127 -7 Z " />
<glyph glyph-name="uni013B" unicode="&#x13b;" horiz-adv-x="523" d="M141 0 L435 0 C468 0 497 28 497 63 C497 97 468 125 435 125 L208 125 L208 603 C208 642 177 674 138 674 C98 674 66 642 66 603 L66 76 C66 27 93 0 141 0 L141 0 Z M261 -286 C268 -286 274 -282 278 -279 C321 -244 350 -194 350 -138 C350 -86 316 -57 279 -57 C245 -57 218 -85 218 -119 C218 -153 241 -176 271 -176 C277 -176 284 -175 286 -174 C281 -194 265 -219 246 -236 C239 -243 234 -250 234 -259 C234 -274 246 -286 261 -286 L261 -286 Z " />
<glyph glyph-name="uni013C" unicode="&#x13c;" horiz-adv-x="253" d="M127 -7 C161 -7 190 22 190 57 L190 610 C190 645 161 674 127 674 C91 674 63 645 63 610 L63 57 C63 22 91 -7 127 -7 L127 -7 Z M108 -286 C115 -286 121 -282 125 -279 C168 -244 197 -194 197 -138 C197 -86 163 -57 126 -57 C92 -57 65 -85 65 -119 C65 -153 88 -176 118 -176 C124 -176 131 -175 133 -174 C128 -194 112 -219 93 -236 C86 -243 81 -250 81 -259 C81 -274 93 -286 108 -286 L108 -286 Z " />
<glyph glyph-name="Lcaron" unicode="&#x13d;" horiz-adv-x="523" d="M332 451 C339 451 345 455 349 458 C392 493 421 543 421 599 C421 651 387 680 350 680 C316 680 289 652 289 618 C289 584 312 561 342 561 C348 561 355 562 357 563 C352 543 336 518 317 501 C310 494 305 487 305 478 C305 463 317 451 332 451 L332 451 Z M141 0 L435 0 C468 0 497 28 497 63 C497 97 468 125 435 125 L208 125 L208 603 C208 642 177 674 138 674 C98 674 66 642 66 603 L66 76 C66 27 93 0 141 0 L141 0 Z " />
<glyph glyph-name="lcaron" unicode="&#x13e;" horiz-adv-x="354" d="M274 451 C281 451 287 455 291 458 C334 493 363 543 363 599 C363 651 329 680 292 680 C258 680 231 652 231 618 C231 584 254 561 284 561 C290 561 297 562 299 563 C294 543 278 518 259 501 C252 494 247 487 247 478 C247 463 259 451 274 451 L274 451 Z M127 -7 C161 -7 190 22 190 57 L190 610 C190 645 161 674 127 674 C91 674 63 645 63 610 L63 57 C63 22 91 -7 127 -7 L127 -7 Z " />
<glyph glyph-name="Ldot" unicode="&#x13f;" horiz-adv-x="542" d="M141 0 L435 0 C468 0 497 28 497 63 C497 97 468 125 435 125 L208 125 L208 603 C208 642 177 674 138 674 C98 674 66 642 66 603 L66 76 C66 27 93 0 141 0 L141 0 Z M407 261 C451 261 487 298 487 341 C487 385 451 422 407 422 C363 422 326 385 326 341 C326 298 363 261 407 261 L407 261 Z " />
<glyph glyph-name="ldot" unicode="&#x140;" horiz-adv-x="384" d="M127 -7 C161 -7 190 22 190 57 L190 610 C190 645 161 674 127 674 C91 674 63 645 63 610 L63 57 C63 22 91 -7 127 -7 L127 -7 Z M318 164 C362 164 398 201 398 244 C398 288 362 325 318 325 C274 325 237 288 237 244 C237 201 274 164 318 164 L318 164 Z " />
<glyph glyph-name="Lslash" unicode="&#x141;" horiz-adv-x="534" d="M449 125 L222 125 L222 315 L284 351 C298 359 309 376 309 395 C309 422 287 445 259 445 C249 445 241 442 233 438 L222 432 L222 603 C222 642 191 674 152 674 C112 674 80 642 80 603 L80 349 L24 317 C10 308 -1 292 -1 272 C-1 245 22 222 49 222 C58 222 67 225 74 229 L80 232 L80 76 C80 27 107 0 155 0 L449 0 C482 0 511 28 511 63 C511 97 482 125 449 125 L449 125 Z " />
<glyph glyph-name="lslash" unicode="&#x142;" horiz-adv-x="308" d="M266 439 C259 439 252 437 246 434 L218 418 L218 610 C218 645 189 674 155 674 C119 674 91 645 91 610 L91 344 L21 304 C9 297 1 284 1 270 C1 247 19 229 41 229 C49 229 56 231 62 234 L91 251 L91 57 C91 22 119 -7 155 -7 C189 -7 218 22 218 57 L218 325 L286 364 C298 371 306 384 306 399 C306 421 289 439 266 439 L266 439 Z " />
<glyph glyph-name="Nacute" unicode="&#x143;" horiz-adv-x="729" d="M394 723 L492 810 C501 818 505 827 505 838 C505 860 487 878 467 878 C455 878 445 873 438 865 L347 768 C343 762 339 754 339 746 C339 728 354 714 372 714 C380 714 389 717 394 723 L394 723 Z M576 -7 C624 -7 663 32 663 80 L663 603 C663 642 631 674 592 674 C552 674 521 642 521 603 L521 235 L235 635 C218 659 190 674 159 674 C107 674 66 632 66 581 L66 64 C66 26 98 -7 138 -7 C177 -7 208 26 208 64 L208 448 L505 30 C521 7 547 -7 576 -7 L576 -7 Z " />
<glyph glyph-name="nacute" unicode="&#x144;" horiz-adv-x="579" d="M297 567 C305 567 314 570 319 576 L417 663 C426 671 430 680 430 691 C430 713 412 731 392 731 C380 731 370 726 363 718 L272 621 C268 615 264 607 264 599 C264 581 279 567 297 567 L297 567 Z M359 495 C280 495 222 457 191 422 L191 426 C191 462 162 491 126 491 C91 491 63 462 63 426 L63 57 C63 22 91 -7 127 -7 C161 -7 190 22 190 57 L190 325 C211 354 250 382 300 382 C354 382 389 359 389 292 L389 57 C389 22 418 -7 452 -7 C488 -7 516 22 516 57 L516 341 C516 435 465 495 359 495 L359 495 Z " />
<glyph glyph-name="uni0145" unicode="&#x145;" horiz-adv-x="729" d="M576 -7 C624 -7 663 32 663 80 L663 603 C663 642 631 674 592 674 C552 674 521 642 521 603 L521 235 L235 635 C218 659 190 674 159 674 C107 674 66 632 66 581 L66 64 C66 26 98 -7 138 -7 C177 -7 208 26 208 64 L208 448 L505 30 C521 7 547 -7 576 -7 L576 -7 Z M347 -286 C354 -286 360 -282 364 -279 C407 -244 436 -194 436 -138 C436 -86 402 -57 365 -57 C331 -57 304 -85 304 -119 C304 -153 327 -176 357 -176 C363 -176 370 -175 372 -174 C367 -194 351 -219 332 -236 C325 -243 320 -250 320 -259 C320 -274 332 -286 347 -286 L347 -286 Z " />
<glyph glyph-name="uni0146" unicode="&#x146;" horiz-adv-x="579" d="M359 495 C280 495 222 457 191 422 L191 426 C191 462 162 491 126 491 C91 491 63 462 63 426 L63 57 C63 22 91 -7 127 -7 C161 -7 190 22 190 57 L190 325 C211 354 250 382 300 382 C354 382 389 359 389 292 L389 57 C389 22 418 -7 452 -7 C488 -7 516 22 516 57 L516 341 C516 435 465 495 359 495 L359 495 Z M290 -57 C256 -57 229 -85 229 -119 C229 -153 252 -176 282 -176 C288 -176 295 -175 297 -174 C292 -194 276 -219 257 -236 C250 -243 245 -250 245 -259 C245 -274 257 -286 272 -286 C279 -286 285 -282 289 -279 C332 -244 361 -194 361 -138 C361 -86 327 -57 290 -57 L290 -57 Z " />
<glyph glyph-name="Ncaron" unicode="&#x147;" horiz-adv-x="729" d="M455 873 C445 873 436 869 429 862 L363 778 L296 862 C289 869 280 873 270 873 C252 873 237 859 237 839 C237 833 238 827 241 823 L290 747 C302 729 324 717 346 717 L380 717 C401 717 423 729 436 747 L484 823 C487 827 488 833 488 839 C488 859 473 873 455 873 L455 873 Z M576 -7 C624 -7 663 32 663 80 L663 603 C663 642 631 674 592 674 C552 674 521 642 521 603 L521 235 L235 635 C218 659 190 674 159 674 C107 674 66 632 66 581 L66 64 C66 26 98 -7 138 -7 C177 -7 208 26 208 64 L208 448 L505 30 C521 7 547 -7 576 -7 L576 -7 Z " />
<glyph glyph-name="ncaron" unicode="&#x148;" horiz-adv-x="579" d="M215 600 C227 582 249 570 271 570 L305 570 C326 570 348 582 361 600 L409 676 C412 680 413 686 413 692 C413 712 398 726 380 726 C370 726 361 722 354 715 L288 631 L221 715 C214 722 205 726 195 726 C177 726 162 712 162 692 C162 686 163 680 166 676 L215 600 Z M359 495 C280 495 222 457 191 422 L191 426 C191 462 162 491 126 491 C91 491 63 462 63 426 L63 57 C63 22 91 -7 127 -7 C161 -7 190 22 190 57 L190 325 C211 354 250 382 300 382 C354 382 389 359 389 292 L389 57 C389 22 418 -7 452 -7 C488 -7 516 22 516 57 L516 341 C516 435 465 495 359 495 L359 495 Z " />
<glyph glyph-name="napostrophe" unicode="&#x149;" horiz-adv-x="579" d="M72 585 C65 578 60 571 60 562 C60 547 72 535 87 535 C94 535 100 539 104 542 C147 577 176 627 176 683 C176 735 142 764 105 764 C71 764 44 736 44 702 C44 668 67 645 97 645 C103 645 110 646 112 647 C107 627 91 602 72 585 L72 585 Z M359 495 C280 495 222 457 191 422 L191 426 C191 462 162 491 126 491 C91 491 63 462 63 426 L63 57 C63 22 91 -7 127 -7 C161 -7 190 22 190 57 L190 325 C211 354 250 382 300 382 C354 382 389 359 389 292 L389 57 C389 22 418 -7 452 -7 C488 -7 516 22 516 57 L516 341 C516 435 465 495 359 495 L359 495 Z " />
<glyph glyph-name="Eng" unicode="&#x14a;" horiz-adv-x="729" d="M592 674 C552 674 521 642 521 603 L521 241 L235 636 C218 660 190 674 160 674 C108 674 66 632 66 580 L66 64 C66 26 98 -7 138 -7 C177 -7 208 26 208 64 L208 442 L512 19 C507 -37 474 -70 417 -70 C391 -70 370 -63 352 -51 C344 -47 335 -45 324 -45 C290 -45 261 -73 261 -108 C261 -133 276 -153 297 -163 C338 -186 381 -196 428 -196 C565 -196 663 -123 663 34 L663 603 C663 642 631 674 592 674 L592 674 Z " />
<glyph glyph-name="eng" unicode="&#x14b;" horiz-adv-x="579" d="M359 495 C280 495 222 457 191 422 L191 426 C191 462 162 491 126 491 C91 491 63 462 63 426 L63 57 C63 22 91 -7 127 -7 C161 -7 190 22 190 57 L190 325 C211 354 250 382 300 382 C354 382 389 359 389 292 L389 -13 C389 -67 362 -88 328 -90 L324 -90 C300 -91 282 -115 282 -140 C282 -174 308 -196 339 -196 L349 -196 C460 -196 516 -122 516 -13 L516 341 C516 435 465 495 359 495 L359 495 Z " />
<glyph glyph-name="Omacron" unicode="&#x14c;" horiz-adv-x="765" d="M244 729 L519 729 C539 729 555 745 555 765 C555 785 539 801 519 801 L244 801 C224 801 208 785 208 765 C208 745 224 729 244 729 L244 729 Z M34 333 C34 132 181 -12 382 -12 C584 -12 731 132 731 333 C731 534 584 678 382 678 C181 678 34 534 34 333 L34 333 Z M585 333 C585 209 505 114 382 114 C259 114 180 209 180 333 C180 458 259 552 382 552 C505 552 585 458 585 333 L585 333 Z " />
<glyph glyph-name="omacron" unicode="&#x14d;" horiz-adv-x="574" d="M149 582 L424 582 C444 582 460 598 460 618 C460 638 444 654 424 654 L149 654 C129 654 113 638 113 618 C113 598 129 582 149 582 L149 582 Z M287 -12 C447 -12 543 104 543 242 C543 379 447 495 287 495 C128 495 32 379 32 242 C32 104 128 -12 287 -12 L287 -12 Z M287 101 C208 101 164 166 164 242 C164 317 208 382 287 382 C366 382 411 317 411 242 C411 166 366 101 287 101 L287 101 Z " />
<glyph glyph-name="Obreve" unicode="&#x14e;" horiz-adv-x="765" d="M382 720 C441 720 493 742 535 783 C541 790 546 799 546 809 C546 829 530 846 510 846 C500 846 490 841 484 835 C456 807 422 792 382 792 C341 792 307 808 279 836 C273 842 263 846 253 846 C233 846 217 829 217 809 C217 799 222 789 229 783 C271 742 324 720 382 720 L382 720 Z M34 333 C34 132 181 -12 382 -12 C584 -12 731 132 731 333 C731 534 584 678 382 678 C181 678 34 534 34 333 L34 333 Z M585 333 C585 209 505 114 382 114 C259 114 180 209 180 333 C180 458 259 552 382 552 C505 552 585 458 585 333 L585 333 Z " />
<glyph glyph-name="obreve" unicode="&#x14f;" horiz-adv-x="574" d="M287 573 C346 573 398 595 440 636 C446 643 451 652 451 662 C451 682 435 699 415 699 C405 699 395 694 389 688 C361 660 327 645 287 645 C246 645 212 661 184 689 C178 695 168 699 158 699 C138 699 122 682 122 662 C122 652 127 642 134 636 C176 595 229 573 287 573 L287 573 Z M287 -12 C447 -12 543 104 543 242 C543 379 447 495 287 495 C128 495 32 379 32 242 C32 104 128 -12 287 -12 L287 -12 Z M287 101 C208 101 164 166 164 242 C164 317 208 382 287 382 C366 382 411 317 411 242 C411 166 366 101 287 101 L287 101 Z " />
<glyph glyph-name="Ohungarumlaut" unicode="&#x150;" horiz-adv-x="765" d="M321 716 C331 716 340 720 346 728 L412 810 C417 817 420 825 420 834 C420 856 402 874 381 874 C368 874 355 867 348 855 L293 765 C290 760 288 754 288 748 C288 730 304 716 321 716 L321 716 Z M470 716 C480 716 489 720 495 728 L561 810 C566 817 569 825 569 834 C569 856 551 874 530 874 C517 874 504 867 497 855 L442 765 C439 760 437 754 437 748 C437 730 453 716 470 716 L470 716 Z M34 333 C34 132 181 -12 382 -12 C584 -12 731 132 731 333 C731 534 584 678 382 678 C181 678 34 534 34 333 L34 333 Z M585 333 C585 209 505 114 382 114 C259 114 180 209 180 333 C180 458 259 552 382 552 C505 552 585 458 585 333 L585 333 Z " />
<glyph glyph-name="ohungarumlaut" unicode="&#x151;" horiz-adv-x="574" d="M226 569 C236 569 245 573 251 581 L317 663 C322 670 325 678 325 687 C325 709 307 727 286 727 C273 727 260 720 253 708 L198 618 C195 613 193 607 193 601 C193 583 209 569 226 569 L226 569 Z M375 569 C385 569 394 573 400 581 L466 663 C471 670 474 678 474 687 C474 709 456 727 435 727 C422 727 409 720 402 708 L347 618 C344 613 342 607 342 601 C342 583 358 569 375 569 L375 569 Z M287 -12 C447 -12 543 104 543 242 C543 379 447 495 287 495 C128 495 32 379 32 242 C32 104 128 -12 287 -12 L287 -12 Z M287 101 C208 101 164 166 164 242 C164 317 208 382 287 382 C366 382 411 317 411 242 C411 166 366 101 287 101 L287 101 Z " />
<glyph glyph-name="OE" unicode="&#x152;" horiz-adv-x="1084" d="M987 123 L712 123 L712 278 L980 278 C1013 278 1041 305 1041 339 C1041 372 1013 400 980 400 L712 400 L712 545 L987 545 C1020 545 1048 572 1048 605 C1048 640 1020 667 987 667 L645 667 C596 667 569 640 569 592 L569 591 C524 649 441 677 368 677 C174 677 34 535 34 333 C34 131 174 -12 368 -12 C441 -12 523 17 569 75 C569 27 596 0 645 0 L987 0 C1020 0 1048 28 1048 62 C1048 95 1020 123 987 123 L987 123 Z M388 114 C259 114 180 209 180 333 C180 458 259 551 388 551 C469 551 537 512 569 436 L569 230 C537 156 469 114 388 114 L388 114 Z " />
<glyph glyph-name="oe" unicode="&#x153;" horiz-adv-x="931" d="M544 201 L827 201 C875 201 902 211 902 229 C902 387 805 495 661 495 C562 495 506 434 476 387 C443 433 388 495 287 495 C128 495 32 379 32 242 C32 104 128 -12 287 -12 C388 -12 443 49 475 95 C508 47 562 -12 669 -12 C725 -12 780 1 827 28 C842 36 854 53 854 72 C854 100 832 121 804 121 C795 121 787 119 781 116 C750 98 715 89 683 89 C600 89 553 142 544 201 L544 201 Z M780 287 L542 287 C547 335 582 394 660 394 C744 394 777 333 780 287 L780 287 Z M287 382 C362 382 411 324 411 242 C411 159 362 100 287 100 C213 100 164 159 164 242 C164 324 213 382 287 382 L287 382 Z " />
<glyph glyph-name="Racute" unicode="&#x154;" horiz-adv-x="643" d="M330 714 C338 714 347 717 352 723 L450 810 C459 818 463 827 463 838 C463 860 445 878 425 878 C413 878 403 873 396 865 L305 768 C301 762 297 754 297 746 C297 728 312 714 330 714 L330 714 Z M475 259 C541 283 602 345 602 452 C602 576 517 667 378 667 L141 667 C93 667 66 640 66 592 L66 64 C66 26 98 -7 138 -7 C177 -7 208 26 208 64 L208 239 L325 239 L475 23 C487 6 509 -7 534 -7 C572 -7 602 26 602 60 C602 80 597 93 588 105 L475 259 Z M208 545 L357 545 C414 545 457 509 457 453 C457 397 414 361 357 361 L208 361 L208 545 Z " />
<glyph glyph-name="racute" unicode="&#x155;" horiz-adv-x="360" d="M208 567 C216 567 225 570 230 576 L328 663 C337 671 341 680 341 691 C341 713 323 731 303 731 C291 731 281 726 274 718 L183 621 C179 615 175 607 175 599 C175 581 190 567 208 567 L208 567 Z M301 492 C290 492 281 489 269 484 C240 473 211 446 190 417 L191 426 C191 462 162 490 126 490 C91 490 63 461 63 425 L63 57 C63 22 91 -7 127 -7 C161 -7 190 22 190 57 L190 319 C211 350 261 368 294 372 C334 378 354 404 354 435 C354 466 335 492 301 492 L301 492 Z " />
<glyph glyph-name="uni0156" unicode="&#x156;" horiz-adv-x="643" d="M475 259 C541 283 602 345 602 452 C602 576 517 667 378 667 L141 667 C93 667 66 640 66 592 L66 64 C66 26 98 -7 138 -7 C177 -7 208 26 208 64 L208 239 L325 239 L475 23 C487 6 509 -7 534 -7 C572 -7 602 26 602 60 C602 80 597 93 588 105 L475 259 Z M208 545 L357 545 C414 545 457 509 457 453 C457 397 414 361 357 361 L208 361 L208 545 Z M323 -57 C289 -57 262 -85 262 -119 C262 -153 285 -176 315 -176 C321 -176 328 -175 330 -174 C325 -194 309 -219 290 -236 C283 -243 278 -250 278 -259 C278 -274 290 -286 305 -286 C312 -286 318 -282 322 -279 C365 -244 394 -194 394 -138 C394 -86 360 -57 323 -57 L323 -57 Z " />
<glyph glyph-name="uni0157" unicode="&#x157;" horiz-adv-x="360" d="M301 492 C290 492 281 489 269 484 C240 473 211 446 190 417 L191 426 C191 462 162 490 126 490 C91 490 63 461 63 425 L63 57 C63 22 91 -7 127 -7 C161 -7 190 22 190 57 L190 319 C211 350 261 368 294 372 C334 378 354 404 354 435 C354 466 335 492 301 492 L301 492 Z M129 -57 C95 -57 68 -85 68 -119 C68 -153 91 -176 121 -176 C127 -176 134 -175 136 -174 C131 -194 115 -219 96 -236 C89 -243 84 -250 84 -259 C84 -274 96 -286 111 -286 C118 -286 124 -282 128 -279 C171 -244 200 -194 200 -138 C200 -86 166 -57 129 -57 L129 -57 Z " />
<glyph glyph-name="Rcaron" unicode="&#x158;" horiz-adv-x="643" d="M248 747 C260 729 282 717 304 717 L338 717 C359 717 381 729 394 747 L442 823 C445 827 446 833 446 839 C446 859 431 873 413 873 C403 873 394 869 387 862 L321 778 L254 862 C247 869 238 873 228 873 C210 873 195 859 195 839 C195 833 196 827 199 823 L248 747 Z M475 259 C541 283 602 345 602 452 C602 576 517 667 378 667 L141 667 C93 667 66 640 66 592 L66 64 C66 26 98 -7 138 -7 C177 -7 208 26 208 64 L208 239 L325 239 L475 23 C487 6 509 -7 534 -7 C572 -7 602 26 602 60 C602 80 597 93 588 105 L475 259 Z M208 545 L357 545 C414 545 457 509 457 453 C457 397 414 361 357 361 L208 361 L208 545 Z " />
<glyph glyph-name="rcaron" unicode="&#x159;" horiz-adv-x="360" d="M126 600 C138 582 160 570 182 570 L216 570 C237 570 259 582 272 600 L320 676 C323 680 324 686 324 692 C324 712 309 726 291 726 C281 726 272 722 265 715 L199 631 L132 715 C125 722 116 726 106 726 C88 726 73 712 73 692 C73 686 74 680 77 676 L126 600 Z M301 492 C290 492 281 489 269 484 C240 473 211 446 190 417 L191 426 C191 462 162 490 126 490 C91 490 63 461 63 425 L63 57 C63 22 91 -7 127 -7 C161 -7 190 22 190 57 L190 319 C211 350 261 368 294 372 C334 378 354 404 354 435 C354 466 335 492 301 492 L301 492 Z " />
<glyph glyph-name="Sacute" unicode="&#x15a;" horiz-adv-x="600" d="M324 723 L422 810 C431 818 435 827 435 838 C435 860 417 878 397 878 C385 878 375 873 368 865 L277 768 C273 762 269 754 269 746 C269 728 284 714 302 714 C310 714 319 717 324 723 L324 723 Z M68 55 C128 13 205 -12 303 -12 C483 -12 570 80 570 202 C570 350 430 383 320 408 C243 426 187 440 187 485 C187 525 221 553 295 553 C342 553 394 539 446 510 C455 504 467 500 480 500 C515 500 545 530 545 566 C545 590 531 612 512 622 C448 659 381 677 305 677 C138 677 42 587 42 476 C42 327 182 297 291 272 C368 254 426 237 426 187 C426 149 388 112 310 112 C243 112 188 133 142 165 C131 173 118 177 104 177 C68 177 38 147 38 110 C38 87 50 67 68 55 L68 55 Z " />
<glyph glyph-name="sacute" unicode="&#x15b;" horiz-adv-x="477" d="M264 576 L362 663 C371 671 375 680 375 691 C375 713 357 731 337 731 C325 731 315 726 308 718 L217 621 C213 615 209 607 209 599 C209 581 224 567 242 567 C250 567 259 570 264 576 L264 576 Z M59 35 C110 4 172 -12 237 -12 C371 -12 446 54 446 143 C446 263 335 285 252 301 C198 312 160 323 160 353 C160 381 190 398 236 398 C277 398 315 386 346 367 C352 363 362 361 370 361 C397 361 419 383 419 410 C419 428 409 444 394 452 C350 479 297 495 235 495 C108 495 37 424 37 343 C37 228 144 208 227 192 C282 181 324 169 324 135 C324 105 298 86 243 86 C199 86 151 103 112 127 C104 131 95 134 85 134 C56 134 32 110 32 81 C32 62 43 44 59 35 L59 35 Z " />
<glyph glyph-name="Scircumflex" unicode="&#x15c;" horiz-adv-x="600" d="M362 729 C369 721 378 717 388 717 C406 717 421 731 421 751 C421 757 420 763 417 768 L369 843 C356 861 334 873 313 873 L279 873 C257 873 235 861 223 843 L174 768 C171 763 170 757 170 751 C170 731 185 717 203 717 C213 717 222 721 229 729 L296 812 L362 729 Z M68 55 C128 13 205 -12 303 -12 C483 -12 570 80 570 202 C570 350 430 383 320 408 C243 426 187 440 187 485 C187 525 221 553 295 553 C342 553 394 539 446 510 C455 504 467 500 480 500 C515 500 545 530 545 566 C545 590 531 612 512 622 C448 659 381 677 305 677 C138 677 42 587 42 476 C42 327 182 297 291 272 C368 254 426 237 426 187 C426 149 388 112 310 112 C243 112 188 133 142 165 C131 173 118 177 104 177 C68 177 38 147 38 110 C38 87 50 67 68 55 L68 55 Z " />
<glyph glyph-name="scircumflex" unicode="&#x15d;" horiz-adv-x="477" d="M302 582 C309 574 318 570 328 570 C346 570 361 584 361 604 C361 610 360 616 357 621 L309 696 C296 714 274 726 253 726 L219 726 C197 726 175 714 163 696 L114 621 C111 616 110 610 110 604 C110 584 125 570 143 570 C153 570 162 574 169 582 L236 665 L302 582 Z M59 35 C110 4 172 -12 237 -12 C371 -12 446 54 446 143 C446 263 335 285 252 301 C198 312 160 323 160 353 C160 381 190 398 236 398 C277 398 315 386 346 367 C352 363 362 361 370 361 C397 361 419 383 419 410 C419 428 409 444 394 452 C350 479 297 495 235 495 C108 495 37 424 37 343 C37 228 144 208 227 192 C282 181 324 169 324 135 C324 105 298 86 243 86 C199 86 151 103 112 127 C104 131 95 134 85 134 C56 134 32 110 32 81 C32 62 43 44 59 35 L59 35 Z " />
<glyph glyph-name="uni015E" unicode="&#x15e;" horiz-adv-x="600" d="M570 202 C570 350 430 383 320 408 C243 426 187 440 187 485 C187 525 221 553 295 553 C342 553 394 539 446 510 C455 504 467 500 480 500 C515 500 545 530 545 566 C545 590 531 612 512 622 C448 659 381 677 305 677 C138 677 42 587 42 476 C42 327 182 297 291 272 C368 254 426 237 426 187 C426 149 388 112 310 112 C243 112 188 133 142 165 C131 173 118 177 104 177 C68 177 38 147 38 110 C38 87 50 67 68 55 C119 19 183 -4 261 -10 L246 -53 C245 -56 244 -60 244 -63 C244 -82 257 -96 275 -96 C283 -96 289 -93 293 -91 C299 -86 308 -83 317 -83 C336 -83 346 -93 346 -109 C346 -131 321 -142 294 -142 C274 -142 252 -136 231 -124 C226 -121 222 -120 217 -120 C202 -120 189 -133 189 -149 C189 -163 198 -171 206 -175 C228 -186 261 -196 298 -196 C358 -196 409 -164 409 -111 C409 -69 379 -41 342 -41 C329 -41 316 -44 306 -51 L323 -12 C489 -5 570 84 570 202 L570 202 Z " />
<glyph glyph-name="uni015F" unicode="&#x15f;" horiz-adv-x="477" d="M446 143 C446 263 335 285 252 301 C198 312 160 323 160 353 C160 381 190 398 236 398 C277 398 315 386 346 367 C352 363 362 361 370 361 C397 361 419 383 419 410 C419 428 409 444 394 452 C350 479 297 495 235 495 C108 495 37 424 37 343 C37 228 144 208 227 192 C282 181 324 169 324 135 C324 105 298 86 243 86 C199 86 151 103 112 127 C104 131 95 134 85 134 C56 134 32 110 32 81 C32 62 43 44 59 35 C101 10 149 -6 201 -10 L186 -53 C185 -56 184 -60 184 -63 C184 -82 197 -96 215 -96 C223 -96 229 -93 233 -91 C239 -86 248 -83 257 -83 C276 -83 286 -93 286 -109 C286 -131 261 -142 234 -142 C214 -142 192 -136 171 -124 C166 -121 162 -120 157 -120 C142 -120 129 -133 129 -149 C129 -163 138 -171 146 -175 C168 -186 201 -196 238 -196 C298 -196 349 -164 349 -111 C349 -69 319 -41 282 -41 C269 -41 256 -44 246 -51 L263 -11 C381 -3 446 60 446 143 L446 143 Z " />
<glyph glyph-name="Scaron" unicode="&#x160;" horiz-adv-x="600" d="M385 873 C375 873 366 869 359 862 L293 778 L226 862 C219 869 210 873 200 873 C182 873 167 859 167 839 C167 833 168 827 171 823 L220 747 C232 729 254 717 276 717 L310 717 C331 717 353 729 366 747 L414 823 C417 827 418 833 418 839 C418 859 403 873 385 873 L385 873 Z M68 55 C128 13 205 -12 303 -12 C483 -12 570 80 570 202 C570 350 430 383 320 408 C243 426 187 440 187 485 C187 525 221 553 295 553 C342 553 394 539 446 510 C455 504 467 500 480 500 C515 500 545 530 545 566 C545 590 531 612 512 622 C448 659 381 677 305 677 C138 677 42 587 42 476 C42 327 182 297 291 272 C368 254 426 237 426 187 C426 149 388 112 310 112 C243 112 188 133 142 165 C131 173 118 177 104 177 C68 177 38 147 38 110 C38 87 50 67 68 55 L68 55 Z " />
<glyph glyph-name="scaron" unicode="&#x161;" horiz-adv-x="477" d="M325 726 C315 726 306 722 299 715 L233 631 L166 715 C159 722 150 726 140 726 C122 726 107 712 107 692 C107 686 108 680 111 676 L160 600 C172 582 194 570 216 570 L250 570 C271 570 293 582 306 600 L354 676 C357 680 358 686 358 692 C358 712 343 726 325 726 L325 726 Z M59 35 C110 4 172 -12 237 -12 C371 -12 446 54 446 143 C446 263 335 285 252 301 C198 312 160 323 160 353 C160 381 190 398 236 398 C277 398 315 386 346 367 C352 363 362 361 370 361 C397 361 419 383 419 410 C419 428 409 444 394 452 C350 479 297 495 235 495 C108 495 37 424 37 343 C37 228 144 208 227 192 C282 181 324 169 324 135 C324 105 298 86 243 86 C199 86 151 103 112 127 C104 131 95 134 85 134 C56 134 32 110 32 81 C32 62 43 44 59 35 L59 35 Z " />
<glyph glyph-name="uni0162" unicode="&#x162;" horiz-adv-x="582" d="M292 -7 C331 -7 363 26 363 64 L363 542 L502 542 C536 542 565 570 565 604 C565 639 536 667 502 667 L81 667 C47 667 18 639 18 604 C18 570 47 542 81 542 L220 542 L220 64 C220 26 252 -7 292 -7 L292 -7 Z M274 -286 C281 -286 287 -282 291 -279 C334 -244 363 -194 363 -138 C363 -86 329 -57 292 -57 C258 -57 231 -85 231 -119 C231 -153 254 -176 284 -176 C290 -176 297 -175 299 -174 C294 -194 278 -219 259 -236 C252 -243 247 -250 247 -259 C247 -274 259 -286 274 -286 L274 -286 Z " />
<glyph glyph-name="uni0163" unicode="&#x163;" horiz-adv-x="338" d="M280 103 C274 103 268 101 259 101 C231 101 216 124 216 154 L216 372 L266 372 C296 372 321 397 321 427 C321 458 296 483 266 483 L216 483 L216 558 C216 593 187 622 153 622 C117 622 88 593 88 558 L88 483 L57 483 C26 483 1 458 1 427 C1 397 26 372 57 372 L88 372 L88 120 C88 34 136 -12 225 -12 C252 -12 274 -8 291 -2 C313 5 329 23 329 48 C329 78 310 101 280 103 L280 103 Z M169 -57 C135 -57 108 -85 108 -119 C108 -153 131 -176 161 -176 C167 -176 174 -175 176 -174 C171 -194 155 -219 136 -236 C129 -243 124 -250 124 -259 C124 -274 136 -286 151 -286 C158 -286 164 -282 168 -279 C211 -244 240 -194 240 -138 C240 -86 206 -57 169 -57 L169 -57 Z " />
<glyph glyph-name="Tcaron" unicode="&#x164;" horiz-adv-x="582" d="M382 873 C372 873 363 869 356 862 L290 778 L223 862 C216 869 207 873 197 873 C179 873 164 859 164 839 C164 833 165 827 168 823 L217 747 C229 729 251 717 273 717 L307 717 C328 717 350 729 363 747 L411 823 C414 827 415 833 415 839 C415 859 400 873 382 873 L382 873 Z M292 -7 C331 -7 363 26 363 64 L363 542 L502 542 C536 542 565 570 565 604 C565 639 536 667 502 667 L81 667 C47 667 18 639 18 604 C18 570 47 542 81 542 L220 542 L220 64 C220 26 252 -7 292 -7 L292 -7 Z " />
<glyph glyph-name="tcaron" unicode="&#x165;" horiz-adv-x="380" d="M331 764 C297 764 270 736 270 702 C270 668 293 645 323 645 C329 645 336 646 338 647 C333 627 317 602 298 585 C291 578 286 571 286 562 C286 547 298 535 313 535 C320 535 326 539 330 542 C373 577 402 627 402 683 C402 735 368 764 331 764 L331 764 Z M280 103 C274 103 268 101 259 101 C231 101 216 124 216 154 L216 372 L266 372 C296 372 321 397 321 427 C321 458 296 483 266 483 L216 483 L216 558 C216 593 187 622 153 622 C117 622 88 593 88 558 L88 483 L57 483 C26 483 1 458 1 427 C1 397 26 372 57 372 L88 372 L88 120 C88 34 136 -12 225 -12 C252 -12 274 -8 291 -2 C313 5 329 23 329 48 C329 78 310 101 280 103 L280 103 Z " />
<glyph glyph-name="Tbar" unicode="&#x166;" horiz-adv-x="582" d="M502 542 C536 542 565 570 565 604 C565 639 536 667 502 667 L81 667 C47 667 18 639 18 604 C18 570 47 542 81 542 L220 542 L220 335 L116 335 C96 335 79 319 79 299 C79 279 96 263 116 263 L220 263 L220 64 C220 26 252 -7 292 -7 C331 -7 363 26 363 64 L363 263 L468 263 C488 263 504 279 504 299 C504 319 488 335 468 335 L363 335 L363 542 L502 542 Z " />
<glyph glyph-name="tbar" unicode="&#x167;" horiz-adv-x="338" d="M280 103 C274 103 268 101 259 101 C231 101 216 124 216 154 L216 209 L256 209 C276 209 292 225 292 245 C292 265 276 281 256 281 L216 281 L216 372 L266 372 C296 372 321 397 321 427 C321 458 296 483 266 483 L216 483 L216 558 C216 593 187 622 153 622 C117 622 88 593 88 558 L88 483 L57 483 C26 483 1 458 1 427 C1 397 26 372 57 372 L88 372 L88 281 L37 281 C17 281 1 265 1 245 C1 225 17 209 37 209 L88 209 L88 120 C88 34 136 -12 225 -12 C252 -12 274 -8 291 -2 C313 5 329 23 329 48 C329 78 310 101 280 103 L280 103 Z " />
<glyph glyph-name="Utilde" unicode="&#x168;" horiz-adv-x="728" d="M422 721 C481 721 517 756 526 824 C529 845 513 862 493 862 C477 862 463 851 460 836 C455 806 442 794 426 794 C410 794 399 806 385 820 C368 839 348 861 310 861 C250 861 214 825 205 758 C202 739 217 720 238 720 C254 720 267 731 271 746 C275 777 290 789 305 789 C321 789 332 776 345 762 C362 743 383 721 422 721 L422 721 Z M66 266 C66 102 161 -12 365 -12 C567 -12 662 101 662 267 L662 602 C662 642 630 674 590 674 C550 674 518 642 518 602 L518 271 C518 178 467 114 365 114 C261 114 210 178 210 271 L210 602 C210 642 178 674 138 674 C98 674 66 642 66 602 L66 266 Z " />
<glyph glyph-name="utilde" unicode="&#x169;" horiz-adv-x="579" d="M162 573 C178 573 191 584 195 599 C199 630 214 642 229 642 C245 642 256 629 269 615 C286 596 307 574 346 574 C405 574 441 609 450 677 C453 698 437 715 417 715 C401 715 387 704 384 689 C379 659 366 647 350 647 C334 647 323 659 309 673 C292 692 272 714 234 714 C174 714 138 678 129 611 C126 592 141 573 162 573 L162 573 Z M452 490 C417 490 389 461 389 426 L389 156 C367 128 328 101 279 101 C225 101 190 123 190 190 L190 426 C190 461 161 490 127 490 C91 490 63 461 63 426 L63 140 C63 46 113 -12 219 -12 C298 -12 355 24 388 60 L388 57 C388 21 417 -8 453 -8 C488 -8 516 21 516 57 L516 426 C516 461 487 490 452 490 L452 490 Z " />
<glyph glyph-name="Umacron" unicode="&#x16a;" horiz-adv-x="728" d="M227 729 L502 729 C522 729 538 745 538 765 C538 785 522 801 502 801 L227 801 C207 801 191 785 191 765 C191 745 207 729 227 729 L227 729 Z M66 266 C66 102 161 -12 365 -12 C567 -12 662 101 662 267 L662 602 C662 642 630 674 590 674 C550 674 518 642 518 602 L518 271 C518 178 467 114 365 114 C261 114 210 178 210 271 L210 602 C210 642 178 674 138 674 C98 674 66 642 66 602 L66 266 Z " />
<glyph glyph-name="umacron" unicode="&#x16b;" horiz-adv-x="579" d="M151 582 L426 582 C446 582 462 598 462 618 C462 638 446 654 426 654 L151 654 C131 654 115 638 115 618 C115 598 131 582 151 582 L151 582 Z M452 490 C417 490 389 461 389 426 L389 156 C367 128 328 101 279 101 C225 101 190 123 190 190 L190 426 C190 461 161 490 127 490 C91 490 63 461 63 426 L63 140 C63 46 113 -12 219 -12 C298 -12 355 24 388 60 L388 57 C388 21 417 -8 453 -8 C488 -8 516 21 516 57 L516 426 C516 461 487 490 452 490 L452 490 Z " />
<glyph glyph-name="Ubreve" unicode="&#x16c;" horiz-adv-x="728" d="M365 720 C424 720 476 742 518 783 C524 790 529 799 529 809 C529 829 513 846 493 846 C483 846 473 841 467 835 C439 807 405 792 365 792 C324 792 290 808 262 836 C256 842 246 846 236 846 C216 846 200 829 200 809 C200 799 205 789 212 783 C254 742 307 720 365 720 L365 720 Z M66 266 C66 102 161 -12 365 -12 C567 -12 662 101 662 267 L662 602 C662 642 630 674 590 674 C550 674 518 642 518 602 L518 271 C518 178 467 114 365 114 C261 114 210 178 210 271 L210 602 C210 642 178 674 138 674 C98 674 66 642 66 602 L66 266 Z " />
<glyph glyph-name="ubreve" unicode="&#x16d;" horiz-adv-x="579" d="M136 636 C178 595 231 573 289 573 C348 573 400 595 442 636 C448 643 453 652 453 662 C453 682 437 699 417 699 C407 699 397 694 391 688 C363 660 329 645 289 645 C248 645 214 661 186 689 C180 695 170 699 160 699 C140 699 124 682 124 662 C124 652 129 642 136 636 L136 636 Z M452 490 C417 490 389 461 389 426 L389 156 C367 128 328 101 279 101 C225 101 190 123 190 190 L190 426 C190 461 161 490 127 490 C91 490 63 461 63 426 L63 140 C63 46 113 -12 219 -12 C298 -12 355 24 388 60 L388 57 C388 21 417 -8 453 -8 C488 -8 516 21 516 57 L516 426 C516 461 487 490 452 490 L452 490 Z " />
<glyph glyph-name="Uring" unicode="&#x16e;" horiz-adv-x="728" d="M261 803 C261 745 309 698 366 698 C424 698 470 745 470 803 C470 860 424 909 366 909 C309 909 261 860 261 803 L261 803 Z M412 803 C412 778 392 756 366 756 C341 756 319 778 319 803 C319 829 341 850 366 850 C392 850 412 829 412 803 L412 803 Z M66 266 C66 102 161 -12 365 -12 C567 -12 662 101 662 267 L662 602 C662 642 630 674 590 674 C550 674 518 642 518 602 L518 271 C518 178 467 114 365 114 C261 114 210 178 210 271 L210 602 C210 642 178 674 138 674 C98 674 66 642 66 602 L66 266 Z " />
<glyph glyph-name="uring" unicode="&#x16f;" horiz-adv-x="579" d="M290 551 C348 551 394 598 394 656 C394 713 348 762 290 762 C233 762 185 713 185 656 C185 598 233 551 290 551 L290 551 Z M290 703 C316 703 336 682 336 656 C336 631 316 609 290 609 C265 609 243 631 243 656 C243 682 265 703 290 703 L290 703 Z M452 490 C417 490 389 461 389 426 L389 156 C367 128 328 101 279 101 C225 101 190 123 190 190 L190 426 C190 461 161 490 127 490 C91 490 63 461 63 426 L63 140 C63 46 113 -12 219 -12 C298 -12 355 24 388 60 L388 57 C388 21 417 -8 453 -8 C488 -8 516 21 516 57 L516 426 C516 461 487 490 452 490 L452 490 Z " />
<glyph glyph-name="Uhungarumlaut" unicode="&#x170;" horiz-adv-x="728" d="M304 716 C314 716 323 720 329 728 L395 810 C400 817 403 825 403 834 C403 856 385 874 364 874 C351 874 338 867 331 855 L276 765 C273 760 271 754 271 748 C271 730 287 716 304 716 L304 716 Z M453 716 C463 716 472 720 478 728 L544 810 C549 817 552 825 552 834 C552 856 534 874 513 874 C500 874 487 867 480 855 L425 765 C422 760 420 754 420 748 C420 730 436 716 453 716 L453 716 Z M66 266 C66 102 161 -12 365 -12 C567 -12 662 101 662 267 L662 602 C662 642 630 674 590 674 C550 674 518 642 518 602 L518 271 C518 178 467 114 365 114 C261 114 210 178 210 271 L210 602 C210 642 178 674 138 674 C98 674 66 642 66 602 L66 266 Z " />
<glyph glyph-name="uhungarumlaut" unicode="&#x171;" horiz-adv-x="579" d="M228 569 C238 569 247 573 253 581 L319 663 C324 670 327 678 327 687 C327 709 309 727 288 727 C275 727 262 720 255 708 L200 618 C197 613 195 607 195 601 C195 583 211 569 228 569 L228 569 Z M377 569 C387 569 396 573 402 581 L468 663 C473 670 476 678 476 687 C476 709 458 727 437 727 C424 727 411 720 404 708 L349 618 C346 613 344 607 344 601 C344 583 360 569 377 569 L377 569 Z M452 490 C417 490 389 461 389 426 L389 156 C367 128 328 101 279 101 C225 101 190 123 190 190 L190 426 C190 461 161 490 127 490 C91 490 63 461 63 426 L63 140 C63 46 113 -12 219 -12 C298 -12 355 24 388 60 L388 57 C388 21 417 -8 453 -8 C488 -8 516 21 516 57 L516 426 C516 461 487 490 452 490 L452 490 Z " />
<glyph glyph-name="Uogonek" unicode="&#x172;" horiz-adv-x="728" d="M365 -12 L368 -12 C318 -33 283 -66 283 -106 C283 -163 342 -186 397 -186 C417 -186 436 -184 453 -180 C469 -176 482 -162 482 -144 C482 -122 461 -103 440 -106 C437 -107 434 -107 432 -107 C414 -107 398 -96 398 -76 C398 -45 428 -16 498 9 C606 47 662 138 662 267 L662 602 C662 642 630 674 590 674 C550 674 518 642 518 602 L518 271 C518 178 467 114 365 114 C261 114 210 178 210 271 L210 602 C210 642 178 674 138 674 C98 674 66 642 66 602 L66 266 C66 102 161 -12 365 -12 L365 -12 Z " />
<glyph glyph-name="uogonek" unicode="&#x173;" horiz-adv-x="579" d="M473 -5 C498 4 516 28 516 57 L516 426 C516 461 487 490 452 490 C417 490 389 461 389 426 L389 156 C367 128 328 101 279 101 C225 101 190 123 190 190 L190 426 C190 461 161 490 127 490 C91 490 63 461 63 426 L63 140 C63 46 113 -12 219 -12 C298 -12 355 24 388 60 L388 57 C388 31 403 9 424 -1 C364 -21 314 -57 314 -106 C314 -163 372 -186 427 -186 C451 -186 471 -184 489 -179 C498 -176 515 -164 515 -143 C515 -121 498 -105 477 -105 C472 -105 469 -107 462 -107 C444 -107 428 -96 428 -76 C428 -51 441 -33 473 -5 L473 -5 Z " />
<glyph glyph-name="Wcircumflex" unicode="&#x174;" horiz-adv-x="918" d="M526 729 C533 721 542 717 552 717 C570 717 585 731 585 751 C585 757 584 763 581 768 L533 843 C520 861 498 873 477 873 L443 873 C421 873 399 861 387 843 L338 768 C335 763 334 757 334 751 C334 731 349 717 367 717 C377 717 386 721 393 729 L460 812 L526 729 Z M652 -7 C697 -7 734 23 745 62 L892 577 C893 584 894 592 894 599 C894 640 861 674 819 674 C783 674 753 649 745 616 L641 185 L526 623 C518 653 492 674 460 674 C427 674 400 653 392 623 L277 185 L172 616 C164 649 134 674 99 674 C57 674 24 641 24 599 C24 592 25 584 26 578 L174 62 C185 23 222 -7 266 -7 C311 -7 349 24 359 66 L459 458 L560 66 C570 24 607 -7 652 -7 L652 -7 Z " />
<glyph glyph-name="wcircumflex" unicode="&#x175;" horiz-adv-x="769" d="M452 568 C459 560 468 556 478 556 C496 556 511 570 511 590 C511 596 510 602 507 607 L459 682 C446 700 424 712 403 712 L369 712 C347 712 325 700 313 682 L264 607 C261 602 260 596 260 590 C260 570 275 556 293 556 C303 556 312 560 319 568 L386 651 L452 568 Z M555 -7 C594 -7 629 19 639 56 L747 410 C748 415 750 422 750 427 C750 462 722 490 688 490 C658 490 634 470 627 444 L547 158 L455 439 C446 469 418 490 385 490 C352 490 323 469 314 439 L222 158 L142 444 C135 471 111 490 82 490 C47 490 20 462 20 428 C20 422 21 415 22 410 L130 56 C141 19 175 -7 215 -7 C255 -7 289 19 299 56 L385 329 L470 56 C480 19 515 -7 555 -7 L555 -7 Z " />
<glyph glyph-name="Ycircumflex" unicode="&#x176;" horiz-adv-x="644" d="M231 717 C241 717 250 721 257 729 L324 812 L390 729 C397 721 406 717 416 717 C434 717 449 731 449 751 C449 757 448 763 445 768 L397 843 C384 861 362 873 341 873 L307 873 C285 873 263 861 251 843 L202 768 C199 763 198 757 198 751 C198 731 213 717 231 717 L231 717 Z M608 605 C608 644 577 674 539 674 C517 674 496 663 483 644 L323 398 L161 644 C148 664 127 674 105 674 C67 674 36 644 36 605 C36 591 40 577 50 564 L251 273 L251 64 C251 26 283 -7 323 -7 C362 -7 394 26 394 64 L394 275 L594 564 C604 577 608 591 608 605 L608 605 Z " />
<glyph glyph-name="ycircumflex" unicode="&#x177;" horiz-adv-x="510" d="M320 582 C327 574 336 570 346 570 C364 570 379 584 379 604 C379 610 378 616 375 621 L327 696 C314 714 292 726 271 726 L237 726 C215 726 193 714 181 696 L132 621 C129 616 128 610 128 604 C128 584 143 570 161 570 C171 570 180 574 187 582 L254 665 L320 582 Z M43 -138 C43 -169 66 -194 100 -195 C105 -196 110 -196 114 -196 C186 -195 253 -169 289 -79 L485 403 C488 410 490 419 490 427 C490 462 463 490 427 490 C401 490 377 475 368 451 L253 143 L137 451 C129 475 105 490 79 490 C44 490 17 462 17 427 C17 419 18 411 21 404 L187 -7 L169 -48 C157 -74 136 -82 103 -83 C101 -83 99 -84 97 -84 C68 -85 43 -107 43 -138 L43 -138 Z " />
<glyph glyph-name="Ydieresis" unicode="&#x178;" horiz-adv-x="644" d="M218 721 C255 721 285 750 285 789 C285 826 255 856 218 856 C180 856 150 826 150 789 C150 750 180 721 218 721 L218 721 Z M429 721 C466 721 497 750 497 789 C497 826 466 856 429 856 C392 856 361 826 361 789 C361 750 392 721 429 721 L429 721 Z M608 605 C608 644 577 674 539 674 C517 674 496 663 483 644 L323 398 L161 644 C148 664 127 674 105 674 C67 674 36 644 36 605 C36 591 40 577 50 564 L251 273 L251 64 C251 26 283 -7 323 -7 C362 -7 394 26 394 64 L394 275 L594 564 C604 577 608 591 608 605 L608 605 Z " />
<glyph glyph-name="Zacute" unicode="&#x179;" horiz-adv-x="592" d="M326 723 L424 810 C433 818 437 827 437 838 C437 860 419 878 399 878 C387 878 377 873 370 865 L279 768 C275 762 271 754 271 746 C271 728 286 714 304 714 C312 714 321 717 326 723 L326 723 Z M113 0 L494 0 C528 0 557 28 557 63 C557 97 528 125 494 125 L228 125 L535 542 C544 554 550 571 550 588 C550 632 515 667 471 667 L97 667 C63 667 34 639 34 604 C34 570 63 542 97 542 L357 542 L50 126 C40 113 34 97 34 79 C34 35 70 0 113 0 L113 0 Z " />
<glyph glyph-name="zacute" unicode="&#x17a;" horiz-adv-x="479" d="M269 576 L367 663 C376 671 380 680 380 691 C380 713 362 731 342 731 C330 731 320 726 313 718 L222 621 C218 615 214 607 214 599 C214 581 229 567 247 567 C255 567 264 570 269 576 L269 576 Z M98 0 L388 0 C418 0 443 25 443 56 C443 86 418 111 388 111 L211 111 L426 384 C434 393 439 407 439 422 C439 456 412 483 378 483 L91 483 C60 483 35 458 35 427 C35 397 60 372 91 372 L260 372 L49 104 C40 93 35 79 35 63 C35 28 63 0 98 0 L98 0 Z " />
<glyph glyph-name="Zdotaccent" unicode="&#x17b;" horiz-adv-x="592" d="M229 788 C229 750 260 720 297 720 C334 720 364 750 364 788 C364 825 334 856 297 856 C260 856 229 825 229 788 L229 788 Z M113 0 L494 0 C528 0 557 28 557 63 C557 97 528 125 494 125 L228 125 L535 542 C544 554 550 571 550 588 C550 632 515 667 471 667 L97 667 C63 667 34 639 34 604 C34 570 63 542 97 542 L357 542 L50 126 C40 113 34 97 34 79 C34 35 70 0 113 0 L113 0 Z " />
<glyph glyph-name="zdotaccent" unicode="&#x17c;" horiz-adv-x="479" d="M172 641 C172 603 203 573 240 573 C277 573 307 603 307 641 C307 678 277 709 240 709 C203 709 172 678 172 641 L172 641 Z M98 0 L388 0 C418 0 443 25 443 56 C443 86 418 111 388 111 L211 111 L426 384 C434 393 439 407 439 422 C439 456 412 483 378 483 L91 483 C60 483 35 458 35 427 C35 397 60 372 91 372 L260 372 L49 104 C40 93 35 79 35 63 C35 28 63 0 98 0 L98 0 Z " />
<glyph glyph-name="Zcaron" unicode="&#x17d;" horiz-adv-x="592" d="M387 873 C377 873 368 869 361 862 L295 778 L228 862 C221 869 212 873 202 873 C184 873 169 859 169 839 C169 833 170 827 173 823 L222 747 C234 729 256 717 278 717 L312 717 C333 717 355 729 368 747 L416 823 C419 827 420 833 420 839 C420 859 405 873 387 873 L387 873 Z M113 0 L494 0 C528 0 557 28 557 63 C557 97 528 125 494 125 L228 125 L535 542 C544 554 550 571 550 588 C550 632 515 667 471 667 L97 667 C63 667 34 639 34 604 C34 570 63 542 97 542 L357 542 L50 126 C40 113 34 97 34 79 C34 35 70 0 113 0 L113 0 Z " />
<glyph glyph-name="zcaron" unicode="&#x17e;" horiz-adv-x="479" d="M330 726 C320 726 311 722 304 715 L238 631 L171 715 C164 722 155 726 145 726 C127 726 112 712 112 692 C112 686 113 680 116 676 L165 600 C177 582 199 570 221 570 L255 570 C276 570 298 582 311 600 L359 676 C362 680 363 686 363 692 C363 712 348 726 330 726 L330 726 Z M98 0 L388 0 C418 0 443 25 443 56 C443 86 418 111 388 111 L211 111 L426 384 C434 393 439 407 439 422 C439 456 412 483 378 483 L91 483 C60 483 35 458 35 427 C35 397 60 372 91 372 L260 372 L49 104 C40 93 35 79 35 63 C35 28 63 0 98 0 L98 0 Z " />
<glyph glyph-name="longs" unicode="&#x17f;" horiz-adv-x="327" d="M305 671 C289 675 272 677 254 677 C159 677 91 614 91 509 L91 483 L60 483 C29 483 4 458 4 427 C4 397 29 372 60 372 L91 372 L91 57 C91 22 120 -7 155 -7 C190 -7 219 22 219 57 L219 507 C219 553 243 577 279 577 C283 577 290 576 295 576 C325 575 344 597 344 624 C344 648 327 666 305 671 L305 671 Z " />
<glyph glyph-name="uni018F" unicode="&#x18f;" horiz-adv-x="744" d="M355 678 C256 678 183 643 129 591 C117 579 109 562 109 543 C109 506 138 476 175 476 C193 476 210 484 222 496 C256 530 302 552 355 552 C461 552 542 480 560 377 L104 377 C54 377 24 348 30 298 C56 102 182 -13 371 -13 C554 -13 710 123 710 333 C710 544 550 678 355 678 L355 678 Z M360 113 C262 113 197 176 182 258 L552 258 C527 171 455 113 360 113 L360 113 Z " />
<glyph glyph-name="uni0192" unicode="&#x192;" horiz-adv-x="454" d="M421 666 C401 674 379 677 355 677 C257 677 173 610 152 508 L118 350 L91 350 C61 350 35 325 35 295 C35 264 61 238 91 238 L94 238 L26 -80 C24 -85 23 -92 23 -97 C23 -136 54 -168 94 -168 C128 -168 156 -144 163 -112 L241 238 L330 238 C361 238 386 264 386 294 C386 325 361 350 330 350 L266 350 L296 485 C306 528 336 552 372 552 C377 552 383 551 389 550 C393 549 397 548 401 548 C436 548 464 575 464 610 C464 637 445 658 421 666 L421 666 Z " />
<glyph glyph-name="uni019D" unicode="&#x19d;" horiz-adv-x="729" d="M521 603 L521 235 L235 635 C218 659 190 674 159 674 C107 674 66 632 66 581 L66 34 C66 -30 26 -72 -35 -73 L-37 -73 C-67 -73 -92 -104 -92 -136 C-92 -170 -64 -196 -29 -196 L-27 -196 C110 -196 208 -123 208 35 L208 448 L505 30 C521 7 547 -7 576 -7 C624 -7 663 32 663 80 L663 603 C663 642 631 674 592 674 C552 674 521 642 521 603 L521 603 Z " />
<glyph glyph-name="Ohorn" unicode="&#x1a0;" horiz-adv-x="765" d="M742 666 C742 713 712 739 679 739 C649 739 624 714 624 683 C624 653 645 632 672 632 C677 632 684 633 686 634 C681 613 662 587 642 571 C580 638 488 678 382 678 C181 678 34 534 34 333 C34 132 181 -12 382 -12 C584 -12 731 132 731 333 C731 409 710 478 672 533 C714 565 742 613 742 666 L742 666 Z M382 114 C259 114 180 209 180 333 C180 458 259 552 382 552 C505 552 585 458 585 333 C585 209 505 114 382 114 L382 114 Z " />
<glyph glyph-name="ohorn" unicode="&#x1a1;" horiz-adv-x="574" d="M552 532 C552 579 522 606 489 606 C458 606 434 580 434 550 C434 519 455 499 482 499 C487 499 493 500 496 501 C491 480 474 455 454 439 C412 474 355 495 287 495 C128 495 32 379 32 242 C32 104 128 -12 287 -12 C447 -12 543 104 543 242 C543 303 524 360 488 405 C527 436 552 483 552 532 L552 532 Z M287 101 C208 101 164 166 164 242 C164 317 208 382 287 382 C366 382 411 317 411 242 C411 166 366 101 287 101 L287 101 Z " />
<glyph glyph-name="Uhorn" unicode="&#x1af;" horiz-adv-x="728" d="M772 726 C772 773 742 800 709 800 C678 800 654 775 654 744 C654 714 674 693 702 693 C707 693 713 694 716 696 C711 668 686 638 659 622 C650 652 623 674 590 674 C550 674 518 642 518 602 L518 271 C518 178 467 114 365 114 C261 114 210 178 210 271 L210 602 C210 642 178 674 138 674 C98 674 66 642 66 602 L66 266 C66 102 161 -12 365 -12 C567 -12 662 101 662 267 L662 571 C734 604 772 667 772 726 L772 726 Z " />
<glyph glyph-name="uhorn" unicode="&#x1b0;" horiz-adv-x="579" d="M598 545 C598 592 569 619 535 619 C504 619 480 593 480 563 C480 532 500 512 528 512 C533 512 540 513 542 514 C538 495 525 474 507 458 C496 477 475 490 452 490 C417 490 389 461 389 426 L389 156 C367 128 328 101 279 101 C225 101 190 123 190 190 L190 426 C190 461 161 490 127 490 C91 490 63 461 63 426 L63 140 C63 46 113 -12 219 -12 C298 -12 355 24 388 60 L388 57 C388 21 417 -8 453 -8 C488 -8 516 21 516 57 L516 405 C570 441 598 495 598 545 L598 545 Z " />
<glyph glyph-name="Gcaron" unicode="&#x1e6;" horiz-adv-x="720" d="M314 747 C326 729 348 717 370 717 L404 717 C425 717 447 729 460 747 L508 823 C511 827 512 833 512 839 C512 859 497 873 479 873 C469 873 460 869 453 862 L387 778 L320 862 C313 869 304 873 294 873 C276 873 261 859 261 839 C261 833 262 827 265 823 L314 747 Z M605 369 L409 369 C375 369 347 340 347 306 C347 272 375 245 409 245 L531 245 L531 165 C504 140 453 114 389 114 C268 114 180 207 180 333 C180 459 268 552 389 552 C442 552 487 530 521 497 C533 485 550 478 567 478 C604 478 633 508 633 544 C633 564 625 582 612 594 C558 644 487 678 389 678 C194 678 34 544 34 333 C34 123 194 -13 389 -13 C489 -13 570 21 634 75 C664 100 673 129 673 167 L673 300 C673 341 646 369 605 369 L605 369 Z " />
<glyph glyph-name="gcaron" unicode="&#x1e7;" horiz-adv-x="585" d="M220 600 C232 582 254 570 276 570 L310 570 C331 570 353 582 366 600 L414 676 C417 680 418 686 418 692 C418 712 403 726 385 726 C375 726 366 722 359 715 L293 631 L226 715 C219 722 210 726 200 726 C182 726 167 712 167 692 C167 686 168 680 171 676 L220 600 Z M459 490 C424 490 394 463 394 429 L394 421 C354 471 302 495 245 495 C123 495 32 407 32 249 C32 88 124 3 245 3 C304 3 355 30 394 78 L394 30 C394 -65 322 -92 261 -92 C218 -92 179 -83 145 -61 C137 -56 127 -53 118 -53 C89 -53 65 -77 65 -106 C65 -125 76 -142 91 -151 C143 -184 196 -196 261 -196 C380 -196 522 -151 522 33 L522 426 C522 461 493 490 459 490 L459 490 Z M285 116 C213 116 163 166 163 249 C163 332 213 382 285 382 C327 382 373 359 394 327 L394 171 C373 140 327 116 285 116 L285 116 Z " />
<glyph glyph-name="uni01EA" unicode="&#x1ea;" horiz-adv-x="765" d="M427 -10 C605 10 731 147 731 333 C731 534 584 678 382 678 C181 678 34 534 34 333 C34 141 169 0 356 -11 C309 -32 273 -64 273 -106 C273 -163 331 -186 386 -186 C410 -186 430 -184 448 -179 C457 -176 474 -164 474 -143 C474 -121 457 -105 436 -105 C431 -105 428 -107 421 -107 C403 -107 387 -96 387 -76 C387 -53 399 -35 427 -10 L427 -10 Z M180 333 C180 458 259 552 382 552 C505 552 585 458 585 333 C585 209 505 114 382 114 C259 114 180 209 180 333 L180 333 Z " />
<glyph glyph-name="uni01EB" unicode="&#x1eb;" horiz-adv-x="574" d="M319 -10 C460 4 543 113 543 242 C543 379 447 495 287 495 C128 495 32 379 32 242 C32 114 114 6 252 -10 C203 -31 166 -64 166 -106 C166 -163 224 -186 279 -186 C303 -186 323 -184 341 -179 C350 -176 367 -164 367 -143 C367 -121 350 -105 329 -105 C324 -105 321 -107 314 -107 C296 -107 280 -96 280 -76 C280 -53 291 -35 319 -10 L319 -10 Z M164 242 C164 317 208 382 287 382 C366 382 411 317 411 242 C411 166 366 101 287 101 C208 101 164 166 164 242 L164 242 Z " />
<glyph glyph-name="Aringacute" unicode="&#x1fa;" horiz-adv-x="678" d="M346 926 C354 926 363 929 368 935 L466 1022 C475 1030 479 1039 479 1050 C479 1072 461 1090 441 1090 C429 1090 419 1085 412 1077 L321 980 C317 974 313 966 313 958 C313 940 328 926 346 926 L346 926 Z M340 698 C398 698 444 745 444 803 C444 860 398 909 340 909 C283 909 235 860 235 803 C235 745 283 698 340 698 L340 698 Z M340 850 C366 850 386 829 386 803 C386 778 366 756 340 756 C315 756 293 778 293 803 C293 829 315 850 340 850 L340 850 Z M650 90 L456 594 C438 641 392 674 339 674 C285 674 240 641 222 594 L27 90 C24 83 22 74 22 65 C22 25 54 -7 94 -7 C125 -7 153 13 162 41 L189 119 L489 119 L516 41 C525 13 552 -7 583 -7 C623 -7 656 25 656 65 C656 74 653 83 650 90 L650 90 Z M233 242 L339 544 L445 242 L233 242 Z " />
<glyph glyph-name="aringacute" unicode="&#x1fb;" horiz-adv-x="543" d="M278 779 C286 779 295 782 300 788 L398 875 C407 883 411 892 411 903 C411 925 393 943 373 943 C361 943 351 938 344 930 L253 833 C249 827 245 819 245 811 C245 793 260 779 278 779 L278 779 Z M272 551 C330 551 376 598 376 656 C376 713 330 762 272 762 C215 762 167 713 167 656 C167 598 215 551 272 551 L272 551 Z M272 703 C298 703 318 682 318 656 C318 631 298 609 272 609 C247 609 225 631 225 656 C225 682 247 703 272 703 L272 703 Z M269 495 C206 495 145 479 90 443 C77 435 67 419 67 401 C67 374 89 352 115 352 C124 352 133 355 140 359 C175 381 209 391 247 391 C311 391 353 359 353 310 L353 243 C321 282 264 302 200 302 C123 302 32 261 32 148 C32 40 123 -12 200 -12 C263 -12 320 12 352 50 C356 17 384 -7 416 -7 C452 -7 480 23 480 59 L480 312 C480 451 379 495 269 495 L269 495 Z M251 74 C201 74 160 100 160 145 C160 191 201 218 251 218 C292 218 332 204 353 176 L353 116 C332 88 292 74 251 74 L251 74 Z " />
<glyph glyph-name="AEacute" unicode="&#x1fc;" horiz-adv-x="962" d="M525 714 C533 714 542 717 547 723 L645 810 C654 818 658 827 658 838 C658 860 640 878 620 878 C608 878 598 873 591 865 L500 768 C496 762 492 754 492 746 C492 728 507 714 525 714 L525 714 Z M866 123 L591 123 L591 278 L859 278 C892 278 920 305 920 339 C920 372 892 400 859 400 L591 400 L591 545 L866 545 C899 545 927 572 927 605 C927 640 899 667 866 667 L450 667 C409 667 381 651 360 616 L41 93 C36 83 32 72 32 59 C32 22 62 -7 98 -7 C122 -7 145 7 155 26 L208 119 L448 119 L448 76 C448 27 475 0 524 0 L866 0 C899 0 927 28 927 62 C927 95 899 123 866 123 L866 123 Z M277 242 L448 545 L448 242 L277 242 Z " />
<glyph glyph-name="aeacute" unicode="&#x1fd;" horiz-adv-x="870" d="M466 576 L564 663 C573 671 577 680 577 691 C577 713 559 731 539 731 C527 731 517 726 510 718 L419 621 C415 615 411 607 411 599 C411 581 426 567 444 567 C452 567 461 570 466 576 L466 576 Z M500 201 L766 201 C814 201 841 219 841 261 C841 387 750 495 616 495 C525 495 476 458 441 412 C414 465 357 495 272 495 C209 495 146 479 91 443 C77 435 67 419 67 401 C67 374 89 351 116 351 C125 351 133 353 140 358 C178 381 217 391 257 391 C326 391 372 359 372 311 L372 246 C335 284 273 304 207 304 C113 304 32 252 32 146 C32 38 128 -12 234 -12 C320 -12 395 25 435 76 C479 13 543 -12 621 -12 C667 -12 719 1 766 28 C781 37 792 53 792 72 C792 100 770 123 742 123 C733 123 725 120 718 116 C691 100 659 92 630 92 C553 92 509 142 500 201 L500 201 Z M718 287 L498 287 C503 335 536 394 608 394 C686 394 716 333 718 287 L718 287 Z M372 175 L372 169 C372 131 320 88 256 88 C204 88 160 109 160 153 C160 196 204 218 259 218 C304 218 348 202 372 175 L372 175 Z " />
<glyph glyph-name="Oslashacute" unicode="&#x1fe;" horiz-adv-x="765" d="M389 714 C397 714 406 717 411 723 L509 810 C518 818 522 827 522 838 C522 860 504 878 484 878 C472 878 462 873 455 865 L364 768 C360 762 356 754 356 746 C356 728 371 714 389 714 L389 714 Z M621 591 L635 609 C640 615 643 625 643 634 C643 656 626 674 603 674 C590 674 578 668 571 658 L555 637 C505 663 446 678 382 678 C181 678 34 534 34 333 C34 232 71 145 134 84 L114 58 C109 52 106 42 106 33 C106 11 123 -7 146 -7 C159 -7 171 -1 178 9 L198 35 C250 5 313 -12 382 -12 C584 -12 731 132 731 333 C731 439 690 530 621 591 L621 591 Z M180 333 C180 458 259 552 382 552 C416 552 448 545 474 531 L220 197 C194 234 180 281 180 333 L180 333 Z M382 114 C343 114 308 124 279 141 L537 481 C568 442 585 391 585 333 C585 209 505 114 382 114 L382 114 Z " />
<glyph glyph-name="oslashacute" unicode="&#x1ff;" horiz-adv-x="574" d="M294 567 C302 567 311 570 316 576 L414 663 C423 671 427 680 427 691 C427 713 409 731 389 731 C377 731 367 726 360 718 L269 621 C265 615 261 607 261 599 C261 581 276 567 294 567 L294 567 Z M475 419 L493 440 C498 445 500 452 500 460 C500 477 487 490 470 490 C461 490 453 486 447 479 L429 457 C390 481 342 495 287 495 C128 495 32 379 32 242 C32 175 55 112 97 67 L76 42 C72 37 69 30 69 22 C69 6 82 -7 99 -7 C108 -7 115 -3 121 3 L142 28 C182 3 230 -12 287 -12 C447 -12 543 104 543 242 C543 310 519 373 475 419 L475 419 Z M164 242 C164 317 208 382 287 382 C311 382 333 376 350 365 L181 166 C170 188 164 214 164 242 L164 242 Z M287 101 C261 101 239 108 221 120 L392 321 C404 298 411 271 411 242 C411 166 366 101 287 101 L287 101 Z " />
<glyph glyph-name="uni0218" unicode="&#x218;" horiz-adv-x="600" d="M68 55 C128 13 205 -12 303 -12 C483 -12 570 80 570 202 C570 350 430 383 320 408 C243 426 187 440 187 485 C187 525 221 553 295 553 C342 553 394 539 446 510 C455 504 467 500 480 500 C515 500 545 530 545 566 C545 590 531 612 512 622 C448 659 381 677 305 677 C138 677 42 587 42 476 C42 327 182 297 291 272 C368 254 426 237 426 187 C426 149 388 112 310 112 C243 112 188 133 142 165 C131 173 118 177 104 177 C68 177 38 147 38 110 C38 87 50 67 68 55 L68 55 Z M277 -286 C284 -286 290 -282 294 -279 C337 -244 366 -194 366 -138 C366 -86 332 -57 295 -57 C261 -57 234 -85 234 -119 C234 -153 257 -176 287 -176 C293 -176 300 -175 302 -174 C297 -194 281 -219 262 -236 C255 -243 250 -250 250 -259 C250 -274 262 -286 277 -286 L277 -286 Z " />
<glyph glyph-name="uni0219" unicode="&#x219;" horiz-adv-x="477" d="M59 35 C110 4 172 -12 237 -12 C371 -12 446 54 446 143 C446 263 335 285 252 301 C198 312 160 323 160 353 C160 381 190 398 236 398 C277 398 315 386 346 367 C352 363 362 361 370 361 C397 361 419 383 419 410 C419 428 409 444 394 452 C350 479 297 495 235 495 C108 495 37 424 37 343 C37 228 144 208 227 192 C282 181 324 169 324 135 C324 105 298 86 243 86 C199 86 151 103 112 127 C104 131 95 134 85 134 C56 134 32 110 32 81 C32 62 43 44 59 35 L59 35 Z M217 -286 C224 -286 230 -282 234 -279 C277 -244 306 -194 306 -138 C306 -86 272 -57 235 -57 C201 -57 174 -85 174 -119 C174 -153 197 -176 227 -176 C233 -176 240 -175 242 -174 C237 -194 221 -219 202 -236 C195 -243 190 -250 190 -259 C190 -274 202 -286 217 -286 L217 -286 Z " />
<glyph glyph-name="uni021A" unicode="&#x21a;" horiz-adv-x="582" d="M292 -7 C331 -7 363 26 363 64 L363 542 L502 542 C536 542 565 570 565 604 C565 639 536 667 502 667 L81 667 C47 667 18 639 18 604 C18 570 47 542 81 542 L220 542 L220 64 C220 26 252 -7 292 -7 L292 -7 Z M274 -286 C281 -286 287 -282 291 -279 C334 -244 363 -194 363 -138 C363 -86 329 -57 292 -57 C258 -57 231 -85 231 -119 C231 -153 254 -176 284 -176 C290 -176 297 -175 299 -174 C294 -194 278 -219 259 -236 C252 -243 247 -250 247 -259 C247 -274 259 -286 274 -286 L274 -286 Z " />
<glyph glyph-name="uni021B" unicode="&#x21b;" horiz-adv-x="338" d="M280 103 C274 103 268 101 259 101 C231 101 216 124 216 154 L216 372 L266 372 C296 372 321 397 321 427 C321 458 296 483 266 483 L216 483 L216 558 C216 593 187 622 153 622 C117 622 88 593 88 558 L88 483 L57 483 C26 483 1 458 1 427 C1 397 26 372 57 372 L88 372 L88 120 C88 34 136 -12 225 -12 C252 -12 274 -8 291 -2 C313 5 329 23 329 48 C329 78 310 101 280 103 L280 103 Z M169 -57 C135 -57 108 -85 108 -119 C108 -153 131 -176 161 -176 C167 -176 174 -175 176 -174 C171 -194 155 -219 136 -236 C129 -243 124 -250 124 -259 C124 -274 136 -286 151 -286 C158 -286 164 -282 168 -279 C211 -244 240 -194 240 -138 C240 -86 206 -57 169 -57 L169 -57 Z " />
<glyph glyph-name="uni0232" unicode="&#x232;" horiz-adv-x="644" d="M185 729 L460 729 C480 729 496 745 496 765 C496 785 480 801 460 801 L185 801 C165 801 149 785 149 765 C149 745 165 729 185 729 L185 729 Z M608 605 C608 644 577 674 539 674 C517 674 496 663 483 644 L323 398 L161 644 C148 664 127 674 105 674 C67 674 36 644 36 605 C36 591 40 577 50 564 L251 273 L251 64 C251 26 283 -7 323 -7 C362 -7 394 26 394 64 L394 275 L594 564 C604 577 608 591 608 605 L608 605 Z " />
<glyph glyph-name="uni0233" unicode="&#x233;" horiz-adv-x="510" d="M115 582 L390 582 C410 582 426 598 426 618 C426 638 410 654 390 654 L115 654 C95 654 79 638 79 618 C79 598 95 582 115 582 L115 582 Z M43 -138 C43 -169 66 -194 100 -195 C105 -196 110 -196 114 -196 C186 -195 253 -169 289 -79 L485 403 C488 410 490 419 490 427 C490 462 463 490 427 490 C401 490 377 475 368 451 L253 143 L137 451 C129 475 105 490 79 490 C44 490 17 462 17 427 C17 419 18 411 21 404 L187 -7 L169 -48 C157 -74 136 -82 103 -83 C101 -83 99 -84 97 -84 C68 -85 43 -107 43 -138 L43 -138 Z " />
<glyph glyph-name="uni0237" unicode="&#x237;" horiz-adv-x="253" d="M23 -196 C134 -196 190 -122 190 -13 L190 426 C190 461 161 490 127 490 C91 490 63 461 63 426 L63 -13 C63 -67 36 -88 2 -90 L-2 -90 C-26 -91 -44 -115 -44 -140 C-44 -174 -18 -196 13 -196 L23 -196 Z " />
<glyph glyph-name="uni0259" unicode="&#x259;" horiz-adv-x="553" d="M521 241 C521 396 410 495 263 495 C207 495 151 482 104 455 C88 446 77 430 77 411 C77 384 100 361 127 361 C136 361 144 363 150 367 C182 384 220 394 249 394 C331 394 380 343 388 282 L104 282 C56 282 29 272 29 254 C29 96 127 -12 271 -12 C418 -12 521 101 521 241 L521 241 Z M271 89 C187 89 154 150 152 196 L390 196 C384 148 350 89 271 89 L271 89 Z " />
<glyph glyph-name="uni0272" unicode="&#x272;" horiz-adv-x="579" d="M359 495 C280 495 222 457 191 422 L191 426 C191 462 162 491 127 491 C91 491 62 462 62 426 L63 -13 C63 -66 37 -89 4 -90 L2 -90 C-24 -90 -44 -115 -44 -142 C-44 -174 -18 -195 9 -196 L18 -196 C134 -196 190 -122 190 -13 L190 325 C211 354 250 382 300 382 C354 382 389 359 389 292 L389 57 C389 22 418 -7 452 -7 C488 -7 516 22 516 57 L516 341 C516 435 465 495 359 495 L359 495 Z " />
<glyph glyph-name="uni02B0" unicode="&#x2b0;" horiz-adv-x="411" d="M314 319 C341 319 361 340 361 365 L361 545 C361 608 327 648 254 648 C200 648 162 623 142 600 L142 721 C142 746 121 767 96 767 C70 767 50 746 50 721 L50 365 C50 340 70 319 96 319 C122 319 142 340 142 365 L142 537 C156 553 180 570 211 570 C246 570 268 557 268 514 L268 365 C268 340 289 319 314 319 L314 319 Z " />
<glyph glyph-name="uni02BC" unicode="&#x2bc;" horiz-adv-x="255" d="M130 402 C183 449 215 509 215 575 C215 640 172 677 125 677 C83 677 47 641 47 597 C47 555 77 525 115 525 C122 525 131 527 134 529 C129 504 108 475 84 453 C77 446 73 438 73 427 C73 408 88 393 107 393 C116 393 124 397 130 402 L130 402 Z " />
<glyph glyph-name="circumflex" unicode="&#x2c6;" horiz-adv-x="300" d="M216 562 C223 554 232 550 242 550 C260 550 275 564 275 584 C275 590 274 596 271 601 L223 676 C210 694 188 706 167 706 L133 706 C111 706 89 694 77 676 L28 601 C25 596 24 590 24 584 C24 564 39 550 57 550 C67 550 76 554 83 562 L150 645 L216 562 Z " />
<glyph glyph-name="caron" unicode="&#x2c7;" horiz-adv-x="300" d="M242 706 C232 706 223 702 216 695 L150 611 L83 695 C76 702 67 706 57 706 C39 706 24 692 24 672 C24 666 25 660 28 656 L77 580 C89 562 111 550 133 550 L167 550 C188 550 210 562 223 580 L271 656 C274 660 275 666 275 672 C275 692 260 706 242 706 L242 706 Z " />
<glyph glyph-name="uni02C9" unicode="&#x2c9;" horiz-adv-x="363" d="M44 591 L319 591 C339 591 355 607 355 627 C355 647 339 664 319 664 L44 664 C24 664 8 647 8 627 C8 607 24 591 44 591 L44 591 Z " />
<glyph glyph-name="uni02CB" unicode="&#x2cb;" horiz-adv-x="251" d="M163 556 C168 550 177 547 185 547 C203 547 218 561 218 579 C218 587 214 595 209 601 L119 698 C112 706 101 711 90 711 C70 711 52 693 52 671 C52 660 56 651 64 643 L163 556 Z " />
<glyph glyph-name="breve" unicode="&#x2d8;" horiz-adv-x="351" d="M176 553 C235 553 287 575 329 616 C335 623 340 632 340 642 C340 662 324 679 304 679 C294 679 284 674 278 668 C250 640 216 625 176 625 C135 625 101 641 73 669 C67 675 57 679 47 679 C27 679 11 662 11 642 C11 632 16 622 23 616 C65 575 118 553 176 553 L176 553 Z " />
<glyph glyph-name="dotaccent" unicode="&#x2d9;" horiz-adv-x="159" d="M12 621 C12 583 43 553 80 553 C117 553 147 583 147 621 C147 658 117 689 80 689 C43 689 12 658 12 621 L12 621 Z " />
<glyph glyph-name="ring" unicode="&#x2da;" horiz-adv-x="249" d="M20 636 C20 578 68 531 125 531 C183 531 229 578 229 636 C229 693 183 742 125 742 C68 742 20 693 20 636 L20 636 Z M171 636 C171 611 151 589 125 589 C100 589 78 611 78 636 C78 662 100 683 125 683 C151 683 171 662 171 636 L171 636 Z " />
<glyph glyph-name="ogonek" unicode="&#x2db;" horiz-adv-x="220" d="M122 -186 C146 -186 166 -184 184 -179 C193 -176 210 -164 210 -143 C210 -121 193 -105 172 -105 C167 -105 164 -107 157 -107 C139 -107 123 -96 123 -76 C123 -48 140 -28 182 7 C200 21 159 11 123 0 C61 -19 9 -56 9 -106 C9 -163 67 -186 122 -186 L122 -186 Z " />
<glyph glyph-name="tilde" unicode="&#x2dc;" horiz-adv-x="327" d="M220 554 C279 554 315 589 324 657 C327 678 311 695 291 695 C275 695 261 684 258 669 C253 639 240 627 224 627 C208 627 197 639 183 653 C166 672 146 694 108 694 C48 694 12 658 3 591 C0 572 15 553 36 553 C52 553 65 564 69 579 C73 610 88 622 103 622 C119 622 130 609 143 595 C160 576 181 554 220 554 L220 554 Z " />
<glyph glyph-name="hungarumlaut" unicode="&#x2dd;" horiz-adv-x="338" d="M53 549 C63 549 72 553 78 561 L144 643 C149 650 152 658 152 667 C152 689 134 707 113 707 C100 707 87 700 80 688 L25 598 C22 593 20 587 20 581 C20 563 36 549 53 549 L53 549 Z M202 549 C212 549 221 553 227 561 L293 643 C298 650 301 658 301 667 C301 689 283 707 262 707 C249 707 236 700 229 688 L174 598 C171 593 169 587 169 581 C169 563 185 549 202 549 L202 549 Z " />
<glyph glyph-name="gravecomb" unicode="&#x300;" d="M-88 556 C-83 550 -74 547 -66 547 C-48 547 -33 561 -33 579 C-33 587 -37 595 -42 601 L-132 698 C-139 706 -150 711 -161 711 C-181 711 -199 693 -199 671 C-199 660 -195 651 -187 643 L-88 556 Z " />
<glyph glyph-name="acutecomb" unicode="&#x301;" d="M-163 556 L-65 643 C-56 651 -52 660 -52 671 C-52 693 -70 711 -90 711 C-102 711 -112 706 -119 698 L-210 601 C-214 595 -218 587 -218 579 C-218 561 -203 547 -185 547 C-177 547 -168 550 -163 556 L-163 556 Z " />
<glyph glyph-name="uni0302" unicode="&#x302;" d="M-84 562 C-77 554 -68 550 -58 550 C-40 550 -25 564 -25 584 C-25 590 -26 596 -29 601 L-77 676 C-90 694 -112 706 -133 706 L-167 706 C-189 706 -211 694 -223 676 L-272 601 C-275 596 -276 590 -276 584 C-276 564 -261 550 -243 550 C-233 550 -224 554 -217 562 L-150 645 L-84 562 Z " />
<glyph glyph-name="tildecomb" unicode="&#x303;" d="M-107 554 C-48 554 -12 589 -3 657 C0 678 -16 695 -36 695 C-52 695 -66 684 -69 669 C-74 639 -87 627 -103 627 C-119 627 -130 639 -144 653 C-161 672 -181 694 -219 694 C-279 694 -315 658 -324 591 C-327 572 -312 553 -291 553 C-275 553 -262 564 -258 579 C-254 610 -239 622 -224 622 C-208 622 -197 609 -184 595 C-167 576 -146 554 -107 554 L-107 554 Z " />
<glyph glyph-name="uni0304" unicode="&#x304;" d="M-319 562 L-44 562 C-24 562 -8 578 -8 598 C-8 618 -24 634 -44 634 L-319 634 C-339 634 -355 618 -355 598 C-355 578 -339 562 -319 562 L-319 562 Z " />
<glyph glyph-name="uni0306" unicode="&#x306;" d="M-175 553 C-116 553 -64 575 -22 616 C-16 623 -11 632 -11 642 C-11 662 -27 679 -47 679 C-57 679 -67 674 -73 668 C-101 640 -135 625 -175 625 C-216 625 -250 641 -278 669 C-284 675 -294 679 -304 679 C-324 679 -340 662 -340 642 C-340 632 -335 622 -328 616 C-286 575 -233 553 -175 553 L-175 553 Z " />
<glyph glyph-name="uni0307" unicode="&#x307;" d="M-147 621 C-147 583 -116 553 -79 553 C-42 553 -12 583 -12 621 C-12 658 -42 689 -79 689 C-116 689 -147 658 -147 621 L-147 621 Z " />
<glyph glyph-name="uni0308" unicode="&#x308;" d="M-317 554 C-280 554 -250 583 -250 622 C-250 659 -280 689 -317 689 C-355 689 -385 659 -385 622 C-385 583 -355 554 -317 554 L-317 554 Z M-106 554 C-69 554 -38 583 -38 622 C-38 659 -69 689 -106 689 C-143 689 -174 659 -174 622 C-174 583 -143 554 -106 554 L-106 554 Z " />
<glyph glyph-name="uni0309" unicode="&#x309;" d="M-40 551 C-27 551 -17 559 -12 569 C-2 588 3 602 3 623 C3 689 -47 716 -101 716 C-135 716 -164 702 -183 677 C-189 671 -194 663 -194 654 C-194 636 -179 624 -165 624 C-152 624 -143 630 -138 638 C-130 653 -117 660 -101 660 C-80 660 -63 649 -63 620 C-63 610 -65 600 -67 594 C-69 587 -70 583 -70 577 C-69 563 -56 551 -40 551 L-40 551 Z " />
<glyph glyph-name="uni030A" unicode="&#x30a;" d="M-229 636 C-229 578 -181 531 -124 531 C-66 531 -20 578 -20 636 C-20 693 -66 742 -124 742 C-181 742 -229 693 -229 636 L-229 636 Z M-78 636 C-78 611 -98 589 -124 589 C-149 589 -171 611 -171 636 C-171 662 -149 683 -124 683 C-98 683 -78 662 -78 636 L-78 636 Z " />
<glyph glyph-name="uni030B" unicode="&#x30b;" d="M-285 549 C-275 549 -266 553 -260 561 L-194 643 C-189 650 -186 658 -186 667 C-186 689 -204 707 -225 707 C-238 707 -251 700 -258 688 L-313 598 C-316 593 -318 587 -318 581 C-318 563 -302 549 -285 549 L-285 549 Z M-136 549 C-126 549 -117 553 -111 561 L-45 643 C-40 650 -37 658 -37 667 C-37 689 -55 707 -76 707 C-89 707 -102 700 -109 688 L-164 598 C-167 593 -169 587 -169 581 C-169 563 -153 549 -136 549 L-136 549 Z " />
<glyph glyph-name="uni030C" unicode="&#x30c;" d="M-58 706 C-68 706 -77 702 -84 695 L-150 611 L-217 695 C-224 702 -233 706 -243 706 C-261 706 -276 692 -276 672 C-276 666 -275 660 -272 656 L-223 580 C-211 562 -189 550 -167 550 L-133 550 C-112 550 -90 562 -77 580 L-29 656 C-26 660 -25 666 -25 672 C-25 692 -40 706 -58 706 L-58 706 Z " />
<glyph glyph-name="dotbelowcomb" unicode="&#x323;" d="M-147 -119 C-147 -157 -116 -187 -79 -187 C-42 -187 -12 -157 -12 -119 C-12 -82 -42 -51 -79 -51 C-116 -51 -147 -82 -147 -119 L-147 -119 Z " />
<glyph glyph-name="uni0326" unicode="&#x326;" d="M-147 -286 C-140 -286 -134 -282 -130 -279 C-87 -244 -58 -194 -58 -138 C-58 -86 -92 -57 -129 -57 C-163 -57 -190 -85 -190 -119 C-190 -153 -167 -176 -137 -176 C-131 -176 -124 -175 -122 -174 C-127 -194 -143 -219 -162 -236 C-169 -243 -174 -250 -174 -259 C-174 -274 -162 -286 -147 -286 L-147 -286 Z " />
<glyph glyph-name="uni0327" unicode="&#x327;" d="M-111 -196 C-51 -196 0 -164 0 -111 C0 -69 -30 -41 -67 -41 C-80 -41 -93 -44 -103 -51 L-77 11 L-140 11 L-163 -53 C-164 -56 -165 -60 -165 -63 C-165 -82 -152 -96 -134 -96 C-126 -96 -120 -93 -116 -91 C-110 -86 -101 -83 -92 -83 C-73 -83 -63 -93 -63 -109 C-63 -131 -88 -142 -115 -142 C-135 -142 -157 -136 -178 -124 C-183 -121 -187 -120 -192 -120 C-207 -120 -220 -133 -220 -149 C-220 -163 -211 -171 -203 -175 C-181 -186 -148 -196 -111 -196 L-111 -196 Z " />
<glyph glyph-name="uni0328" unicode="&#x328;" d="M-98 -186 C-74 -186 -54 -184 -36 -179 C-27 -176 -10 -164 -10 -143 C-10 -121 -27 -105 -48 -105 C-53 -105 -56 -107 -63 -107 C-81 -107 -97 -96 -97 -76 C-97 -48 -80 -28 -38 7 C-20 21 -61 11 -97 0 C-159 -19 -211 -56 -211 -106 C-211 -163 -153 -186 -98 -186 L-98 -186 Z " />
<glyph glyph-name="uni037E" unicode="&#x37e;" horiz-adv-x="256" d="M128 328 C172 328 209 366 209 409 C209 453 172 490 128 490 C84 490 47 453 47 409 C47 366 84 328 128 328 L128 328 Z M130 -124 C183 -77 215 -17 215 49 C215 114 172 151 125 151 C83 151 47 115 47 71 C47 29 77 -1 115 -1 C122 -1 131 1 134 3 C129 -22 108 -50 84 -73 C77 -79 73 -88 73 -98 C73 -117 88 -133 107 -133 C116 -133 124 -129 130 -124 L130 -124 Z " />
<glyph glyph-name="tonos" unicode="&#x384;" horiz-adv-x="143" d="M40 554 C54 554 65 561 70 575 L116 718 C118 723 119 727 119 732 C119 757 97 778 72 778 C48 778 28 760 26 736 L11 587 C10 570 24 554 40 554 L40 554 Z " />
<glyph glyph-name="dieresistonos" unicode="&#x385;" horiz-adv-x="453" d="M214 554 C228 554 238 562 243 575 L289 718 C290 722 291 727 291 732 C291 757 270 778 244 778 C221 778 201 760 198 736 L184 588 C182 570 196 554 214 554 L214 554 Z M77 554 C114 554 144 583 144 622 C144 659 114 689 77 689 C38 689 9 659 9 622 C9 583 38 554 77 554 L77 554 Z M376 554 C414 554 444 583 444 622 C444 659 414 689 376 689 C339 689 309 659 309 622 C309 583 339 554 376 554 L376 554 Z " />
<glyph glyph-name="Alphatonos" unicode="&#x386;" horiz-adv-x="678" d="M84 452 C98 452 109 459 114 473 L160 616 C162 621 163 625 163 630 C163 655 141 676 116 676 C92 676 72 658 70 634 L55 485 C54 468 68 452 84 452 L84 452 Z M650 90 L456 594 C438 641 392 674 339 674 C285 674 240 641 222 594 L27 90 C24 83 22 74 22 65 C22 25 54 -7 94 -7 C125 -7 153 13 162 41 L189 119 L489 119 L516 41 C525 13 552 -7 583 -7 C623 -7 656 25 656 65 C656 74 653 83 650 90 L650 90 Z M233 242 L339 544 L445 242 L233 242 Z " />
<glyph glyph-name="Epsilontonos" unicode="&#x388;" horiz-adv-x="643" d="M13 452 C27 452 38 459 43 473 L89 616 C91 621 92 625 92 630 C92 655 70 676 45 676 C21 676 1 658 -1 634 L-16 485 C-17 468 -3 452 13 452 L13 452 Z M201 0 L543 0 C577 0 605 28 605 62 C605 95 577 123 543 123 L268 123 L268 278 L536 278 C570 278 598 305 598 339 C598 372 570 400 536 400 L268 400 L268 545 L543 545 C577 545 605 572 605 605 C605 640 577 667 543 667 L201 667 C153 667 126 640 126 592 L126 76 C126 27 153 0 201 0 L201 0 Z " />
<glyph glyph-name="Etatonos" unicode="&#x389;" horiz-adv-x="792" d="M13 452 C27 452 38 459 43 473 L89 616 C91 621 92 625 92 630 C92 655 70 676 45 676 C21 676 1 658 -1 634 L-16 485 C-17 468 -3 452 13 452 L13 452 Z M654 -7 C694 -7 726 26 726 64 L726 603 C726 642 694 674 655 674 C615 674 583 642 583 603 L583 405 L268 405 L268 603 C268 642 237 674 197 674 C158 674 126 642 126 603 L126 64 C126 26 158 -7 198 -7 C237 -7 268 26 268 64 L268 280 L583 280 L583 64 C583 26 615 -7 654 -7 L654 -7 Z " />
<glyph glyph-name="Iotatonos" unicode="&#x38a;" horiz-adv-x="335" d="M13 452 C27 452 38 459 43 473 L89 616 C91 621 92 625 92 630 C92 655 70 676 45 676 C21 676 1 658 -1 634 L-16 485 C-17 468 -3 452 13 452 L13 452 Z M198 -7 C237 -7 268 26 268 64 L268 603 C268 642 237 674 198 674 C158 674 126 642 126 603 L126 64 C126 26 158 -7 198 -7 L198 -7 Z " />
<glyph glyph-name="Omicrontonos" unicode="&#x38c;" horiz-adv-x="799" d="M67 333 C67 132 214 -12 415 -12 C617 -12 764 132 764 333 C764 534 617 678 415 678 C214 678 67 534 67 333 L67 333 Z M13 452 C27 452 38 459 43 473 L89 616 C91 621 92 625 92 630 C92 655 70 676 45 676 C21 676 1 658 -1 634 L-16 485 C-17 468 -3 452 13 452 L13 452 Z M618 333 C618 209 538 114 415 114 C292 114 213 209 213 333 C213 458 292 552 415 552 C538 552 618 458 618 333 L618 333 Z " />
<glyph glyph-name="Upsilontonos" unicode="&#x38e;" horiz-adv-x="724" d="M45 676 C21 676 1 658 -1 634 L-16 485 C-17 468 -3 452 13 452 C27 452 38 459 43 473 L89 616 C91 621 92 625 92 630 C92 655 70 676 45 676 L45 676 Z M687 605 C687 644 656 674 618 674 C596 674 575 663 562 644 L402 398 L240 644 C227 664 206 674 184 674 C146 674 115 644 115 605 C115 591 119 577 129 564 L330 273 L330 64 C330 26 362 -7 402 -7 C441 -7 473 26 473 64 L473 275 L673 564 C683 577 687 591 687 605 L687 605 Z " />
<glyph glyph-name="Omegatonos" unicode="&#x38f;" horiz-adv-x="809" d="M215 125 L151 125 C117 125 89 97 89 63 C89 28 117 0 151 0 L298 0 C339 0 372 33 372 74 C372 103 356 128 333 140 C266 173 224 246 224 334 C224 440 285 551 426 551 C568 551 629 440 629 334 C629 246 587 173 520 140 C497 128 481 103 481 74 C481 33 514 0 555 0 L702 0 C736 0 765 28 765 62 C765 97 736 125 702 125 L639 125 C710 173 775 252 775 366 C775 556 628 678 426 678 C226 678 78 556 78 366 C78 252 144 173 215 125 L215 125 Z M13 452 C27 452 38 459 43 473 L89 616 C91 621 92 625 92 630 C92 655 70 676 45 676 C21 676 1 658 -1 634 L-16 485 C-17 468 -3 452 13 452 L13 452 Z " />
<glyph glyph-name="iotadieresistonos" unicode="&#x390;" horiz-adv-x="267" d="M131 574 C145 574 155 582 160 595 L206 738 C207 742 208 747 208 752 C208 777 187 798 161 798 C138 798 118 780 115 756 L101 608 C99 590 113 574 131 574 L131 574 Z M-6 574 C31 574 61 603 61 642 C61 679 31 709 -6 709 C-45 709 -74 679 -74 642 C-74 603 -45 574 -6 574 L-6 574 Z M293 574 C331 574 361 603 361 642 C361 679 331 709 293 709 C256 709 226 679 226 642 C226 603 256 574 293 574 L293 574 Z M195 -12 L206 -12 C240 -11 262 13 262 46 C262 70 250 92 226 99 L221 100 C204 104 190 121 190 145 L190 426 C190 461 161 490 127 490 C91 490 63 461 63 426 L63 120 C63 34 110 -12 195 -12 L195 -12 Z " />
<glyph glyph-name="Alpha" unicode="&#x391;" horiz-adv-x="678" d="M650 90 L456 594 C438 641 392 674 339 674 C285 674 240 641 222 594 L27 90 C24 83 22 74 22 65 C22 25 54 -7 94 -7 C125 -7 153 13 162 41 L189 119 L489 119 L516 41 C525 13 552 -7 583 -7 C623 -7 656 25 656 65 C656 74 653 83 650 90 L650 90 Z M233 242 L339 544 L445 242 L233 242 Z " />
<glyph glyph-name="Beta" unicode="&#x392;" horiz-adv-x="663" d="M141 0 L428 0 C555 0 622 80 622 180 C622 264 565 333 494 344 C557 357 609 413 609 497 C609 586 544 667 417 667 L141 667 C93 667 66 640 66 592 L66 76 C66 27 93 0 141 0 L141 0 Z M208 399 L208 546 L386 546 C434 546 464 514 464 473 C464 430 434 399 386 399 L208 399 Z M208 121 L208 278 L391 278 C447 278 477 242 477 200 C477 152 445 121 391 121 L208 121 Z " />
<glyph glyph-name="Gamma" unicode="&#x393;" horiz-adv-x="564" d="M138 -7 C177 -7 208 26 208 64 L208 542 L482 542 C516 542 545 570 545 604 C545 639 516 667 482 667 L141 667 C93 667 66 640 66 592 L66 64 C66 26 98 -7 138 -7 L138 -7 Z " />
<glyph glyph-name="uni0394" unicode="&#x394;" horiz-adv-x="684" d="M89 0 L595 0 C651 0 675 34 655 87 L459 594 C441 641 395 674 342 674 C288 674 242 641 224 594 L28 87 C8 34 33 0 89 0 L89 0 Z M342 525 L488 125 L196 125 L342 525 Z " />
<glyph glyph-name="Epsilon" unicode="&#x395;" horiz-adv-x="583" d="M141 0 L483 0 C517 0 545 28 545 62 C545 95 517 123 483 123 L208 123 L208 278 L476 278 C510 278 538 305 538 339 C538 372 510 400 476 400 L208 400 L208 545 L483 545 C517 545 545 572 545 605 C545 640 517 667 483 667 L141 667 C93 667 66 640 66 592 L66 76 C66 27 93 0 141 0 L141 0 Z " />
<glyph glyph-name="Zeta" unicode="&#x396;" horiz-adv-x="592" d="M113 0 L494 0 C528 0 557 28 557 63 C557 97 528 125 494 125 L228 125 L535 542 C544 554 550 571 550 588 C550 632 515 667 471 667 L97 667 C63 667 34 639 34 604 C34 570 63 542 97 542 L357 542 L50 126 C40 113 34 97 34 79 C34 35 70 0 113 0 L113 0 Z " />
<glyph glyph-name="Eta" unicode="&#x397;" horiz-adv-x="731" d="M594 -7 C634 -7 666 26 666 64 L666 603 C666 642 634 674 595 674 C555 674 523 642 523 603 L523 405 L208 405 L208 603 C208 642 177 674 137 674 C98 674 66 642 66 603 L66 64 C66 26 98 -7 138 -7 C177 -7 208 26 208 64 L208 280 L523 280 L523 64 C523 26 555 -7 594 -7 L594 -7 Z " />
<glyph glyph-name="Theta" unicode="&#x398;" horiz-adv-x="765" d="M34 333 C34 132 181 -12 382 -12 C584 -12 731 132 731 333 C731 534 584 678 382 678 C181 678 34 534 34 333 L34 333 Z M585 333 C585 209 505 114 382 114 C259 114 180 209 180 333 C180 458 259 552 382 552 C505 552 585 458 585 333 L585 333 Z M282 276 L483 276 C517 276 546 304 546 339 C546 373 517 401 483 401 L282 401 C248 401 219 373 219 339 C219 304 248 276 282 276 L282 276 Z " />
<glyph glyph-name="Iota" unicode="&#x399;" horiz-adv-x="274" d="M138 -7 C177 -7 208 26 208 64 L208 603 C208 642 177 674 138 674 C98 674 66 642 66 603 L66 64 C66 26 98 -7 138 -7 L138 -7 Z " />
<glyph glyph-name="Kappa" unicode="&#x39a;" horiz-adv-x="636" d="M585 106 L362 350 L564 564 C576 576 581 591 581 608 C581 643 552 674 515 674 C496 674 479 667 465 652 L208 368 L208 603 C208 642 177 674 137 674 C98 674 66 642 66 603 L66 64 C66 26 98 -7 137 -7 C177 -7 208 26 208 64 L208 205 L262 265 L484 15 C496 0 514 -7 535 -7 C574 -7 602 26 602 62 C602 78 595 94 585 106 L585 106 Z " />
<glyph glyph-name="Lambda" unicode="&#x39b;" horiz-adv-x="684" d="M582 -7 C624 -7 657 27 657 68 C657 77 655 86 652 94 L459 593 C441 640 395 674 342 674 C288 674 243 640 225 593 L32 94 C28 86 26 77 26 68 C26 27 60 -7 101 -7 C134 -7 162 14 172 43 L342 525 L511 43 C521 14 550 -7 582 -7 L582 -7 Z " />
<glyph glyph-name="Mu" unicode="&#x39c;" horiz-adv-x="855" d="M717 -7 C757 -7 789 26 789 64 L789 558 C789 622 737 674 672 674 C623 674 580 643 564 599 L427 251 L291 599 C274 643 232 674 182 674 C118 674 66 622 66 558 L66 64 C66 26 98 -7 138 -7 C177 -7 208 26 208 64 L208 480 L389 19 C395 4 410 -7 427 -7 C444 -7 459 4 465 19 L646 480 L646 64 C646 26 678 -7 717 -7 L717 -7 Z " />
<glyph glyph-name="Nu" unicode="&#x39d;" horiz-adv-x="729" d="M576 -7 C624 -7 663 32 663 80 L663 603 C663 642 631 674 592 674 C552 674 521 642 521 603 L521 235 L235 635 C218 659 190 674 159 674 C107 674 66 632 66 581 L66 64 C66 26 98 -7 138 -7 C177 -7 208 26 208 64 L208 448 L505 30 C521 7 547 -7 576 -7 L576 -7 Z " />
<glyph glyph-name="Xi" unicode="&#x39e;" horiz-adv-x="624" d="M100 545 L523 545 C557 545 585 572 585 606 C585 640 557 667 523 667 L100 667 C66 667 38 640 38 606 C38 572 66 545 100 545 L100 545 Z M107 278 L517 278 C551 278 579 305 579 339 C579 372 551 400 517 400 L107 400 C73 400 45 372 45 338 C45 305 73 278 107 278 L107 278 Z M100 0 L523 0 C557 0 585 28 585 61 C585 95 557 123 523 123 L100 123 C66 123 38 95 38 61 C38 28 66 0 100 0 L100 0 Z " />
<glyph glyph-name="Omicron" unicode="&#x39f;" horiz-adv-x="765" d="M34 333 C34 132 181 -12 382 -12 C584 -12 731 132 731 333 C731 534 584 678 382 678 C181 678 34 534 34 333 L34 333 Z M585 333 C585 209 505 114 382 114 C259 114 180 209 180 333 C180 458 259 552 382 552 C505 552 585 458 585 333 L585 333 Z " />
<glyph glyph-name="Pi" unicode="&#x3a0;" horiz-adv-x="731" d="M594 -7 C634 -7 666 26 666 64 L666 592 C666 640 639 667 590 667 L141 667 C93 667 66 640 66 592 L66 64 C66 26 98 -7 138 -7 C177 -7 208 26 208 64 L208 542 L523 542 L523 64 C523 26 555 -7 594 -7 L594 -7 Z " />
<glyph glyph-name="Rho" unicode="&#x3a1;" horiz-adv-x="624" d="M138 -7 C177 -7 208 26 208 64 L208 239 L378 239 C522 239 602 336 602 452 C602 569 523 667 378 667 L141 667 C93 667 66 640 66 592 L66 64 C66 26 98 -7 138 -7 L138 -7 Z M457 453 C457 397 415 361 359 361 L208 361 L208 545 L359 545 C415 545 457 508 457 453 L457 453 Z " />
<glyph glyph-name="Sigma" unicode="&#x3a3;" horiz-adv-x="586" d="M217 125 L370 288 C404 323 404 359 369 394 L224 542 L485 542 C519 542 548 570 548 604 C548 639 519 667 485 667 L121 667 C76 667 39 630 39 585 C39 561 48 541 64 525 L248 340 L62 142 C47 126 38 107 38 84 C38 37 76 0 122 0 L485 0 C519 0 548 28 548 63 C548 97 519 125 485 125 L217 125 Z " />
</font>
</svg>
